<svg width="24" height="7" viewBox="0 0 24 7" fill="none" xmlns="http://www.w3.org/2000/svg">
<path d="M3.6177 6.36C2.8177 6.36 2.1477 6.1 1.6077 5.58C1.0677 5.04 0.797695 4.37 0.797695 3.57C0.797695 2.79 1.0677 2.13 1.6077 1.59C2.1477 1.05 2.8177 0.78 3.6177 0.78C4.3977 0.78 5.0477 1.05 5.5677 1.59C6.1077 2.13 6.3777 2.79 6.3777 3.57C6.3777 4.37 6.1177 5.04 5.5977 5.58C5.0777 6.1 4.4177 6.36 3.6177 6.36ZM12.0259 6.36C11.2259 6.36 10.5559 6.1 10.0159 5.58C9.4759 5.04 9.2059 4.37 9.2059 3.57C9.2059 2.79 9.4759 2.13 10.0159 1.59C10.5559 1.05 11.2259 0.78 12.0259 0.78C12.8059 0.78 13.4559 1.05 13.9759 1.59C14.5159 2.13 14.7859 2.79 14.7859 3.57C14.7859 4.37 14.5259 5.04 14.0059 5.58C13.4859 6.1 12.8259 6.36 12.0259 6.36ZM20.4341 6.36C19.6341 6.36 18.9641 6.1 18.4241 5.58C17.8841 5.04 17.6141 4.37 17.6141 3.57C17.6141 2.79 17.8841 2.13 18.4241 1.59C18.9641 1.05 19.6341 0.78 20.4341 0.78C21.2141 0.78 21.8641 1.05 22.3841 1.59C22.9241 2.13 23.1941 2.79 23.1941 3.57C23.1941 4.37 22.9341 5.04 22.4141 5.58C21.8941 6.1 21.2341 6.36 20.4341 6.36Z" fill="#0D2B4D"/>
</svg>
