<svg width="180" height="160" viewBox="0 0 180 160" fill="none" xmlns="http://www.w3.org/2000/svg">
<path d="M161.76 85.2399L136.88 54.1399V40.4299H139.65C139.915 40.4299 140.17 40.3246 140.357 40.137C140.545 39.9495 140.65 39.6951 140.65 39.4299C140.65 39.1647 140.545 38.9103 140.357 38.7228C140.17 38.5353 139.915 38.4299 139.65 38.4299H117.06C116.795 38.4299 116.541 38.5353 116.353 38.7228C116.166 38.9103 116.06 39.1647 116.06 39.4299C116.06 39.6951 116.166 39.9495 116.353 40.137C116.541 40.3246 116.795 40.4299 117.06 40.4299H119.82V54.1399L94.9402 85.2399C94.7969 85.4185 94.7193 85.6409 94.7202 85.8699C94.7255 87.7981 95.4945 89.6457 96.8589 91.0083C98.2233 92.3708 100.072 93.1373 102 93.1399H154.71C155.668 93.1506 156.618 92.9699 157.505 92.6084C158.392 92.2468 159.198 91.7117 159.875 91.0345C160.552 90.3572 161.087 89.5515 161.449 88.6646C161.81 87.7778 161.991 86.8276 161.98 85.8699C161.981 85.6409 161.904 85.4185 161.76 85.2399ZM121.6 55.1199C121.744 54.9413 121.821 54.7189 121.82 54.4899V40.4299H134.88V54.4899C134.879 54.7189 134.957 54.9413 135.1 55.1199L145.85 68.5499H110.85L121.6 55.1199ZM154.71 91.1199H102C100.654 91.1372 99.3526 90.6325 98.3701 89.7115C97.3876 88.7905 96.7999 87.5248 96.7302 86.1799L109.25 70.5299H147.47L159.99 86.1799C159.926 87.5301 159.339 88.8023 158.353 89.7278C157.368 90.6532 156.062 91.1596 154.71 91.1399V91.1199ZM143.25 106.68C123 106.68 106.53 115.81 106.53 127.03V139.03C106.53 150.25 123 159.38 143.25 159.38C163.5 159.38 179.98 150.25 179.98 139.03V127.03C179.98 115.83 163.47 106.7 143.25 106.7V106.68ZM143.25 108.68C162.4 108.68 177.98 116.92 177.98 127.03C177.975 128.432 177.679 129.818 177.11 131.1C171.54 123.78 158.46 118.63 143.25 118.63C128.04 118.63 114.96 123.78 109.4 131.1C108.832 129.818 108.535 128.432 108.53 127.03C108.53 116.94 124.11 108.7 143.25 108.7V108.68ZM176.08 133.01C171.38 140.2 158.45 145.39 143.25 145.39C128.05 145.39 115.13 140.2 110.43 133.01C115.13 125.81 128.06 120.63 143.25 120.63C158.44 120.63 171.38 125.83 176.08 133.03V133.01ZM143.25 157.33C124.11 157.33 108.53 149.1 108.53 138.98C108.533 137.581 108.829 136.198 109.4 134.92C114.96 142.24 128.04 147.39 143.25 147.39C158.46 147.39 171.54 142.24 177.11 134.92C177.681 136.198 177.977 137.581 177.98 138.98C177.98 149.12 162.4 157.35 143.25 157.35V157.33Z" fill="#0D2B4D"/>
<path d="M109.53 32.89C108.586 32.8919 107.662 32.6136 106.876 32.0903C106.09 31.5669 105.477 30.822 105.115 29.95C104.753 29.078 104.657 28.1181 104.841 27.1918C105.025 26.2656 105.479 25.4148 106.147 24.7471C106.815 24.0794 107.666 23.6249 108.592 23.4411C109.518 23.2574 110.478 23.3527 111.35 23.715C112.222 24.0773 112.967 24.6902 113.49 25.4762C114.014 26.2621 114.292 27.1857 114.29 28.13C114.287 29.3916 113.785 30.6008 112.893 31.4929C112.001 32.385 110.792 32.8873 109.53 32.89ZM109.53 25.36C108.982 25.358 108.445 25.5187 107.988 25.8219C107.531 26.1251 107.175 26.557 106.964 27.063C106.753 27.569 106.696 28.1262 106.802 28.6642C106.908 29.2022 107.171 29.6967 107.558 30.0851C107.945 30.4735 108.438 30.7383 108.976 30.846C109.513 30.9537 110.071 30.8994 110.578 30.69C111.084 30.4807 111.518 30.1257 111.822 29.6699C112.127 29.2142 112.29 28.6782 112.29 28.13C112.287 27.3988 111.996 26.6983 111.479 26.1813C110.962 25.6642 110.261 25.3726 109.53 25.37V25.36Z" fill="#52AEFB"/>
<path d="M138.33 9.53999C137.386 9.53999 136.464 9.25997 135.679 8.7354C134.894 8.21082 134.283 7.46528 133.922 6.59309C133.561 5.72091 133.468 4.7613 133.652 3.83574C133.837 2.91018 134.293 2.06027 134.961 1.39357C135.629 0.726872 136.48 0.273358 137.406 0.0904378C138.332 -0.0924829 139.291 0.00341707 140.162 0.365981C141.034 0.728545 141.778 1.34147 142.301 2.12721C142.824 2.91295 143.102 3.83617 143.1 4.78001C143.1 5.40595 142.977 6.02573 142.737 6.6039C142.497 7.18206 142.145 7.70723 141.702 8.14937C141.259 8.59151 140.733 8.9419 140.155 9.18053C139.576 9.41915 138.956 9.54131 138.33 9.53999ZM138.33 2.00999C137.782 2.00999 137.247 2.17245 136.791 2.47682C136.336 2.78119 135.981 3.2138 135.771 3.71995C135.561 4.22611 135.506 4.78306 135.613 5.32039C135.72 5.85772 135.984 6.3513 136.371 6.73869C136.759 7.12608 137.252 7.3899 137.79 7.49678C138.327 7.60366 138.884 7.54881 139.39 7.33916C139.896 7.1295 140.329 6.77445 140.633 6.31892C140.938 5.8634 141.1 5.32787 141.1 4.78001C141.1 4.04536 140.808 3.34078 140.289 2.8213C139.769 2.30183 139.065 2.00999 138.33 2.00999Z" fill="#52AEFB"/>
<path d="M129.61 32.89C128.17 32.8919 126.761 32.4664 125.562 31.6672C124.363 30.868 123.429 29.7312 122.876 28.4005C122.324 27.0699 122.179 25.6053 122.46 24.1921C122.74 22.779 123.434 21.4809 124.453 20.4622C125.471 19.4435 126.769 18.7499 128.182 18.4694C129.596 18.1888 131.06 18.3338 132.391 18.886C133.721 19.4383 134.858 20.3729 135.658 21.5717C136.457 22.7704 136.882 24.1793 136.88 25.62C136.875 27.5465 136.107 29.3925 134.745 30.7548C133.383 32.117 131.537 32.8847 129.61 32.89ZM129.61 20.34C128.566 20.338 127.544 20.6459 126.674 21.2249C125.805 21.8039 125.126 22.6278 124.725 23.5924C124.324 24.5571 124.218 25.619 124.421 26.6439C124.623 27.6688 125.125 28.6105 125.863 29.3499C126.601 30.0893 127.542 30.5932 128.567 30.7978C129.591 31.0023 130.653 30.8983 131.619 30.499C132.584 30.0997 133.409 29.4229 133.99 28.5544C134.57 27.6859 134.88 26.6647 134.88 25.62C134.875 24.2239 134.318 22.8865 133.331 21.8993C132.344 20.9121 131.006 20.3552 129.61 20.3499V20.34Z" fill="#52AEFB"/>
<path d="M90.9 152.35H84.77V127.35H90.9C91.1652 127.35 91.4195 127.245 91.6071 127.057C91.7946 126.87 91.9 126.615 91.9 126.35C91.9 126.085 91.7946 125.83 91.6071 125.643C91.4195 125.455 91.1652 125.35 90.9 125.35H59.76C59.4948 125.35 59.2404 125.455 59.0529 125.643C58.8653 125.83 58.76 126.085 58.76 126.35C58.76 126.615 58.8653 126.87 59.0529 127.057C59.2404 127.245 59.4948 127.35 59.76 127.35H70.15L62.96 138.85H34.75C26.45 138.85 22.24 134.08 22.24 124.66V116.22C22.24 105.68 26.45 100.34 34.75 100.34H38.1899C38.3223 100.339 38.4532 100.313 38.5751 100.261C38.6969 100.21 38.8074 100.134 38.9 100.04L50.98 87.95L57.48 106.31C57.5482 106.505 57.6752 106.674 57.8435 106.794C58.0118 106.914 58.2132 106.979 58.4199 106.98C58.5325 106.979 58.6442 106.958 58.75 106.92L65.84 104.42L69.77 115.52C69.8578 115.77 70.0412 115.975 70.28 116.09C70.4149 116.153 70.5613 116.187 70.71 116.19C70.8259 116.19 70.9409 116.17 71.0499 116.13L79.0499 113.29C79.1742 113.246 79.2887 113.178 79.3867 113.09C79.4847 113.002 79.5644 112.896 79.6211 112.777C79.6778 112.658 79.7104 112.529 79.717 112.397C79.7237 112.266 79.7043 112.134 79.6599 112.01L75.75 100.89L78.83 99.8C79.0763 99.71 79.2774 99.5269 79.39 99.29C79.4409 99.168 79.467 99.0372 79.467 98.905C79.467 98.7728 79.4409 98.642 79.39 98.52L66.62 62.4C66.5316 62.1513 66.3485 61.9476 66.1106 61.8333C65.8727 61.7191 65.5993 61.7035 65.35 61.79L60.27 63.58L58.1 57.44L61.1699 56.36C61.4206 56.2711 61.6257 56.0864 61.7401 55.8463C61.8545 55.6063 61.8689 55.3306 61.78 55.08C61.6912 54.8294 61.5064 54.6243 61.2664 54.5099C61.0263 54.3955 60.7506 54.3812 60.5 54.47L56.5 55.89L49.7999 58.25L44.46 60.14C44.1947 60.1837 43.9577 60.3311 43.8011 60.5495C43.6446 60.768 43.5812 61.0397 43.625 61.305C43.6688 61.5702 43.8161 61.8072 44.0345 61.9638C44.253 62.1204 44.5247 62.1837 44.7899 62.14C44.9025 62.1387 45.0142 62.1184 45.12 62.08L48.1899 60.99L50.36 67.14L45.28 68.93C45.03 69.0177 44.8249 69.2012 44.71 69.44C44.6154 69.6879 44.6154 69.962 44.71 70.21L48.71 81.47H21.26C16.5186 81.4779 11.9739 83.3656 8.62219 86.7192C5.27047 90.0728 3.38529 94.6186 3.38 99.36V136.5C3.38352 139.782 4.29037 143 6.00134 145.801C7.71231 148.602 10.1613 150.878 13.08 152.38H1C0.734784 152.38 0.480383 152.485 0.292847 152.673C0.10531 152.86 0 153.115 0 153.38C0 153.645 0.10531 153.9 0.292847 154.087C0.480383 154.275 0.734784 154.38 1 154.38H90.9199C91.1851 154.38 91.4395 154.275 91.6271 154.087C91.8146 153.9 91.9199 153.645 91.9199 153.38C91.9199 153.115 91.8146 152.86 91.6271 152.673C91.4395 152.485 91.1851 152.38 90.9199 152.38L90.9 152.35ZM71.3199 113.89L67.73 103.73L73.86 101.56L77.45 111.72L71.3199 113.89ZM50.11 60.29L52.49 59.45L56.25 58.12L58.4199 64.26L52.28 66.43L50.11 60.29ZM51.99 68.65L59.99 65.82L65.0599 64.03L77.1699 98.27L58.98 104.7L46.87 70.45L51.99 68.65ZM21.24 152.34C17.0292 152.337 12.9915 150.663 10.014 147.686C7.03653 144.708 5.36263 140.671 5.35999 136.46V99.33C5.36263 95.1182 7.03621 91.0796 10.0134 88.1005C12.9906 85.1214 17.0282 83.4453 21.24 83.44H49.39L50.25 85.85L37.77 98.33H34.77C25.28 98.33 20.26 104.51 20.26 116.21V124.65C20.26 135.24 25.26 140.84 34.77 140.84H63.47C63.6399 140.84 63.8071 140.797 63.9558 140.715C64.1045 140.633 64.2299 140.514 64.3199 140.37L72.47 127.37H82.73V152.37H21.2L21.24 152.34ZM132.96 126.04C130.35 126.04 128.39 127.24 128.39 128.83C128.39 130.42 130.39 131.61 132.96 131.61C135.53 131.61 137.52 130.42 137.52 128.83C137.52 127.24 135.56 126.05 132.96 126.05V126.04ZM132.96 129.61C132.503 129.659 132.04 129.618 131.599 129.487C131.158 129.357 130.747 129.14 130.39 128.85C130.46 128.63 131.39 128.04 132.96 128.04C133.418 127.99 133.882 128.034 134.322 128.17C134.762 128.306 135.17 128.53 135.52 128.83C135.168 129.127 134.76 129.35 134.32 129.485C133.881 129.621 133.418 129.667 132.96 129.62V129.61ZM145.78 131.31C140.96 131.31 137.33 133.31 137.33 136.04C137.33 138.77 140.96 140.76 145.78 140.76C150.6 140.76 154.22 138.76 154.22 136.04C154.22 133.32 150.59 131.32 145.78 131.32V131.31ZM145.78 138.76C142.09 138.76 139.33 137.32 139.33 136.04C139.33 134.76 142.09 133.31 145.78 133.31C149.47 133.31 152.22 134.75 152.22 136.04C152.22 137.33 149.47 138.77 145.78 138.77V138.76ZM148.55 125.06C148.442 124.819 148.434 124.544 148.527 124.297C148.621 124.049 148.809 123.849 149.05 123.74C149.562 123.486 150.122 123.345 150.693 123.326C151.264 123.307 151.832 123.411 152.36 123.63C152.691 123.831 152.965 124.113 153.157 124.448C153.35 124.784 153.454 125.163 153.46 125.55C153.471 125.681 153.456 125.814 153.415 125.939C153.375 126.065 153.31 126.181 153.225 126.281C153.139 126.382 153.035 126.464 152.917 126.524C152.8 126.584 152.671 126.62 152.54 126.63H152.47C152.218 126.631 151.975 126.536 151.79 126.366C151.604 126.195 151.49 125.961 151.47 125.71C151.47 125.64 151.47 125.4 151.34 125.35C150.84 125.266 150.326 125.339 149.87 125.56C149.63 125.669 149.356 125.678 149.109 125.587C148.862 125.495 148.661 125.309 148.55 125.07V125.06ZM163.12 136.73C163.027 136.828 162.915 136.905 162.792 136.958C162.668 137.012 162.535 137.039 162.4 137.04C162.141 137.036 161.894 136.932 161.71 136.75C161.524 136.563 161.419 136.309 161.419 136.045C161.419 135.781 161.524 135.527 161.71 135.34C162.45 134.58 162.37 134.04 162.34 133.87C162.19 132.8 160.75 131.76 160.25 131.48C160.136 131.414 160.036 131.327 159.955 131.222C159.875 131.118 159.816 130.999 159.781 130.872C159.747 130.744 159.738 130.612 159.755 130.481C159.772 130.35 159.814 130.224 159.88 130.11C159.946 129.996 160.033 129.896 160.138 129.815C160.242 129.735 160.361 129.676 160.488 129.641C160.615 129.607 160.748 129.598 160.879 129.615C161.01 129.632 161.136 129.674 161.25 129.74C161.53 129.9 164.01 131.34 164.34 133.57C164.405 134.157 164.329 134.752 164.116 135.304C163.904 135.855 163.562 136.348 163.12 136.74V136.73ZM124.39 136.18C124.356 136.42 124.236 136.64 124.052 136.798C123.868 136.956 123.633 137.042 123.39 137.04H123.24C121.96 136.85 120.24 136.44 119.88 135.04C119.52 133.64 120.88 132.69 121.11 132.5C121.215 132.413 121.337 132.348 121.468 132.309C121.599 132.27 121.736 132.259 121.872 132.276C122.007 132.292 122.138 132.336 122.256 132.405C122.374 132.474 122.476 132.567 122.557 132.677C122.637 132.787 122.695 132.913 122.725 133.046C122.755 133.179 122.758 133.317 122.733 133.451C122.708 133.585 122.656 133.713 122.58 133.827C122.504 133.94 122.405 134.036 122.29 134.11C122.13 134.236 121.988 134.384 121.87 134.55C122.384 134.824 122.949 134.987 123.53 135.03C123.664 135.047 123.793 135.091 123.909 135.159C124.026 135.227 124.127 135.318 124.208 135.426C124.288 135.535 124.345 135.658 124.377 135.79C124.408 135.921 124.413 136.057 124.39 136.19V136.18ZM148.47 32.89C147.776 32.89 147.097 32.6841 146.52 32.2984C145.943 31.9127 145.493 31.3646 145.227 30.7232C144.962 30.0818 144.892 29.3761 145.027 28.6952C145.163 28.0143 145.497 27.3889 145.988 26.898C146.479 26.4072 147.104 26.0729 147.785 25.9374C148.466 25.802 149.172 25.8715 149.813 26.1372C150.455 26.4028 151.003 26.8527 151.388 27.4299C151.774 28.0071 151.98 28.6858 151.98 29.38C151.98 30.3109 151.61 31.2037 150.952 31.8619C150.294 32.5202 149.401 32.89 148.47 32.89ZM148.47 27.89C148.171 27.89 147.879 27.9786 147.631 28.1445C147.383 28.3104 147.189 28.5462 147.075 28.8221C146.961 29.0981 146.931 29.4017 146.989 29.6946C147.047 29.9875 147.191 30.2565 147.402 30.4677C147.613 30.6789 147.883 30.8227 148.175 30.881C148.468 30.9392 148.772 30.9093 149.048 30.795C149.324 30.6808 149.56 30.4872 149.725 30.2389C149.891 29.9906 149.98 29.6986 149.98 29.4C149.977 29.0003 149.817 28.6178 149.535 28.3351C149.252 28.0525 148.87 27.8926 148.47 27.89Z" fill="#52AEFB"/>
<path d="M118.63 12.2799C117.936 12.2799 117.258 12.0743 116.681 11.689C116.104 11.3038 115.654 10.7562 115.388 10.1154C115.122 9.47464 115.052 8.76941 115.187 8.08881C115.321 7.40821 115.655 6.78276 116.145 6.29148C116.635 5.8002 117.259 5.46512 117.939 5.32856C118.619 5.192 119.325 5.26008 119.966 5.52421C120.608 5.78834 121.157 6.23667 121.544 6.81257C121.931 7.38847 122.138 8.06611 122.14 8.75989C122.14 9.69173 121.771 10.5856 121.113 11.2454C120.455 11.9052 119.562 12.2773 118.63 12.2799ZM118.63 7.27991C118.331 7.27992 118.039 7.36873 117.79 7.5351C117.542 7.70147 117.348 7.93789 117.234 8.21439C117.12 8.49089 117.091 8.79499 117.15 9.08817C117.209 9.38135 117.354 9.65041 117.566 9.86118C117.778 10.072 118.048 10.215 118.342 10.2721C118.635 10.3292 118.939 10.2979 119.215 10.1821C119.491 10.0663 119.726 9.87116 119.891 9.62153C120.055 9.3719 120.142 9.07898 120.14 8.77991C120.142 8.58078 120.103 8.38334 120.028 8.19898C119.953 8.01462 119.842 7.84697 119.701 7.70569C119.561 7.56442 119.394 7.45231 119.21 7.3758C119.026 7.29929 118.829 7.25989 118.63 7.25989V7.27991Z" fill="#52AEFB"/>
</svg>
