<svg width="180" height="166" viewBox="0 0 180 166" fill="none" xmlns="http://www.w3.org/2000/svg">
<path d="M64.47 33.9C64.472 33.1872 64.2623 32.4898 63.8675 31.8962C63.4726 31.3027 62.9105 30.8397 62.2523 30.566C61.5941 30.2923 60.8694 30.2201 60.1701 30.3587C59.4709 30.4973 58.8285 30.8404 58.3244 31.3444C57.8204 31.8485 57.4773 32.4909 57.3387 33.1902C57.2001 33.8894 57.2722 34.6141 57.546 35.2723C57.8197 35.9305 58.2826 36.4927 58.8762 36.8875C59.4697 37.2823 60.1671 37.492 60.88 37.49C61.8321 37.49 62.7453 37.1118 63.4185 36.4385C64.0918 35.7653 64.47 34.8521 64.47 33.9ZM60.88 35.49C60.5655 35.49 60.2581 35.3968 59.9966 35.2221C59.7352 35.0474 59.5314 34.799 59.411 34.5085C59.2907 34.2179 59.2592 33.8983 59.3206 33.5898C59.3819 33.2814 59.5333 32.9981 59.7557 32.7757C59.9781 32.5534 60.2614 32.4019 60.5698 32.3406C60.8783 32.2792 61.1979 32.3107 61.4885 32.4311C61.779 32.5514 62.0273 32.7552 62.2021 33.0167C62.3768 33.2781 62.47 33.5855 62.47 33.9C62.4674 34.3209 62.299 34.7238 62.0014 35.0214C61.7038 35.319 61.3009 35.4874 60.88 35.49Z" fill="#0D2B4D"/>
<path d="M70.1001 76.04H71.5201C71.7853 76.04 72.0397 75.9346 72.2272 75.7471C72.4147 75.5596 72.5201 75.3052 72.5201 75.04V64.12C72.519 62.1441 72.0132 60.2013 71.0506 58.4757C70.0881 56.7502 68.7007 55.299 67.0201 54.26V45.26C68.8804 44.2533 70.4639 42.8037 71.6305 41.0392C72.7971 39.2748 73.5109 37.2501 73.7086 35.1441C73.9064 33.0382 73.582 30.9159 72.7643 28.9652C71.9465 27.0145 70.6605 25.2954 69.0201 23.96L68.8301 10.03C68.8301 9.76478 68.7247 9.51044 68.5372 9.32291C68.3497 9.13537 68.0953 9.03 67.8301 9.03C67.5649 9.03 67.3105 9.13537 67.123 9.32291C66.9354 9.51044 66.8301 9.76478 66.8301 10.03L67.0001 22.58C65.1609 21.5832 63.1056 21.0521 61.0138 21.0329C58.9219 21.0137 56.8572 21.5071 55.0001 22.47L54.7501 1C54.7501 0.734784 54.6448 0.480444 54.4572 0.292908C54.2697 0.105371 54.0153 0 53.7501 0C53.4849 0 53.2305 0.105371 53.043 0.292908C52.8555 0.480444 52.7501 0.734784 52.7501 1L53.0201 23.71C51.3184 25.0164 49.9712 26.7283 49.1015 28.6894C48.2318 30.6505 47.8673 32.7982 48.0414 34.9365C48.2154 37.0747 48.9224 39.1352 50.0978 40.9299C51.2732 42.7245 52.8796 44.196 54.7701 45.21V54.21C53.0883 55.2485 51.6994 56.6993 50.7352 58.4248C49.771 60.1503 49.2632 62.0933 49.2601 64.07V74.99C49.2601 75.2552 49.3654 75.5096 49.553 75.6971C49.7405 75.8847 49.9949 75.99 50.2601 75.99H51.4301L48.9301 86.1C48.8666 86.3573 48.9079 86.6292 49.0448 86.856C49.1816 87.0829 49.4029 87.2462 49.6601 87.31H49.9001C50.1285 87.3167 50.3524 87.2449 50.5343 87.1066C50.7162 86.9683 50.8453 86.7719 50.9001 86.55L53.5201 75.96H68.0201L70.6401 86.55C70.6949 86.7719 70.8239 86.9683 71.0059 87.1066C71.1878 87.2449 71.4117 87.3167 71.6401 87.31H71.8801C72.1372 87.2462 72.3586 87.0829 72.4954 86.856C72.6323 86.6292 72.6736 86.3573 72.6101 86.1L70.1001 76.04ZM50.1001 33.9C50.1001 31.7501 50.7376 29.6485 51.932 27.861C53.1264 26.0734 54.8241 24.6801 56.8103 23.8574C58.7966 23.0347 60.9822 22.8194 63.0907 23.2389C65.1993 23.6583 67.1361 24.6935 68.6563 26.2137C70.1765 27.7339 71.2118 29.6708 71.6312 31.7794C72.0506 33.8879 71.8354 36.0736 71.0127 38.0598C70.1899 40.046 68.7967 41.7437 67.0092 42.9381C65.2216 44.1325 63.12 44.77 60.9701 44.77C59.5354 44.7805 58.1129 44.5072 56.7842 43.9658C55.4556 43.4244 54.2472 42.6256 53.2285 41.6153C52.2099 40.605 51.4011 39.4032 50.8488 38.0791C50.2964 36.755 50.0114 35.3347 50.0101 33.9H50.1001ZM56.8701 46.09C59.5282 46.9967 62.412 46.9967 65.0701 46.09V53.27C62.4307 52.2567 59.5095 52.2567 56.8701 53.27V46.09ZM51.3601 64.09C51.3186 62.8026 51.5362 61.5199 52.0002 60.3183C52.4642 59.1167 53.1651 58.0206 54.0611 57.0952C54.9571 56.1699 56.03 55.434 57.216 54.9315C58.4021 54.429 59.677 54.17 60.9651 54.17C62.2532 54.17 63.5281 54.429 64.7142 54.9315C65.9002 55.434 66.9731 56.1699 67.8691 57.0952C68.7651 58.0206 69.466 59.1167 69.93 60.3183C70.394 61.5199 70.6116 62.8026 70.5701 64.09V74.01H51.2701L51.3601 64.09Z" fill="#0D2B4D"/>
<path d="M178.88 9.40003H148.1C146.951 7.85237 145.469 6.58273 143.764 5.68497C142.058 4.7872 140.173 4.28429 138.246 4.21341C136.32 4.14253 134.403 4.5055 132.636 5.27548C130.869 6.04547 129.298 7.20276 128.039 8.66181C126.779 10.1209 125.864 11.8443 125.36 13.7048C124.857 15.5652 124.778 17.5151 125.129 19.4102C125.481 21.3052 126.254 23.0971 127.391 24.6531C128.528 26.2092 130.001 27.4897 131.7 28.4V36.81C130.021 37.8505 128.634 39.3019 127.672 41.0272C126.71 42.7524 126.203 44.6945 126.2 46.67V57.59C126.2 57.8552 126.305 58.1096 126.493 58.2971C126.68 58.4847 126.935 58.59 127.2 58.59H129.1L131.7 68.0001C131.758 68.2182 131.889 68.4101 132.071 68.5444C132.252 68.6788 132.474 68.7478 132.7 68.7401C132.789 68.7546 132.88 68.7546 132.97 68.7401C133.224 68.6678 133.439 68.4979 133.569 68.2674C133.698 68.0369 133.731 67.7646 133.66 67.51L131.21 58.63H144.65L142.2 67.51C142.165 67.6367 142.155 67.7691 142.172 67.8995C142.188 68.03 142.23 68.1559 142.295 68.2701C142.36 68.3844 142.447 68.4847 142.551 68.5653C142.654 68.6459 142.773 68.7053 142.9 68.7401C142.986 68.7539 143.074 68.7539 143.16 68.7401C143.386 68.7478 143.607 68.6788 143.789 68.5444C143.971 68.4101 144.101 68.2182 144.16 68.0001L146.76 58.59H148.44C148.705 58.59 148.959 58.4847 149.147 58.2971C149.335 58.1096 149.44 57.8552 149.44 57.59V46.72C149.437 44.7445 148.93 42.8024 147.968 41.0771C147.005 39.3519 145.619 37.9005 143.94 36.86V28.42C145.352 27.6553 146.613 26.6385 147.66 25.42H168.91C169.175 25.42 169.429 25.3147 169.617 25.1271C169.804 24.9396 169.91 24.6853 169.91 24.42C169.91 24.1548 169.804 23.9005 169.617 23.7129C169.429 23.5254 169.175 23.42 168.91 23.42H149.02C150.05 21.5982 150.617 19.5511 150.671 17.4587C150.726 15.3663 150.265 13.2927 149.33 11.42H178.88C179.145 11.42 179.399 11.3147 179.587 11.1271C179.775 10.9396 179.88 10.6853 179.88 10.42C179.88 10.1548 179.775 9.90046 179.587 9.71292C179.399 9.52539 179.145 9.42005 178.88 9.42005V9.40003ZM147.41 46.72V56.64H128.2V46.72C128.158 45.4326 128.376 44.15 128.84 42.9484C129.304 41.7467 130.005 40.6506 130.901 39.7253C131.797 38.7999 132.87 38.064 134.056 37.5615C135.242 37.059 136.517 36.8001 137.805 36.8001C139.093 36.8001 140.368 37.059 141.554 37.5615C142.74 38.064 143.813 38.7999 144.709 39.7253C145.605 40.6506 146.306 41.7467 146.77 42.9484C147.234 44.15 147.451 45.4326 147.41 46.72ZM141.91 35.87C139.267 34.8571 136.343 34.8571 133.7 35.87V29.31C136.361 30.2167 139.248 30.2167 141.91 29.31V35.87ZM137.8 27.99C135.65 27.99 133.548 27.3525 131.761 26.1581C129.973 24.9637 128.58 23.2661 127.757 21.2798C126.935 19.2936 126.719 17.108 127.139 14.9994C127.558 12.8908 128.593 10.954 130.114 9.43378C131.634 7.91358 133.571 6.87832 135.679 6.45889C137.788 6.03947 139.973 6.25473 141.96 7.07746C143.946 7.90018 145.644 9.29343 146.838 11.081C148.032 12.8686 148.67 14.9701 148.67 17.12C148.659 19.9969 147.51 22.7525 145.473 24.784C143.436 26.8155 140.677 27.9574 137.8 27.96V27.99Z" fill="#0D2B4D"/>
<path d="M137.81 13.51C137.1 13.51 136.405 13.7208 135.815 14.1157C135.224 14.5107 134.764 15.0719 134.493 15.7285C134.221 16.3851 134.151 17.1074 134.29 17.8041C134.429 18.5007 134.772 19.1404 135.275 19.6421C135.778 20.1437 136.419 20.4848 137.116 20.6222C137.813 20.7596 138.535 20.6871 139.191 20.4139C139.847 20.1406 140.407 19.6789 140.8 19.0872C141.193 18.4955 141.402 17.8005 141.4 17.09C141.4 16.619 141.307 16.1527 141.127 15.7177C140.946 15.2827 140.682 14.8876 140.348 14.555C140.015 14.2225 139.619 13.959 139.183 13.7796C138.748 13.6003 138.281 13.5087 137.81 13.51ZM137.81 18.68C137.496 18.68 137.188 18.5868 136.927 18.4121C136.665 18.2374 136.462 17.989 136.341 17.6985C136.221 17.4079 136.189 17.0883 136.251 16.7798C136.312 16.4714 136.464 16.1881 136.686 15.9657C136.908 15.7433 137.192 15.5919 137.5 15.5306C137.808 15.4692 138.128 15.5007 138.419 15.621C138.709 15.7414 138.958 15.9452 139.132 16.2066C139.307 16.4681 139.4 16.7755 139.4 17.09C139.406 17.3022 139.368 17.5132 139.291 17.7108C139.213 17.9083 139.097 18.0883 138.949 18.2402C138.801 18.3922 138.624 18.5129 138.428 18.5953C138.232 18.6777 138.022 18.7201 137.81 18.72V18.68Z" fill="#0D2B4D"/>
<path d="M162.29 160.6C159.602 160.6 156.975 159.803 154.74 158.31C152.505 156.816 150.763 154.694 149.735 152.211C148.706 149.727 148.437 146.995 148.961 144.359C149.486 141.722 150.78 139.301 152.681 137.4C154.581 135.5 157.003 134.205 159.639 133.681C162.275 133.157 165.008 133.426 167.491 134.454C169.974 135.483 172.097 137.225 173.59 139.46C175.083 141.695 175.88 144.322 175.88 147.01C175.875 150.613 174.441 154.066 171.894 156.614C169.346 159.161 165.893 160.595 162.29 160.6ZM162.29 135.42C159.998 135.42 157.757 136.1 155.851 137.373C153.945 138.647 152.46 140.457 151.582 142.575C150.705 144.692 150.476 147.023 150.923 149.271C151.37 151.519 152.474 153.584 154.095 155.205C155.716 156.826 157.781 157.93 160.029 158.377C162.277 158.824 164.608 158.595 166.725 157.718C168.843 156.84 170.653 155.355 171.927 153.449C173.2 151.543 173.88 149.302 173.88 147.01C173.878 143.937 172.656 140.99 170.483 138.817C168.31 136.644 165.363 135.423 162.29 135.42Z" fill="#0D2B4D"/>
<path d="M162.54 150.96C161.761 150.96 160.999 150.73 160.351 150.298C159.702 149.866 159.196 149.252 158.896 148.533C158.595 147.814 158.514 147.022 158.663 146.258C158.811 145.493 159.182 144.789 159.73 144.235C160.277 143.68 160.976 143.3 161.739 143.142C162.502 142.984 163.295 143.055 164.017 143.347C164.74 143.638 165.36 144.136 165.8 144.779C166.24 145.422 166.48 146.181 166.49 146.96C166.497 147.483 166.399 148.002 166.204 148.487C166.008 148.972 165.718 149.413 165.351 149.785C164.983 150.158 164.546 150.453 164.063 150.655C163.581 150.856 163.063 150.96 162.54 150.96ZM162.54 145.07C162.154 145.07 161.777 145.185 161.456 145.399C161.135 145.614 160.885 145.919 160.738 146.276C160.59 146.633 160.552 147.026 160.628 147.404C160.704 147.783 160.891 148.13 161.165 148.402C161.438 148.675 161.787 148.86 162.166 148.934C162.545 149.008 162.937 148.968 163.293 148.819C163.649 148.67 163.953 148.418 164.166 148.096C164.379 147.774 164.492 147.396 164.49 147.01C164.49 146.754 164.44 146.501 164.341 146.265C164.243 146.029 164.099 145.815 163.918 145.635C163.737 145.454 163.522 145.312 163.286 145.215C163.049 145.118 162.796 145.069 162.54 145.07Z" fill="#0D2B4D"/>
<path d="M126.1 160.6C123.412 160.6 120.784 159.803 118.55 158.31C116.315 156.816 114.573 154.694 113.544 152.211C112.516 149.727 112.247 146.995 112.771 144.359C113.295 141.722 114.59 139.301 116.49 137.4C118.391 135.5 120.812 134.205 123.448 133.681C126.085 133.157 128.817 133.426 131.3 134.454C133.784 135.483 135.906 137.225 137.399 139.46C138.893 141.695 139.69 144.322 139.69 147.01C139.687 150.613 138.254 154.069 135.706 156.617C133.158 159.165 129.703 160.597 126.1 160.6ZM126.1 135.42C123.807 135.42 121.567 136.1 119.661 137.373C117.755 138.647 116.269 140.457 115.392 142.575C114.515 144.692 114.285 147.023 114.732 149.271C115.18 151.519 116.283 153.584 117.904 155.205C119.525 156.826 121.59 157.93 123.839 158.377C126.087 158.824 128.417 158.595 130.535 157.718C132.653 156.84 134.463 155.355 135.736 153.449C137.01 151.543 137.69 149.302 137.69 147.01C137.687 143.937 136.465 140.99 134.292 138.817C132.119 136.644 129.173 135.423 126.1 135.42Z" fill="#0D2B4D"/>
<path d="M126.1 150.96C125.321 150.96 124.559 150.73 123.911 150.298C123.262 149.866 122.756 149.252 122.456 148.533C122.155 147.814 122.074 147.022 122.223 146.258C122.371 145.493 122.742 144.789 123.29 144.235C123.837 143.68 124.536 143.3 125.299 143.142C126.062 142.984 126.855 143.055 127.577 143.347C128.3 143.638 128.92 144.136 129.36 144.779C129.8 145.422 130.04 146.181 130.05 146.96C130.057 147.483 129.959 148.002 129.764 148.487C129.568 148.972 129.278 149.413 128.911 149.785C128.544 150.158 128.106 150.453 127.623 150.655C127.141 150.856 126.623 150.96 126.1 150.96ZM126.1 145.07C125.714 145.07 125.337 145.185 125.016 145.399C124.695 145.614 124.445 145.919 124.298 146.276C124.15 146.633 124.112 147.026 124.188 147.404C124.264 147.783 124.451 148.13 124.725 148.402C124.998 148.675 125.347 148.86 125.726 148.934C126.105 149.008 126.497 148.968 126.853 148.819C127.209 148.67 127.513 148.418 127.726 148.096C127.939 147.774 128.052 147.396 128.05 147.01C128.05 146.754 128 146.501 127.901 146.265C127.803 146.029 127.66 145.815 127.478 145.635C127.297 145.454 127.082 145.312 126.846 145.215C126.609 145.118 126.356 145.069 126.1 145.07Z" fill="#0D2B4D"/>
<path d="M89.8798 160.6C87.1915 160.602 84.5631 159.807 82.3269 158.314C80.0907 156.822 78.3473 154.701 77.3171 152.218C76.287 149.734 76.0165 147.002 76.5397 144.365C77.0629 141.728 78.3565 139.305 80.2567 137.404C82.1569 135.502 84.5784 134.207 87.2148 133.682C89.8513 133.157 92.5843 133.425 95.0681 134.453C97.552 135.482 99.675 137.224 101.169 139.459C102.662 141.694 103.46 144.322 103.46 147.01C103.457 150.612 102.026 154.065 99.48 156.613C96.9341 159.161 93.4815 160.595 89.8798 160.6ZM89.8798 135.43C87.5867 135.428 85.3445 136.106 83.437 137.379C81.5295 138.652 80.0424 140.462 79.1639 142.58C78.2855 144.698 78.0551 147.029 78.502 149.279C78.9489 151.528 80.0529 153.594 81.6744 155.215C83.2959 156.837 85.362 157.941 87.6111 158.388C89.8603 158.835 92.1915 158.604 94.3097 157.726C96.4279 156.847 98.2379 155.36 99.5107 153.453C100.783 151.545 101.462 149.303 101.46 147.01C101.454 143.94 100.233 140.998 98.0623 138.827C95.8917 136.657 92.9494 135.435 89.8798 135.43Z" fill="#0D2B4D"/>
<path d="M89.8799 150.96C89.0978 150.962 88.3328 150.732 87.6817 150.299C87.0306 149.865 86.5227 149.248 86.2225 148.526C85.9223 147.804 85.8432 147.009 85.9953 146.242C86.1474 145.475 86.5238 144.77 87.0768 144.217C87.6299 143.664 88.3346 143.288 89.1018 143.135C89.8689 142.983 90.664 143.062 91.3861 143.363C92.1083 143.663 92.7251 144.171 93.1584 144.822C93.5917 145.473 93.8219 146.238 93.8199 147.02C93.8173 148.064 93.4013 149.065 92.663 149.803C91.9247 150.541 90.9241 150.957 89.8799 150.96ZM89.8799 145.07C89.4938 145.068 89.1158 145.181 88.7939 145.394C88.4719 145.607 88.2204 145.911 88.0712 146.267C87.9221 146.623 87.8821 147.015 87.9562 147.394C88.0303 147.773 88.2152 148.122 88.4875 148.395C88.7598 148.669 89.1073 148.856 89.4858 148.932C89.8643 149.008 90.2569 148.97 90.6138 148.823C90.9707 148.675 91.2759 148.425 91.4906 148.104C91.7053 147.784 91.8199 147.406 91.8199 147.02C91.8199 146.505 91.6159 146.01 91.2523 145.645C90.8888 145.279 90.3954 145.073 89.8799 145.07Z" fill="#0D2B4D"/>
<path d="M53.6701 160.6C50.9823 160.6 48.3548 159.803 46.1199 158.31C43.885 156.816 42.1432 154.694 41.1146 152.211C40.086 149.727 39.8168 146.995 40.3412 144.359C40.8656 141.722 42.1599 139.301 44.0605 137.4C45.9611 135.5 48.3826 134.205 51.0188 133.681C53.655 133.157 56.3875 133.426 58.8708 134.454C61.354 135.483 63.4765 137.225 64.9698 139.46C66.463 141.695 67.2601 144.322 67.2601 147.01C67.2548 150.613 65.8213 154.066 63.2738 156.614C60.7264 159.161 57.2728 160.595 53.6701 160.6ZM53.6701 135.42C51.3778 135.42 49.137 136.1 47.231 137.373C45.3251 138.647 43.8396 140.457 42.9623 142.575C42.0851 144.692 41.8556 147.023 42.3028 149.271C42.75 151.519 43.8538 153.584 45.4747 155.205C47.0956 156.826 49.1608 157.93 51.409 158.377C53.6572 158.824 55.9876 158.595 58.1054 157.718C60.2232 156.84 62.0333 155.355 63.3068 153.449C64.5803 151.543 65.2601 149.302 65.2601 147.01C65.2575 143.937 64.0355 140.99 61.8625 138.817C59.6896 136.644 56.7431 135.423 53.6701 135.42Z" fill="#0D2B4D"/>
<path d="M53.6699 150.96C52.8908 150.96 52.1292 150.73 51.4807 150.298C50.8323 149.866 50.326 149.252 50.0256 148.533C49.7252 147.814 49.6441 147.022 49.7925 146.258C49.9409 145.493 50.3122 144.789 50.8596 144.235C51.4071 143.68 52.1062 143.3 52.8691 143.142C53.632 142.984 54.4246 143.055 55.1472 143.347C55.8698 143.638 56.4901 144.136 56.9301 144.779C57.37 145.422 57.61 146.181 57.6199 146.96C57.6265 147.483 57.5292 148.002 57.3337 148.487C57.1382 148.972 56.8483 149.413 56.4808 149.785C56.1133 150.158 55.6757 150.453 55.1931 150.655C54.7106 150.856 54.1929 150.96 53.6699 150.96ZM53.6699 145.07C53.2838 145.07 52.9064 145.185 52.5855 145.399C52.2646 145.614 52.0147 145.919 51.8674 146.276C51.7201 146.633 51.6821 147.026 51.7581 147.404C51.8342 147.783 52.0209 148.13 52.2946 148.402C52.5683 148.675 52.9167 148.86 53.2957 148.934C53.6746 149.008 54.067 148.968 54.4231 148.819C54.7792 148.67 55.0831 148.418 55.2961 148.096C55.5092 147.774 55.6219 147.396 55.6199 147.01C55.6199 146.754 55.5694 146.501 55.4713 146.265C55.3732 146.029 55.2294 145.815 55.0482 145.635C54.8669 145.454 54.6519 145.312 54.4154 145.215C54.1789 145.118 53.9255 145.069 53.6699 145.07Z" fill="#0D2B4D"/>
<path d="M17.4699 160.6C14.7838 160.592 12.1602 159.788 9.93064 158.29C7.70104 156.792 5.96543 154.667 4.94297 152.183C3.9205 149.699 3.65707 146.968 4.18595 144.334C4.71483 141.701 6.01229 139.283 7.91446 137.386C9.81664 135.49 12.2382 134.199 14.8733 133.678C17.5084 133.157 20.2389 133.428 22.7198 134.458C25.2007 135.488 27.3208 137.23 28.8124 139.464C30.3039 141.698 31.0999 144.324 31.0999 147.01C31.0986 148.798 30.7449 150.567 30.0589 152.218C29.373 153.869 28.3683 155.369 27.1024 156.631C25.8365 157.893 24.3342 158.893 22.6813 159.574C21.0285 160.255 19.2576 160.604 17.4699 160.6ZM17.4699 135.43C15.1789 135.438 12.9417 136.125 11.0407 137.403C9.13983 138.682 7.66056 140.495 6.78977 142.615C5.91898 144.734 5.69574 147.063 6.14826 149.309C6.60078 151.555 7.70875 153.616 9.33222 155.233C10.9557 156.849 13.0218 157.948 15.2696 158.391C17.5174 158.834 19.8461 158.601 21.9613 157.721C24.0766 156.841 25.8837 155.354 27.1542 153.447C28.4248 151.541 29.1019 149.301 29.0999 147.01C29.0973 145.486 28.7943 143.977 28.2083 142.57C27.6223 141.163 26.7648 139.885 25.6847 138.81C24.6046 137.734 23.3232 136.882 21.9136 136.302C20.5041 135.722 18.9941 135.426 17.4699 135.43Z" fill="#0D2B4D"/>
<path d="M17.4702 150.96C16.6766 150.972 15.8974 150.747 15.2318 150.315C14.5661 149.883 14.0441 149.263 13.7322 148.533C13.4202 147.803 13.3323 146.997 13.4798 146.217C13.6273 145.437 14.0035 144.719 14.5604 144.153C15.1174 143.588 15.8299 143.201 16.6075 143.042C17.385 142.883 18.1923 142.958 18.9267 143.259C19.6611 143.56 20.2894 144.073 20.7317 144.732C21.1739 145.391 21.4101 146.166 21.4102 146.96C21.4103 148.011 20.9971 149.019 20.2599 149.767C19.5227 150.516 18.5206 150.944 17.4702 150.96ZM17.4702 145.06C17.0702 145.048 16.6758 145.156 16.338 145.371C16.0003 145.586 15.7347 145.897 15.5756 146.264C15.4165 146.631 15.3712 147.038 15.4456 147.431C15.52 147.824 15.7107 148.186 15.9929 148.47C16.2752 148.753 16.636 148.946 17.0288 149.022C17.4217 149.099 17.8284 149.056 18.1964 148.898C18.5644 148.741 18.8768 148.477 19.0932 148.141C19.3096 147.804 19.42 147.41 19.4102 147.01C19.3976 146.498 19.1895 146.011 18.8286 145.649C18.4678 145.286 17.9816 145.075 17.4702 145.06Z" fill="#0D2B4D"/>
<path d="M162 165.01H18C13.2261 165.01 8.64775 163.114 5.27209 159.738C1.89644 156.362 0 151.784 0 147.01C0 142.236 1.89644 137.658 5.27209 134.282C8.64775 130.906 13.2261 129.01 18 129.01H162C166.774 129.01 171.352 130.906 174.728 134.282C178.104 137.658 180 142.236 180 147.01C180 151.784 178.104 156.362 174.728 159.738C171.352 163.114 166.774 165.01 162 165.01ZM18 131.01C13.7565 131.01 9.68689 132.696 6.68631 135.696C3.68573 138.697 2 142.767 2 147.01C2 151.253 3.68573 155.323 6.68631 158.324C9.68689 161.324 13.7565 163.01 18 163.01H162C166.243 163.01 170.313 161.324 173.314 158.324C176.314 155.323 178 151.253 178 147.01C178 142.767 176.314 138.697 173.314 135.696C170.313 132.696 166.243 131.01 162 131.01H18Z" fill="#0D2B4D"/>
<path d="M146.7 126.21H129.7C128.699 126.273 127.696 126.119 126.759 125.76C125.822 125.402 124.973 124.846 124.27 124.13C123.007 122.59 122.377 120.627 122.51 118.64V89.28C122.511 89.0321 122.603 88.7934 122.77 88.61L127.12 83.85V81.47H126.7C126.435 81.47 126.181 81.3646 125.993 81.1771C125.806 80.9895 125.7 80.7352 125.7 80.47V75.21C125.7 74.9447 125.806 74.6904 125.993 74.5029C126.181 74.3153 126.435 74.21 126.7 74.21H149.7C149.965 74.21 150.22 74.3153 150.407 74.5029C150.595 74.6904 150.7 74.9447 150.7 75.21V80.47C150.7 80.7352 150.595 80.9895 150.407 81.1771C150.22 81.3646 149.965 81.47 149.7 81.47H149.28V83.85L153.63 88.61C153.797 88.7934 153.89 89.0321 153.89 89.28V118.72C154.014 120.691 153.385 122.635 152.13 124.16C151.424 124.87 150.574 125.421 149.638 125.774C148.701 126.128 147.699 126.276 146.7 126.21ZM124.55 89.72V118.72C124.458 120.18 124.902 121.624 125.8 122.78C126.322 123.281 126.943 123.666 127.624 123.911C128.304 124.155 129.029 124.254 129.75 124.2H146.75C147.471 124.254 148.196 124.155 148.876 123.911C149.557 123.666 150.178 123.281 150.7 122.78C151.6 121.648 152.049 120.223 151.96 118.78C151.954 118.754 151.954 118.726 151.96 118.7V89.72C147.58 84.93 147.57 84.91 147.5 84.8C147.41 84.6486 147.362 84.4761 147.36 84.3C147.36 83.36 147.36 80.52 147.36 80.52C147.36 80.2547 147.466 80.0004 147.653 79.8129C147.841 79.6253 148.095 79.52 148.36 79.52H148.77V76.2599H127.77V79.52H128.18C128.445 79.52 128.7 79.6253 128.887 79.8129C129.075 80.0004 129.18 80.2547 129.18 80.52C129.18 80.52 129.18 83.36 129.18 84.3C129.178 84.4761 129.13 84.6486 129.04 84.8C128.94 84.86 128.93 84.88 124.55 89.72Z" fill="#52AEFB"/>
<path d="M99.3201 105.78L98.1601 102.99L99.3201 100.2C99.3745 100.079 99.4026 99.9477 99.4026 99.8149C99.4026 99.6822 99.3745 99.5511 99.3201 99.43L98.1601 96.64L99.3201 93.85C99.3849 93.6841 99.4042 93.504 99.376 93.3282C99.3479 93.1525 99.2734 92.9873 99.1601 92.85C99.0406 92.7074 98.8837 92.601 98.7071 92.5427C98.5304 92.4844 98.341 92.4765 98.1601 92.52L91.8901 94C90.4301 93.77 81.3801 92.49 60.8901 92.49C40.4001 92.49 31.3301 93.77 29.8901 94L23.6101 92.52C23.4292 92.4765 23.2398 92.4844 23.0631 92.5427C22.8865 92.601 22.7296 92.7074 22.6101 92.85C22.4968 92.9873 22.4223 93.1525 22.3941 93.3282C22.366 93.504 22.3853 93.6841 22.4501 93.85L23.6201 96.64L22.4501 99.43C22.3992 99.552 22.373 99.6828 22.373 99.8149C22.373 99.9471 22.3992 100.078 22.4501 100.2L23.6201 102.99L22.4501 105.78C22.3992 105.902 22.373 106.033 22.373 106.165C22.373 106.297 22.3992 106.428 22.4501 106.55L23.6201 109.34L22.4501 112.13C22.3992 112.252 22.373 112.383 22.373 112.515C22.373 112.647 22.3992 112.778 22.4501 112.9L23.6001 115.72L22.4301 118.51C22.3792 118.632 22.353 118.763 22.353 118.895C22.353 119.027 22.3792 119.158 22.4301 119.28L23.6001 122.07L22.4301 124.86C22.3653 125.026 22.346 125.206 22.3741 125.382C22.4023 125.558 22.4768 125.723 22.5901 125.86C22.6851 125.971 22.8032 126.06 22.9363 126.12C23.0693 126.181 23.214 126.211 23.3601 126.21H23.5801L29.8601 124.73C31.3101 124.96 40.3601 126.23 60.8601 126.23C81.3601 126.23 90.4201 124.96 91.8601 124.73L98.1301 126.21H98.3601C98.5239 126.209 98.685 126.168 98.8292 126.09C98.9734 126.013 99.0963 125.901 99.1872 125.765C99.278 125.628 99.334 125.472 99.3502 125.309C99.3664 125.146 99.3423 124.981 99.2801 124.83L98.1201 122.04L99.2801 119.25C99.3344 119.129 99.3625 118.998 99.3625 118.865C99.3625 118.732 99.3344 118.601 99.2801 118.48L98.1601 115.72L99.3201 112.93C99.3745 112.809 99.4026 112.678 99.4026 112.545C99.4026 112.412 99.3745 112.281 99.3201 112.16L98.1601 109.37L99.3201 106.58C99.3789 106.455 99.4095 106.318 99.4095 106.18C99.4095 106.042 99.3789 105.905 99.3201 105.78ZM25.6001 121.65L24.4401 118.86L25.6001 116.07C25.6545 115.949 25.6826 115.818 25.6826 115.685C25.6826 115.552 25.6545 115.421 25.6001 115.3L24.4401 112.51L25.6001 109.72C25.6545 109.599 25.6826 109.468 25.6826 109.335C25.6826 109.202 25.6545 109.071 25.6001 108.95L24.4401 106.16L25.6001 103.37C25.6545 103.249 25.6826 103.118 25.6826 102.985C25.6826 102.852 25.6545 102.721 25.6001 102.6L24.4401 99.81L25.6001 97.02C25.6545 96.8989 25.6826 96.7677 25.6826 96.6349C25.6826 96.5022 25.6545 96.3711 25.6001 96.25L25.0301 94.89L28.8201 95.78V122.9L25.0301 123.79L25.6001 122.42C25.6545 122.299 25.6826 122.168 25.6826 122.035C25.6826 121.902 25.6545 121.771 25.6001 121.65ZM30.8201 122.83V95.83C33.4901 95.47 42.7501 94.4399 60.8801 94.4399C79.0101 94.4399 88.2701 95.44 90.9401 95.83V122.83C88.2701 123.18 79.0401 124.21 60.8801 124.21C42.7201 124.21 33.4901 123.18 30.8201 122.83ZM96.1501 103.37L97.3201 106.16L96.1501 108.95C96.0992 109.072 96.073 109.203 96.073 109.335C96.073 109.467 96.0992 109.598 96.1501 109.72L97.3201 112.51L96.1501 115.3C96.0992 115.422 96.073 115.553 96.073 115.685C96.073 115.817 96.0992 115.948 96.1501 116.07L97.3201 118.86L96.1501 121.65C96.0992 121.772 96.073 121.903 96.073 122.035C96.073 122.167 96.0992 122.298 96.1501 122.42L96.7201 123.79L92.9401 122.9V95.78L96.7201 94.89L96.1501 96.25C96.0992 96.372 96.073 96.5028 96.073 96.6349C96.073 96.7671 96.0992 96.898 96.1501 97.02L97.3201 99.81L96.1501 102.6C96.0992 102.722 96.073 102.853 96.073 102.985C96.073 103.117 96.0992 103.248 96.1501 103.37Z" fill="#52AEFB"/>
<path d="M59.4702 115.21C59.3124 115.21 59.1568 115.174 59.016 115.102C58.8752 115.031 58.7533 114.927 58.6602 114.8L54.9302 109.72C54.7878 109.505 54.7341 109.243 54.7804 108.989C54.8267 108.735 54.9694 108.509 55.1787 108.358C55.3879 108.206 55.6475 108.142 55.9032 108.178C56.1588 108.214 56.3907 108.347 56.5502 108.55L59.4202 112.49L65.4202 103.17C65.4918 103.06 65.5844 102.965 65.6927 102.89C65.801 102.816 65.923 102.763 66.0516 102.736C66.1802 102.708 66.313 102.707 66.4423 102.73C66.5716 102.754 66.6949 102.804 66.8052 102.875C66.9155 102.947 67.0106 103.039 67.0852 103.148C67.1597 103.256 67.2122 103.378 67.2396 103.506C67.2669 103.635 67.2687 103.768 67.2448 103.897C67.2209 104.026 67.1718 104.15 67.1002 104.26L60.3102 114.72C60.2217 114.858 60.1006 114.972 59.9576 115.052C59.8146 115.133 59.6541 115.176 59.4902 115.18L59.4702 115.21Z" fill="#52AEFB"/>
<path d="M137.87 108.94C137.712 108.94 137.557 108.903 137.416 108.832C137.275 108.761 137.153 108.657 137.06 108.53L133.34 103.4C133.184 103.185 133.119 102.917 133.16 102.654C133.201 102.392 133.345 102.156 133.56 102C133.775 101.844 134.043 101.779 134.306 101.82C134.568 101.861 134.804 102.005 134.96 102.22L137.82 106.22L143.82 96.9C143.963 96.6775 144.189 96.521 144.448 96.4647C144.707 96.4085 144.977 96.4571 145.2 96.6C145.311 96.6702 145.407 96.7616 145.483 96.869C145.558 96.9764 145.612 97.0976 145.641 97.2258C145.67 97.3539 145.673 97.4865 145.651 97.6159C145.628 97.7453 145.58 97.869 145.51 97.98L138.73 108.53C138.642 108.667 138.523 108.78 138.382 108.86C138.241 108.94 138.082 108.985 137.92 108.99L137.87 108.94Z" fill="#52AEFB"/>
</svg>
