<svg width="180" height="166" viewBox="0 0 180 166" fill="none" xmlns="http://www.w3.org/2000/svg">
<path d="M63.2175 15.2923C60.4231 15.2958 57.6991 16.169 55.4233 17.7907C53.1476 19.4123 51.433 21.7021 50.5174 24.3423L39.7574 21.4923C40.4641 18.09 40.1631 14.5555 38.891 11.3219C37.6189 8.0882 35.4311 5.29584 32.5958 3.28698C29.7604 1.27812 26.4007 0.140015 22.9282 0.0121074C19.4556 -0.1158 16.0212 0.772032 13.0458 2.56686C10.0703 4.36168 7.68303 6.98553 6.17651 10.1168C4.66998 13.2482 4.10965 16.7509 4.56414 20.1959C5.01863 23.641 6.46824 26.8786 8.73528 29.5121C11.0023 32.1456 13.9883 34.0605 17.3274 35.0223L15.2175 44.2623C11.8034 43.7739 8.33286 44.6279 5.53515 46.6446C2.73743 48.6614 0.830278 51.684 0.214347 55.0774C-0.401584 58.4707 0.321684 61.9708 2.23217 64.8421C4.14266 67.7135 7.09166 69.7326 10.4596 70.4752C13.8275 71.2179 17.3522 70.6263 20.2931 68.8248C23.234 67.0233 25.3622 64.152 26.2306 60.8143C27.099 57.4766 26.6399 53.9322 24.9498 50.9258C23.2598 47.9194 20.4703 45.6851 17.1675 44.6923L19.2775 35.4623C20.2678 35.6388 21.2715 35.7291 22.2775 35.7323C26.0477 35.7374 29.7228 34.5492 32.7765 32.338C35.8302 30.1268 38.1059 27.0058 39.2775 23.4223L50.0275 26.2823C49.5237 29.0014 49.8704 31.8097 51.0202 34.3247C52.17 36.8397 54.0671 38.9391 56.4531 40.3371C58.8391 41.7351 61.598 42.3636 64.3541 42.1371C67.1102 41.9106 69.7295 40.84 71.8552 39.0713C73.981 37.3025 75.5098 34.9215 76.2336 32.2525C76.9573 29.5835 76.8409 26.7563 75.9 24.1559C74.959 21.5555 73.2395 19.3084 70.9754 17.7205C68.7113 16.1326 66.0128 15.2813 63.2474 15.2823L63.2175 15.2923ZM24.6575 57.5523C24.6594 59.8197 23.9888 62.0368 22.7303 63.9229C21.4718 65.809 19.6821 67.2794 17.5876 68.148C15.4932 69.0167 13.1881 69.2444 10.9642 68.8026C8.74021 68.3607 6.69736 67.269 5.09405 65.6657C3.49073 64.0624 2.39901 62.0195 1.95714 59.7956C1.51528 57.5716 1.74307 55.2666 2.61169 53.1721C3.48031 51.0777 4.95073 49.288 6.83684 48.0295C8.72296 46.771 10.94 46.1003 13.2074 46.1023C16.2426 46.1075 19.1518 47.3156 21.298 49.4618C23.4441 51.6079 24.6522 54.5172 24.6575 57.5523ZM22.2674 33.7423C19.1326 33.7423 16.0682 32.8127 13.4617 31.0711C10.8551 29.3294 8.8236 26.854 7.62395 23.9578C6.4243 21.0616 6.11046 17.8747 6.72204 14.8001C7.33361 11.7255 8.84314 8.90129 11.0598 6.68462C13.2765 4.46796 16.1007 2.9584 19.1753 2.34682C22.2499 1.73525 25.4368 2.04912 28.333 3.24877C31.2292 4.44842 33.7047 6.47996 35.4463 9.08648C37.1879 11.693 38.1175 14.7574 38.1175 17.8923C38.1122 22.0943 36.4405 26.1228 33.4692 29.0941C30.4979 32.0654 26.4695 33.737 22.2674 33.7423ZM63.2674 40.2123C60.9988 40.2242 58.7777 39.5624 56.8854 38.3108C54.9932 37.0593 53.515 35.2742 52.6381 33.1818C51.7612 31.0895 51.5251 28.7839 51.9596 26.5572C52.3942 24.3305 53.48 22.2829 55.0793 20.6738C56.6786 19.0647 58.7194 17.9665 60.9434 17.5183C63.1674 17.0701 65.4744 17.2921 67.5721 18.1561C69.6698 19.0202 71.4639 20.4874 72.727 22.372C73.9901 24.2565 74.6655 26.4736 74.6675 28.7423C74.6648 31.7791 73.4579 34.6909 71.3115 36.8393C69.1651 38.9876 66.2543 40.197 63.2175 40.2023L63.2674 40.2123Z" fill="#52AEFB"/>
<path d="M97.1372 165.032H46.7172C46.5221 165.034 46.3308 164.978 46.167 164.872C46.0032 164.766 45.874 164.614 45.7953 164.435C45.7166 164.257 45.6919 164.059 45.7242 163.867C45.7566 163.674 45.8445 163.495 45.9772 163.352C49.6747 159.373 54.2347 156.294 59.3073 154.352C53.1659 151.862 47.8774 147.646 44.0814 142.213C40.2854 136.781 38.1444 130.365 37.9172 123.742H36.1472C34.8271 123.684 33.5805 123.118 32.667 122.164C31.7535 121.209 31.2437 119.939 31.2437 118.617C31.2437 117.296 31.7535 116.025 32.667 115.071C33.5805 114.116 34.8271 113.551 36.1472 113.492H107.697C108.389 113.462 109.08 113.572 109.729 113.815C110.377 114.059 110.97 114.432 111.47 114.911C111.971 115.389 112.369 115.965 112.641 116.602C112.913 117.239 113.054 117.924 113.054 118.617C113.054 119.31 112.913 119.996 112.641 120.633C112.369 121.27 111.971 121.845 111.47 122.324C110.97 122.803 110.377 123.175 109.729 123.419C109.08 123.663 108.389 123.773 107.697 123.742H105.937C105.708 130.364 103.566 136.777 99.7703 142.207C95.9744 147.638 90.6871 151.852 84.5472 154.342C89.618 156.282 94.1752 159.362 97.8672 163.342C97.9994 163.485 98.0871 163.663 98.1198 163.854C98.1524 164.046 98.1286 164.243 98.0511 164.421C97.9737 164.599 97.8461 164.751 97.6838 164.858C97.5215 164.964 97.3315 165.022 97.1372 165.022V165.032ZM49.1372 163.032H94.7272C90.8814 159.432 86.2382 156.794 81.1772 155.332C80.9734 155.269 80.7952 155.142 80.6686 154.97C80.5421 154.798 80.4738 154.591 80.4738 154.377C80.4738 154.164 80.5421 153.956 80.6686 153.784C80.7952 153.612 80.9734 153.485 81.1772 153.422C87.7473 151.403 93.5001 147.338 97.5964 141.818C101.693 136.299 103.918 129.615 103.947 122.742C103.947 122.477 104.053 122.223 104.24 122.035C104.428 121.848 104.682 121.742 104.947 121.742H107.697C108.122 121.766 108.548 121.703 108.948 121.557C109.348 121.411 109.714 121.185 110.024 120.892C110.333 120.6 110.58 120.247 110.749 119.856C110.917 119.465 111.004 119.043 111.004 118.617C111.004 118.191 110.917 117.77 110.749 117.379C110.58 116.988 110.333 116.635 110.024 116.342C109.714 116.05 109.348 115.823 108.948 115.677C108.548 115.531 108.122 115.468 107.697 115.492H36.1472C35.349 115.537 34.5983 115.886 34.0491 116.467C33.5 117.049 33.1941 117.818 33.1941 118.617C33.1941 119.417 33.5 120.186 34.0491 120.767C34.5983 121.348 35.349 121.697 36.1472 121.742H38.9072C39.1724 121.742 39.4268 121.848 39.6143 122.035C39.8019 122.223 39.9072 122.477 39.9072 122.742C39.9378 129.615 42.1648 136.299 46.2631 141.816C50.3613 147.334 56.1161 151.397 62.6872 153.412C62.891 153.475 63.0692 153.602 63.1958 153.774C63.3224 153.946 63.3906 154.154 63.3906 154.367C63.3906 154.581 63.3224 154.788 63.1958 154.96C63.0692 155.132 62.891 155.259 62.6872 155.322C57.6201 156.788 52.9707 159.43 49.1172 163.032H49.1372ZM82.0272 145.662C87.536 142.831 92.0219 138.349 94.8572 132.842C94.9779 132.605 94.9993 132.329 94.9168 132.076C94.8343 131.823 94.6546 131.613 94.4172 131.492C94.1799 131.372 93.9043 131.35 93.6511 131.433C93.3979 131.515 93.1879 131.695 93.0672 131.932C90.4302 137.063 86.2556 141.241 81.1272 143.882C80.9279 143.984 80.7686 144.15 80.6749 144.354C80.5812 144.557 80.5585 144.786 80.6104 145.004C80.6622 145.222 80.7857 145.416 80.961 145.555C81.1363 145.694 81.3533 145.771 81.5772 145.772C81.7338 145.771 81.8879 145.734 82.0272 145.662ZM50.5172 109.812C50.6246 109.736 50.7157 109.639 50.7855 109.527C50.8552 109.415 50.9021 109.29 50.9235 109.16C50.9449 109.03 50.9403 108.897 50.91 108.769C50.8798 108.64 50.8244 108.519 50.7472 108.412C37.4772 89.9422 37.8672 88.1422 39.5972 86.7422C41.4872 85.1922 44.1673 87.8822 64.3073 109.672C64.3965 109.769 64.504 109.847 64.6234 109.902C64.7429 109.957 64.872 109.988 65.0034 109.993C65.1348 109.998 65.2658 109.977 65.3892 109.931C65.5125 109.886 65.6257 109.816 65.7222 109.727C65.8188 109.638 65.8967 109.53 65.9517 109.411C66.0067 109.292 66.0377 109.162 66.0428 109.031C66.0479 108.9 66.0271 108.769 65.9815 108.645C65.9359 108.522 65.8665 108.409 65.7772 108.312C43.6072 84.3122 41.7772 82.3122 38.3272 85.1822C35.1272 87.8022 35.2572 90.2622 49.0972 109.582C49.1903 109.71 49.3122 109.813 49.453 109.884C49.5938 109.956 49.7494 109.993 49.9072 109.992C50.1179 109.996 50.3244 109.933 50.4972 109.812H50.5172Z" fill="#0D2B4D"/>
<path d="M177.297 9.30219C175.169 6.16917 171.885 4.00842 168.165 3.29413C164.446 2.57984 160.595 3.37036 157.457 5.49219L124.457 27.8422L105.457 40.6922L103.037 37.1222C102.889 36.9021 102.659 36.75 102.398 36.6993C102.138 36.6487 101.867 36.7037 101.647 36.8522C101.427 37.0007 101.275 37.2306 101.224 37.4913C101.174 37.752 101.229 38.0221 101.377 38.2422L122.237 69.0222C122.329 69.1579 122.453 69.269 122.597 69.3457C122.742 69.4224 122.903 69.4624 123.067 69.4622C123.267 69.4626 123.462 69.4034 123.627 69.2922C123.736 69.2188 123.83 69.1245 123.903 69.0149C123.975 68.9053 124.026 68.7823 124.051 68.6532C124.076 68.5241 124.075 68.3913 124.049 68.2624C124.022 68.1335 123.971 68.0111 123.897 67.9022L121.477 64.3322L173.477 29.1322C176.607 27.0039 178.766 23.7224 179.482 20.006C180.198 16.2895 179.412 12.4408 177.297 9.30219ZM172.357 27.4822L120.417 62.6822L106.637 42.3422L115.977 36.0122L121.377 44.0122C121.468 44.1465 121.59 44.2567 121.733 44.3334C121.876 44.41 122.035 44.4508 122.197 44.4522C122.399 44.45 122.597 44.3911 122.767 44.2822C122.986 44.1323 123.136 43.9017 123.185 43.641C123.234 43.3804 123.177 43.111 123.027 42.8922L117.627 34.8922L124.767 30.0522L127.187 33.6222C127.279 33.7579 127.403 33.869 127.547 33.9457C127.692 34.0224 127.853 34.0624 128.017 34.0622C128.217 34.0626 128.412 34.0034 128.577 33.8922C128.686 33.8188 128.78 33.7245 128.853 33.6149C128.925 33.5052 128.976 33.3823 129.001 33.2532C129.026 33.1241 129.025 32.9913 128.999 32.8624C128.972 32.7336 128.921 32.6111 128.847 32.5022L126.427 28.9322L133.567 24.0922L138.967 32.0922C139.059 32.2279 139.183 32.339 139.327 32.4157C139.472 32.4924 139.634 32.5324 139.797 32.5322C139.996 32.5287 140.19 32.4698 140.357 32.3622C140.576 32.2123 140.726 31.9817 140.775 31.721C140.824 31.4604 140.767 31.191 140.617 30.9722L135.217 22.9722L142.357 18.1322L144.777 21.7022C144.869 21.8379 144.993 21.949 145.137 22.0257C145.282 22.1025 145.444 22.1424 145.607 22.1422C145.807 22.1426 146.002 22.0834 146.167 21.9722C146.276 21.8988 146.37 21.8045 146.443 21.6949C146.515 21.5852 146.566 21.4623 146.591 21.3332C146.616 21.2041 146.615 21.0713 146.589 20.9424C146.562 20.8135 146.511 20.6911 146.437 20.5822L144.017 17.0122L158.577 7.14219C161.275 5.31484 164.587 4.63382 167.787 5.24894C170.986 5.86406 173.81 7.72493 175.637 10.4222C177.465 13.1194 178.146 16.4321 177.531 19.6315C176.915 22.8309 175.054 25.6548 172.357 27.4822Z" fill="#0D2B4D"/>
<path d="M171.507 12.0122C171.398 12.0856 171.305 12.1798 171.232 12.2895C171.159 12.3991 171.109 12.5221 171.084 12.6512C171.059 12.7803 171.059 12.9131 171.086 13.042C171.112 13.1708 171.163 13.2932 171.237 13.4022C172.266 14.9349 172.648 16.8121 172.3 18.6251C171.952 20.4381 170.901 22.04 169.377 23.0822C169.267 23.1556 169.173 23.2502 169.099 23.3604C169.026 23.4706 168.975 23.5943 168.95 23.7242C168.925 23.8542 168.926 23.9878 168.953 24.1174C168.98 24.247 169.032 24.37 169.107 24.4792C169.182 24.5884 169.278 24.6816 169.389 24.7535C169.5 24.8255 169.624 24.8746 169.754 24.8982C169.885 24.9217 170.018 24.9191 170.147 24.8907C170.277 24.8622 170.399 24.8083 170.507 24.7322C172.467 23.392 173.819 21.3314 174.266 18.9994C174.714 16.6674 174.222 14.253 172.897 12.2822C172.824 12.1731 172.73 12.0795 172.62 12.0068C172.51 11.9342 172.387 11.8839 172.258 11.8588C172.129 11.8337 171.996 11.8344 171.867 11.8607C171.739 11.887 171.616 11.9385 171.507 12.0122Z" fill="#0D2B4D"/>
<path d="M108.917 60.8122C108.619 59.8989 108.075 59.0856 107.344 58.4619C106.613 57.8382 105.724 57.4282 104.775 57.2772C103.827 57.1262 102.855 57.24 101.966 57.606C101.078 57.9721 100.308 58.5762 99.741 59.3518C99.174 60.1275 98.8321 61.0445 98.7528 62.002C98.6736 62.9595 98.8603 63.9203 99.2921 64.7785C99.7239 65.6368 100.384 66.3592 101.2 66.8662C102.016 67.3733 102.957 67.6452 103.917 67.6522C104.467 67.6532 105.014 67.5689 105.537 67.4022C106.859 66.9758 107.957 66.0423 108.591 64.8067C109.225 63.571 109.342 62.1343 108.917 60.8122ZM104.917 65.4922C104.103 65.7571 103.217 65.6879 102.454 65.2997C101.691 64.9116 101.113 64.2362 100.847 63.4222C100.587 62.6079 100.659 61.7237 101.047 60.9622C101.238 60.5833 101.502 60.2465 101.825 59.9717C102.148 59.6969 102.523 59.4896 102.927 59.3622C103.25 59.2541 103.587 59.2 103.927 59.2022C104.608 59.2015 105.271 59.4172 105.821 59.818C106.371 60.2189 106.78 60.7841 106.987 61.4322C107.251 62.2412 107.184 63.1214 106.802 63.8816C106.42 64.6417 105.753 65.2205 104.947 65.4922H104.917ZM72.4373 63.0022C72.9836 63.0024 73.5268 62.918 74.0473 62.7522C75.0311 62.4327 75.898 61.8287 76.5386 61.0166C77.1791 60.2044 77.5644 59.2205 77.6457 58.1894C77.7271 57.1582 77.5009 56.1261 76.9957 55.2235C76.4905 54.3209 75.7291 53.5884 74.8076 53.1186C73.8861 52.6488 72.846 52.4627 71.8188 52.584C70.7916 52.7053 69.8233 53.1284 69.0366 53.7999C68.2499 54.4714 67.68 55.3611 67.3988 56.3565C67.1177 57.3519 67.1381 58.4084 67.4573 59.3922C67.8025 60.447 68.4737 61.3649 69.3741 62.0136C70.2744 62.6624 71.3576 63.0086 72.4673 63.0022H72.4373ZM69.5574 56.3122C69.9485 55.5523 70.6241 54.9777 71.437 54.7136C72.2499 54.4495 73.1342 54.5172 73.8973 54.9022C74.4636 55.1923 74.9313 55.6437 75.2413 56.1993C75.5513 56.755 75.6898 57.39 75.6392 58.0243C75.5886 58.6585 75.3512 59.2636 74.957 59.763C74.5628 60.2625 74.0294 60.634 73.4243 60.8306C72.8192 61.0272 72.1693 61.0401 71.5569 60.8677C70.9444 60.6953 70.3967 60.3453 69.983 59.8618C69.5693 59.3784 69.308 58.7833 69.2323 58.1515C69.1565 57.5198 69.2697 56.8797 69.5574 56.3122ZM75.6973 74.5622C76.2259 76.1776 77.2511 77.5848 78.6266 78.5832C80.0021 79.5816 81.6577 80.1202 83.3573 80.1222C84.2 80.1213 85.0371 79.9863 85.8373 79.7222C87.3354 79.2252 88.6531 78.2961 89.6244 77.052C90.5956 75.8078 91.1772 74.3041 91.2958 72.7302C91.4143 71.1562 91.0646 69.5824 90.2908 68.2067C89.5169 66.8311 88.3533 65.7151 86.9466 64.9992C85.5398 64.2834 83.9528 63.9996 82.3852 64.1837C80.8175 64.3679 79.3394 65.0116 78.1368 66.0339C76.9342 67.0562 76.061 68.4114 75.6269 69.929C75.1928 71.4465 75.2173 73.0586 75.6973 74.5622ZM81.4773 66.3222C82.6049 65.9652 83.8127 65.9493 84.9493 66.2767C86.0858 66.6041 87.1002 67.26 87.8651 68.1621C88.6299 69.0642 89.1111 70.1723 89.2481 71.3471C89.3852 72.5218 89.172 73.7108 88.6354 74.7648C88.0987 75.8187 87.2625 76.6906 86.2319 77.2708C85.2012 77.851 84.0221 78.1136 82.8427 78.0257C81.6632 77.9378 80.5361 77.5033 79.6028 76.7768C78.6696 76.0502 77.9718 75.0641 77.5973 73.9422C77.3529 73.1852 77.2602 72.3874 77.3244 71.5944C77.3887 70.8015 77.6087 70.029 77.9719 69.3213C78.3351 68.6135 78.8343 67.9843 79.441 67.4697C80.0476 66.9551 80.7498 66.5651 81.5073 66.3222H81.4773ZM89.6173 92.9622C88.5391 92.4442 87.3584 92.1746 86.1621 92.1732C84.9659 92.1718 83.7846 92.4388 82.7052 92.9543C81.6257 93.4698 80.6757 94.2209 79.9249 95.1522C79.1741 96.0835 78.6417 97.1712 78.3669 98.3355C78.0921 99.4997 78.0819 100.711 78.3371 101.879C78.5922 103.048 79.1062 104.145 79.8412 105.089C80.5762 106.032 81.5134 106.799 82.584 107.333C83.6546 107.867 84.8312 108.153 86.0273 108.172C86.8691 108.17 87.7054 108.038 88.5073 107.782C90.0371 107.309 91.3897 106.388 92.3901 105.137C93.3905 103.887 93.9927 102.365 94.1187 100.769C94.2447 99.1727 93.8888 97.5753 93.097 96.1835C92.3052 94.7917 91.1139 93.6695 89.6773 92.9622H89.6173ZM87.8273 105.872C86.6991 106.228 85.491 106.243 84.3546 105.914C83.2182 105.585 82.2044 104.928 81.4405 104.024C80.6767 103.121 80.1969 102.012 80.0615 100.837C79.9261 99.6617 80.1412 98.4726 80.6796 97.4193C81.218 96.3659 82.0559 95.4953 83.0877 94.9167C84.1196 94.3382 85.2994 94.0775 86.479 94.1676C87.6585 94.2577 88.7851 94.6945 89.7171 95.423C90.6492 96.1515 91.3451 97.1393 91.7173 98.2622C91.9682 99.0152 92.0672 99.8104 92.0086 100.602C91.95 101.393 91.735 102.165 91.376 102.873C91.017 103.581 90.5211 104.21 89.9172 104.725C89.3132 105.24 88.613 105.63 87.8573 105.872H87.8273ZM92.9373 46.0022C91.956 45.5015 90.8482 45.3029 89.7541 45.4318C88.6599 45.5606 87.6286 46.0111 86.7904 46.7261C85.9523 47.4411 85.345 48.3887 85.0455 49.4488C84.7459 50.509 84.7674 51.6343 85.1073 52.6822C85.4734 53.7999 86.1827 54.7737 87.1343 55.4649C88.0858 56.1562 89.2312 56.5296 90.4073 56.5322C90.9911 56.5306 91.5711 56.4396 92.1273 56.2622C93.5271 55.8041 94.6889 54.8111 95.3595 53.4998C96.0302 52.1885 96.1552 50.6653 95.7073 49.2622C95.4892 48.5644 95.1347 47.917 94.6643 47.3574C94.194 46.7977 93.6172 46.3371 92.9673 46.0022H92.9373ZM91.5073 54.3622C90.8356 54.5788 90.1147 54.5914 89.4358 54.3985C88.7569 54.2056 88.1505 53.8157 87.693 53.2783C87.2356 52.7408 86.9478 52.0798 86.8659 51.3787C86.784 50.6777 86.9117 49.9682 87.2329 49.3397C87.5541 48.7113 88.0544 48.1921 88.6705 47.8479C89.2866 47.5037 89.991 47.3498 90.6946 47.4057C91.3981 47.4616 92.0694 47.7248 92.6234 48.162C93.1774 48.5993 93.5894 49.1909 93.8074 49.8622C94.1014 50.76 94.0275 51.7377 93.602 52.5812C93.1765 53.4247 92.4341 54.0651 91.5373 54.3622H91.5073ZM78.1173 86.5422C77.6594 85.1427 76.6659 83.9815 75.3541 83.3125C74.0423 82.6435 72.5191 82.5211 71.1174 82.9722C69.7176 83.4303 68.5557 84.4233 67.8851 85.7346C67.2145 87.0459 67.0895 88.5691 67.5373 89.9722C67.7626 90.6695 68.1232 91.3155 68.5985 91.8732C69.0738 92.4309 69.6546 92.8893 70.3074 93.2222C71.0886 93.6185 71.9513 93.8274 72.8273 93.8322C73.4149 93.828 73.9984 93.7335 74.5574 93.5522C75.9571 93.0941 77.119 92.1011 77.7896 90.7898C78.4602 89.4785 78.5852 87.9553 78.1373 86.5522L78.1173 86.5422ZM76.0273 89.8822C75.7047 90.5087 75.2043 91.0261 74.589 91.3694C73.9736 91.7128 73.2706 91.8669 72.568 91.8124C71.8654 91.7579 71.1945 91.4973 70.6394 91.0633C70.0843 90.6292 69.6696 90.0409 69.4473 89.3722C69.1581 88.4688 69.2372 87.4877 69.6673 86.6422C70.1108 85.8234 70.8567 85.2102 71.7459 84.9336C72.6351 84.6569 73.5972 84.7387 74.427 85.1614C75.2568 85.5841 75.8885 86.3143 76.1875 87.1963C76.4865 88.0782 76.429 89.0421 76.0273 89.8822ZM60.8173 70.9522C59.9546 71.235 59.2208 71.8157 58.7474 72.5904C58.274 73.3651 58.092 74.2831 58.234 75.1798C58.3761 76.0765 58.8328 76.8934 59.5224 77.4838C60.212 78.0743 61.0894 78.3999 61.9973 78.4022C62.3984 78.4043 62.7972 78.3401 63.1773 78.2122C63.6725 78.0727 64.1344 77.8347 64.5354 77.5124C64.9363 77.1901 65.268 76.7901 65.5106 76.3364C65.7532 75.8827 65.9015 75.3847 65.9469 74.8723C65.9923 74.3598 65.9338 73.8435 65.7748 73.3543C65.6157 72.865 65.3595 72.413 65.0215 72.0252C64.6834 71.6374 64.2706 71.3218 63.8076 71.0975C63.3446 70.8732 62.8411 70.7447 62.3273 70.7197C61.8134 70.6948 61.2998 70.7739 60.8173 70.9522ZM63.6174 75.4122C63.455 75.7329 63.2008 75.998 62.8872 76.1737C62.5737 76.3494 62.2149 76.4277 61.8567 76.3987C61.4984 76.3697 61.1569 76.2348 60.8756 76.011C60.5943 75.7872 60.3861 75.4848 60.2773 75.1422C60.1288 74.6847 60.1674 74.187 60.3848 73.7579C60.6022 73.3288 60.9806 73.0031 61.4373 72.8522C61.6183 72.7939 61.8071 72.7636 61.9973 72.7622C62.3091 72.7622 62.6157 72.8422 62.8876 72.9947C63.1596 73.1471 63.3878 73.3669 63.5505 73.633C63.7131 73.899 63.8046 74.2023 63.8163 74.5138C63.828 74.8254 63.7595 75.1347 63.6174 75.4122ZM73.6174 100.412C72.7169 99.9764 71.6815 99.9113 70.7336 100.231C69.7856 100.55 69.0008 101.229 68.5476 102.12C68.0945 103.012 68.0093 104.046 68.3103 105C68.6113 105.954 69.2745 106.752 70.1573 107.222C70.6942 107.492 71.2866 107.632 71.8873 107.632C72.2874 107.632 72.6852 107.571 73.0673 107.452C74.0303 107.136 74.8289 106.452 75.2881 105.548C75.7473 104.645 75.8297 103.596 75.5173 102.632C75.3615 102.141 75.1062 101.686 74.7673 101.297C74.4284 100.909 74.0132 100.594 73.5473 100.372L73.6174 100.412ZM72.4473 105.542C72.2198 105.616 71.9799 105.644 71.7414 105.626C71.5029 105.607 71.2704 105.541 71.0574 105.432C70.6394 105.228 70.3168 104.869 70.1573 104.432C70.0825 104.204 70.0534 103.964 70.0718 103.725C70.0901 103.486 70.1555 103.253 70.2643 103.039C70.373 102.825 70.5229 102.635 70.7053 102.48C70.8877 102.324 71.0991 102.206 71.3273 102.132C71.5085 102.076 71.6976 102.049 71.8873 102.052C72.3232 102.045 72.7469 102.196 73.0806 102.477C73.4143 102.757 73.6355 103.149 73.7037 103.579C73.7718 104.01 73.6822 104.45 73.4514 104.82C73.2206 105.19 72.864 105.464 72.4473 105.592V105.542Z" fill="#52AEFB"/>
<path d="M179.247 120.512L164.507 112.002C164.355 111.914 164.183 111.868 164.007 111.868C163.832 111.868 163.659 111.914 163.507 112.002L148.757 120.512C148.605 120.6 148.478 120.727 148.39 120.88C148.303 121.033 148.257 121.206 148.257 121.382V138.382C148.257 138.558 148.303 138.732 148.39 138.885C148.478 139.037 148.605 139.164 148.757 139.252L163.507 147.762C163.66 147.849 163.832 147.893 164.007 147.892C164.183 147.893 164.355 147.849 164.507 147.762L179.247 139.252C179.4 139.164 179.527 139.037 179.614 138.885C179.702 138.732 179.748 138.558 179.747 138.382V121.382C179.748 121.206 179.702 121.033 179.614 120.88C179.527 120.727 179.4 120.6 179.247 120.512ZM177.747 137.832L164.027 145.742L150.277 137.812V121.952L164.027 114.022L177.767 121.952L177.747 137.832Z" fill="#52AEFB"/>
<path d="M160.887 107.742V90.7422C160.886 90.5677 160.839 90.3965 160.752 90.2457C160.664 90.0948 160.538 89.9695 160.387 89.8823L145.647 81.3622C145.495 81.2745 145.323 81.2283 145.147 81.2283C144.972 81.2283 144.799 81.2745 144.647 81.3622L129.907 89.8823C129.756 89.9695 129.63 90.0948 129.543 90.2457C129.455 90.3965 129.408 90.5677 129.407 90.7422V107.742C129.408 107.917 129.455 108.088 129.543 108.239C129.63 108.39 129.756 108.515 129.907 108.602L144.647 117.122C144.799 117.21 144.972 117.256 145.147 117.256C145.323 117.256 145.495 117.21 145.647 117.122L160.387 108.602C160.538 108.515 160.664 108.39 160.752 108.239C160.839 108.088 160.886 107.917 160.887 107.742ZM158.887 107.162L145.147 115.092L131.407 107.162V91.2422L145.147 83.3022L158.887 91.2422V107.162Z" fill="#52AEFB"/>
</svg>
