<svg width="167" height="90" viewBox="0 0 167 90" fill="none" xmlns="http://www.w3.org/2000/svg">
<rect width="166.5" height="90" fill="white"/>
<path fill-rule="evenodd" clip-rule="evenodd" d="M35.4502 42.8808L39.0302 31.3108L41.4802 39.3108C41.8002 39.1408 42.6102 38.7308 42.9902 38.5508C43.1802 35.3908 45.5502 33.6208 48.6502 33.2608L47.0602 28.5908H31.3401L26.1602 43.7108H34.3102C34.5802 43.5208 34.9602 43.2008 35.4502 42.8808Z" fill="#0D2B4D"/>
<path fill-rule="evenodd" clip-rule="evenodd" d="M27.2899 49.761H24.1099L20.1699 61.191H29.71L32.52 52.191H26.0999C26.3689 51.3245 26.7704 50.5048 27.2899 49.761Z" fill="#0D2B4D"/>
<path fill-rule="evenodd" clip-rule="evenodd" d="M47.54 52.981L49.97 61.1909H58.28L53.4901 47.1909C52.1929 49.7194 50.1029 51.7532 47.54 52.981Z" fill="#0D2B4D"/>
<path fill-rule="evenodd" clip-rule="evenodd" d="M46.9304 52.4809C48.5331 51.7748 49.9637 50.7298 51.1238 49.4178C52.2839 48.1058 53.1459 46.558 53.6504 44.8809C53.8004 44.3509 54.4503 41.6009 54.5303 41.1909C54.6537 40.4293 55.0566 39.7412 55.6603 39.2609C56.6603 38.5509 57.4603 39.1709 59.5903 38.2009C59.8203 38.1109 59.8103 38.0409 59.5903 37.9509C58.6366 37.5653 57.619 37.3619 56.5903 37.3509C56.2504 37.3668 55.9106 37.3158 55.5903 37.2009C55.2169 37.0094 54.8787 36.7558 54.5903 36.4509C54.2688 36.0224 53.8845 35.6448 53.4504 35.3309L53.5804 35.4109C52.4 34.4675 50.9411 33.9402 49.4304 33.9109C45.7104 33.9109 43.4303 36.3309 43.6603 39.0009C40.4278 40.462 37.3688 42.28 34.5403 44.4209H20.6204C20.6932 45.044 21.0003 45.6159 21.4795 46.0208C21.9586 46.4257 22.5739 46.6331 23.2004 46.6009L23.2903 46.6909L23.2004 46.7709C22.5653 46.747 21.9447 46.9649 21.4641 47.3806C20.9834 47.7964 20.6783 48.379 20.6104 49.0109H28.7903C28.0737 49.722 27.5 50.5638 27.1003 51.4909H39.6304L42.5004 61.1909H45.0104L42.6804 53.5009C43.2718 53.4668 43.86 53.39 44.4404 53.2709L46.8403 61.1909H49.3104L46.7004 52.5909L46.9304 52.4809ZM50.7004 36.3609C50.8319 36.3615 50.9629 36.3783 51.0903 36.4109L50.2404 38.2309C50.1504 38.4509 50.2403 38.5409 50.4703 38.4409L52.2903 37.5209C52.3453 37.6889 52.3757 37.8641 52.3804 38.0409C52.3804 38.3732 52.2818 38.698 52.0972 38.9742C51.9126 39.2505 51.6502 39.4659 51.3433 39.593C51.0363 39.7202 50.6985 39.7534 50.3726 39.6886C50.0467 39.6238 49.7474 39.4638 49.5125 39.2288C49.2775 38.9939 49.1174 38.6945 49.0526 38.3687C48.9878 38.0428 49.0211 37.7049 49.1483 37.3979C49.2754 37.091 49.4908 36.8286 49.767 36.644C50.0433 36.4594 50.3681 36.3609 50.7004 36.3609Z" fill="#0D2B4D"/>
<path fill-rule="evenodd" clip-rule="evenodd" d="M92.6205 40.491H85.4505V49.491C85.4505 53.061 84.2605 55.3109 81.7805 55.3109C79.9005 55.3109 78.9505 54.0809 78.9505 50.6209V40.491H72.0705V49.491C72.0705 53.061 70.8705 55.3109 68.3905 55.3109C66.4905 55.3109 65.5605 54.0809 65.5605 50.6209V40.491H57.7305V52.801C57.7305 59.281 61.1905 61.2409 65.5705 61.5609C66.8837 61.589 68.1877 61.3358 69.3951 60.8184C70.6024 60.3009 71.6851 59.5312 72.5705 58.5609C73.9905 60.5609 76.2905 61.3609 78.9305 61.5609C80.2434 61.587 81.5469 61.333 82.754 60.8157C83.961 60.2984 85.0439 59.5297 85.9305 58.5609V61.1909H92.7005H92.5805L92.6205 40.491Z" fill="#0D2B4D"/>
<path fill-rule="evenodd" clip-rule="evenodd" d="M114.36 45.2208C113.8 44.0208 112.65 41.2208 107.7 40.2208C106.712 40.0266 105.707 39.9327 104.7 39.9408C101.951 39.9143 99.2317 40.5163 96.7504 41.7008V46.8008C96.7504 46.8008 100.16 44.9508 102.75 44.9508C103.389 44.9387 104.027 44.9754 104.66 45.0608C106.17 45.2708 107.59 45.9508 107.66 48.0008C107.66 48.0008 106.66 48.0008 105.11 48.0008H104.62C99.8804 48.0608 94.2204 49.1308 94.1304 54.8008C94.0404 59.4008 98.1304 61.5308 101.65 61.4408C102.668 61.4578 103.682 61.3058 104.65 60.9908C106.033 60.5735 107.262 59.7557 108.18 58.6408C108.155 59.5105 108.209 60.3807 108.34 61.2408H115.06C115.06 61.2408 114.86 57.7008 114.86 50.8108C114.87 50.7108 114.92 46.4208 114.36 45.2208ZM104.67 56.4908C103.16 56.7908 101.67 56.1308 101.57 54.5608C101.47 52.9908 103.08 52.3908 104.67 52.1908C105.699 52.0515 106.743 52.0853 107.76 52.2908C107.833 53.2447 107.561 54.1929 106.994 54.9635C106.427 55.734 105.603 56.2759 104.67 56.4908Z" fill="#0D2B4D"/>
<path fill-rule="evenodd" clip-rule="evenodd" d="M132.16 40.491V48.971H125.17L125.19 40.491H117.58L117.6 61.201H125.14L125.17 53.621H132.16L132.17 61.201H139.71L139.76 40.491H132.16Z" fill="#0D2B4D"/>
</svg>
