<svg width="167" height="90" viewBox="0 0 167 90" fill="none" xmlns="http://www.w3.org/2000/svg">
<rect width="166.5" height="90" fill="white"/>
<path fill-rule="evenodd" clip-rule="evenodd" d="M67.1698 35.5211L60.1698 47.7111C59.6993 48.4452 59.0636 49.0589 58.3135 49.5035C57.5634 49.948 56.7197 50.2109 55.8498 50.2711C55.1635 50.2594 54.4862 50.112 53.8571 49.8373C53.2281 49.5625 52.6597 49.166 52.1846 48.6705C51.7095 48.175 51.3373 47.5904 51.0893 46.9503C50.8414 46.3102 50.7226 45.6273 50.7398 44.9411C50.7421 43.6054 51.2662 42.3236 52.2003 41.3689C53.1344 40.4143 54.4046 39.8624 55.7398 39.8311C57.2968 39.9296 58.7617 40.6032 59.8499 41.7211C60.3213 42.1004 60.7326 42.5488 61.0699 43.0511L63.6298 38.6111C63.2642 38.1984 62.8552 37.8262 62.4098 37.5011C60.5911 35.9263 58.2656 35.06 55.8598 35.0611C54.3035 35.0386 52.7646 35.3901 51.3724 36.0862C49.9803 36.7823 48.7756 37.8025 47.8598 39.0611C46.5441 40.7405 45.8388 42.8177 45.8598 44.9511C45.8504 47.446 46.7619 49.8567 48.4198 51.7211C50.0362 53.5365 52.2617 54.6967 54.6756 54.9823C57.0895 55.268 59.5244 54.6592 61.5198 53.2711C62.1165 52.8436 62.6723 52.3615 63.1798 51.8311H67.6198V54.6111H72.1698V35.5111L67.1698 35.5211ZM67.6098 47.8411H65.1698L67.6098 43.5111V47.8411Z" fill="#0D2B4D"/>
<path fill-rule="evenodd" clip-rule="evenodd" d="M76.6801 54.7311V40.0411H73.0801V35.6111H85.1001V40.0411H81.4201V54.7311H76.6801Z" fill="#0D2B4D"/>
<path fill-rule="evenodd" clip-rule="evenodd" d="M95.5197 47.4111H90.6697V54.7311H85.9297V35.6111H90.6697V42.8711H95.5197V35.6111H100.29V54.7311H95.5197V47.4111Z" fill="#0D2B4D"/>
<path fill-rule="evenodd" clip-rule="evenodd" d="M139.64 35.6013V46.2313L132.53 35.6013H128.25V42.0612C127.702 40.4606 126.759 39.0241 125.508 37.8842C124.258 36.7442 122.741 35.9377 121.096 35.5391C119.452 35.1405 117.734 35.1626 116.1 35.6034C114.467 36.0442 112.971 36.8895 111.75 38.0612C110.818 38.9546 110.078 40.0275 109.572 41.2152C109.067 42.4028 108.808 43.6806 108.81 44.9713C108.775 46.9269 109.306 48.851 110.34 50.5112H106.71V35.6113H102V54.7113H112.24V52.7113C114.056 54.2825 116.389 55.1266 118.79 55.0812C120.119 55.0871 121.436 54.8244 122.661 54.3088C123.886 53.7933 124.995 53.0356 125.92 52.0812C126.999 50.9912 127.798 49.6566 128.25 48.1912V54.7113H132.99V44.0812L140.17 54.7113H144.34V35.6013H139.64ZM118.79 50.3413C117.412 50.2994 116.106 49.7186 115.153 48.7237C114.199 47.7288 113.674 46.3994 113.69 45.0213C113.737 44.0289 114.074 43.0722 114.659 42.2694C115.244 41.4665 116.052 40.8528 116.982 40.5043C117.912 40.1557 118.924 40.0876 119.893 40.3082C120.861 40.5289 121.744 41.0287 122.432 41.7459C123.119 42.463 123.581 43.3659 123.761 44.343C123.94 45.32 123.829 46.3283 123.442 47.243C123.054 48.1577 122.407 48.9387 121.58 49.4894C120.754 50.0401 119.783 50.3362 118.79 50.3413Z" fill="#0D2B4D"/>
<path fill-rule="evenodd" clip-rule="evenodd" d="M45.8801 39.7112V35.4912H35.34V43.3612C35.111 41.2685 34.1556 39.3223 32.64 37.8612C30.64 35.9812 28.47 35.5712 25.39 35.5712H18.77V54.7112H26.05C28.77 54.7112 30.6 54.3312 32.67 52.3412C34.1314 50.9093 35.0714 49.0294 35.34 47.0012V54.6012H45.8801V50.5112H40.0001V46.9612H45.11V42.8512H40.0001V39.7112H45.8801ZM25.42 50.5012H23.5101V39.7112H25.39C28.88 39.7112 30.7601 41.6412 30.7601 45.0912C30.7601 48.8512 29.04 50.5212 25.42 50.5212V50.5012Z" fill="#0D2B4D"/>
</svg>
