<svg width="167" height="90" viewBox="0 0 167 90" fill="none" xmlns="http://www.w3.org/2000/svg">
<rect width="166.5" height="90" fill="white"/>
<path fill-rule="evenodd" clip-rule="evenodd" d="M104.495 42.8745C103.951 43.1761 103.44 43.5327 102.969 43.9385C102.633 44.1589 102.352 44.4555 102.152 44.8044C101.951 45.1532 101.836 45.5444 101.815 45.9462C101.807 46.3383 101.919 46.7236 102.136 47.0504C102.228 47.1932 102.354 47.3104 102.503 47.3912C102.652 47.4719 102.82 47.5135 102.989 47.5121C103.302 47.4974 103.604 47.3967 103.863 47.221C104.142 47.0336 104.372 46.7824 104.535 46.4882C104.681 46.1002 104.753 45.6882 104.746 45.2736V43.9787C104.746 43.266 104.646 42.8745 104.495 42.8745Z" fill="#0D2B4D"/>
<path fill-rule="evenodd" clip-rule="evenodd" d="M67.6646 42.3624C67.8318 42.3732 67.9994 42.3732 68.1665 42.3624C69.5418 42.3624 70.1742 41.6095 70.1742 40.1038C70.1994 39.5915 70.043 39.0867 69.7326 38.6784C69.5831 38.506 69.3954 38.3708 69.1846 38.2837C68.9737 38.1965 68.7454 38.1599 68.5179 38.1765C68.1606 38.1309 67.7998 38.2283 67.514 38.4475C67.4538 38.4475 67.4338 38.7989 67.4338 39.3711V41.5594C67.4192 41.7565 67.4192 41.9545 67.4338 42.1516C67.5342 42.2821 67.5743 42.3423 67.6646 42.3624Z" fill="#0D2B4D"/>
<path fill-rule="evenodd" clip-rule="evenodd" d="M80.4843 42.8745C79.9289 43.167 79.4099 43.5242 78.9384 43.9385C78.6071 44.1628 78.3324 44.4608 78.1355 44.8092C77.9387 45.1575 77.8252 45.5467 77.8041 45.9462C77.7963 46.3383 77.9084 46.7236 78.1254 47.0504C78.2151 47.1903 78.3382 47.3058 78.4837 47.3864C78.6291 47.467 78.7922 47.5102 78.9585 47.5121C79.2777 47.5006 79.5872 47.3998 79.8519 47.221C80.1305 47.0389 80.3557 46.786 80.5044 46.4882C80.6505 46.1002 80.722 45.6882 80.7152 45.2736V43.9787C80.7152 43.266 80.6349 42.8745 80.4843 42.8745Z" fill="#0D2B4D"/>
<path fill-rule="evenodd" clip-rule="evenodd" d="M69.5825 43.8684C69.3817 43.7099 69.1487 43.5968 68.8999 43.5372C68.5944 43.4903 68.2855 43.4701 67.9765 43.4769C67.8953 43.4654 67.8125 43.4773 67.7379 43.511C67.6632 43.5448 67.5997 43.5991 67.5548 43.6677C67.485 43.8742 67.4577 44.0927 67.4746 44.3101V46.7393C67.4666 47.1017 67.4867 47.4641 67.5347 47.8234C67.5673 48.0418 67.6823 48.2393 67.856 48.3755C68.1024 48.5553 68.4051 48.6408 68.7092 48.6164C68.9994 48.6314 69.289 48.5774 69.5542 48.4587C69.8195 48.3401 70.0528 48.1602 70.235 47.9339C70.5929 47.4052 70.7691 46.7746 70.7369 46.137C70.7665 45.69 70.6747 45.2433 70.4715 44.844C70.2684 44.4448 69.9613 44.1077 69.5825 43.8684Z" fill="#0D2B4D"/>
<path fill-rule="evenodd" clip-rule="evenodd" d="M138.464 18.9036C134.931 23.3605 129.852 25.5287 124.551 26.5627C119.519 27.3779 114.415 27.6639 109.324 27.4159C111.13 25.4083 112.777 22.0957 112.857 19.7167C112.546 20.6402 111.251 21.2826 109.846 21.7243C105.118 23.3906 94.959 22.5675 85.1518 21.383C75.3446 20.1985 65.8986 18.6527 62.5961 18.8635C49.7373 19.3352 41.2049 25.8299 35.8847 34.8642C30.5645 43.8985 28.4566 55.4724 28.4365 66.1128C32.0031 62.4587 36.4165 59.7417 41.2852 58.2028C53.6421 55.8538 65.9488 61.4451 78.4262 65.9923C84.68 68.2609 90.9738 70.2686 97.3581 70.901C104.028 71.6635 110.775 70.4855 116.792 67.5081C124.702 63.5932 130.725 56.5766 134.459 47.9639C138.322 38.7968 139.704 28.774 138.464 18.9036ZM80.5442 38.4378C80.5022 38.2619 80.4 38.1063 80.2551 37.998C80.1102 37.8898 79.9319 37.8358 79.7513 37.8455C79.1089 37.8455 78.6069 38.4177 78.2054 39.5419C78.1239 39.8365 78.0059 40.1198 77.8541 40.3851C77.7163 40.592 77.5256 40.7584 77.302 40.867C77.0217 41.0394 76.7217 41.1775 76.4085 41.2785C76.1319 41.3817 75.8404 41.4394 75.5453 41.4492C75.1036 41.4492 74.8628 41.2584 74.8628 40.8368C74.8939 40.3536 75.0648 39.8898 75.3546 39.5018C75.6292 39.0628 75.9675 38.667 76.3584 38.3273C77.4686 37.3629 78.9041 36.8569 80.3737 36.9119C81.3451 36.8549 82.3082 37.1195 83.1141 37.6648C83.413 37.8812 83.6234 38.1986 83.7063 38.5582C83.8135 39.005 83.8607 39.4641 83.8468 39.9234V45.7957C83.8358 46.2218 83.8594 46.6481 83.9172 47.0705C83.937 47.1926 83.9972 47.3044 84.0882 47.3881C84.1792 47.4719 84.2958 47.5226 84.4191 47.5323C84.5997 47.5323 84.3286 46.7393 84.8305 46.1771C84.9547 46.009 85.1165 45.8724 85.303 45.7782C85.4896 45.6841 85.6957 45.6351 85.9047 45.6351C86.0678 45.6218 86.2314 45.653 86.3782 45.7255C86.5249 45.798 86.6492 45.909 86.7378 46.0466C86.9737 46.4506 87.1496 46.8869 87.2598 47.3416C87.2933 47.4144 87.3136 47.4925 87.32 47.5724C87.32 47.6828 87.3803 47.7832 87.4104 47.8435C87.4347 47.9045 87.4767 47.9569 87.5308 47.994C87.6004 48.0084 87.6721 48.0084 87.7416 47.994C87.8621 47.994 87.9926 47.8334 88.1532 47.5122C88.3258 47.0186 88.4403 46.5065 88.4945 45.9864C88.6009 45.1341 88.6478 44.2755 88.635 43.4166V39.8631C88.6472 39.5274 88.627 39.1912 88.5747 38.8593C88.5277 38.6901 88.4253 38.5417 88.2837 38.4378C88.0382 38.3249 87.7779 38.2472 87.5107 38.2069C87.3684 38.2009 87.233 38.1439 87.1293 38.0463C87.063 38.0068 87.0078 37.9511 86.9691 37.8843C86.9305 37.8175 86.9097 37.742 86.9085 37.6648C86.903 37.518 86.9532 37.3746 87.049 37.2633C87.088 37.2126 87.1382 37.1718 87.1957 37.1439C87.2532 37.116 87.3164 37.1019 87.3802 37.1027C87.7015 37.1027 88.2033 37.1027 88.8458 37.1027H90.3314H94.5374H95.9126C96.5049 37.1027 96.9666 37.1027 97.2778 37.1027C97.3416 37.1026 97.4045 37.1171 97.4619 37.1449C97.5192 37.1727 97.5695 37.2132 97.609 37.2633C97.698 37.3778 97.7441 37.5198 97.7395 37.6648C97.7408 37.737 97.7262 37.8086 97.6968 37.8746C97.6673 37.9405 97.6237 37.9991 97.5689 38.0463C97.4694 38.144 97.337 38.2013 97.1975 38.2069C96.9082 38.2382 96.6244 38.3092 96.3543 38.4177C96.2848 38.4586 96.2248 38.5137 96.178 38.5794C96.1313 38.6451 96.0991 38.72 96.0833 38.7991C96.0145 39.129 95.9875 39.4663 96.0029 39.8029V46.8296C95.9875 47.1463 96.0146 47.4636 96.0833 47.7732C96.1164 47.9405 96.2136 48.0883 96.3543 48.1847C96.6061 48.2956 96.8737 48.3667 97.1473 48.3955C97.2928 48.4063 97.4322 48.4586 97.5489 48.5461C97.6095 48.6004 97.6579 48.6669 97.6908 48.7414C97.7236 48.8158 97.7402 48.8964 97.7395 48.9778C97.7413 49.113 97.7029 49.2458 97.6291 49.3592C97.5388 49.4438 97.4215 49.4936 97.2979 49.4997H95.8123H94.3466H92.9514H91.5662C91.2751 49.4997 91.1244 49.3191 91.1244 48.9778C91.1221 48.8267 91.1758 48.6801 91.275 48.5662C91.3226 48.5147 91.3799 48.4731 91.4436 48.4438C91.5074 48.4145 91.5763 48.3981 91.6464 48.3955C91.9299 48.3671 92.2073 48.296 92.4695 48.1847C92.5481 48.1479 92.6171 48.0934 92.6711 48.0255C92.7251 47.9576 92.7626 47.8781 92.7808 47.7932C92.834 47.4615 92.8541 47.1252 92.8409 46.7894V39.1505C92.852 38.9279 92.8318 38.7049 92.7808 38.4879C92.7662 38.431 92.7342 38.38 92.6892 38.3422C92.6442 38.3044 92.5884 38.2816 92.5298 38.2771C92.262 38.2258 91.9891 38.2056 91.7167 38.2169H90.8534C90.5533 38.2007 90.2524 38.2277 89.96 38.2972C89.8828 38.3232 89.8141 38.3695 89.7611 38.4314C89.7081 38.4932 89.6728 38.5683 89.6589 38.6485C89.6087 38.9537 89.5885 39.263 89.5986 39.572V43.3163C89.6035 44.2896 89.5432 45.2621 89.418 46.2273C89.3235 47.1057 89.0206 47.9488 88.5347 48.6867C88.2916 49.0458 87.9593 49.3356 87.5703 49.5274C87.1813 49.7192 86.7491 49.8066 86.3162 49.7808C86.0511 49.7861 85.7883 49.7321 85.5469 49.6227C85.3054 49.5133 85.0916 49.3512 84.921 49.1484C84.782 48.9942 84.6699 48.8178 84.5896 48.6264C84.0804 49.0849 83.4272 49.3511 82.7426 49.3793C82.3803 49.4103 82.0201 49.2987 81.7388 49.0681C81.4513 48.7903 81.2374 48.4454 81.1165 48.0643C81.1035 47.9998 81.0867 47.9361 81.0662 47.8736C81.0317 47.7647 80.9845 47.6603 80.9257 47.5624C80.9152 47.5306 80.8951 47.5028 80.8681 47.483C80.8411 47.4633 80.8087 47.4524 80.7752 47.452C80.5331 47.6243 80.3109 47.8229 80.1127 48.0442C79.71 48.4671 79.2506 48.8319 78.7475 49.1283C78.2375 49.4406 77.6489 49.6007 77.051 49.5901C76.7485 49.5953 76.4488 49.5322 76.1741 49.4053C75.8995 49.2784 75.6571 49.091 75.465 48.8573C75.0256 48.3216 74.8002 47.6421 74.8326 46.95C74.8459 46.493 74.9524 46.0436 75.1457 45.6293C75.339 45.215 75.6151 44.8446 75.9569 44.5409C76.3114 44.2292 76.6984 43.9566 77.1113 43.7278C77.5238 43.4799 77.957 43.2683 78.4061 43.0954C79.1487 42.8173 79.8305 42.398 80.4137 41.8607L80.6447 41.5897V40.0238C80.6833 39.493 80.6494 38.9594 80.5442 38.4378ZM60.8997 43.0854C60.2955 45.3292 59.0392 47.3433 57.2898 48.8728C55.5405 50.4024 53.3767 51.3786 51.0724 51.678C49.9067 51.8788 48.7078 51.7394 47.6193 51.2765C46.9904 51.0525 46.4373 50.656 46.0233 50.1321C45.6252 49.6134 45.4067 48.9791 45.4009 48.3253C45.4032 47.9043 45.4937 47.4885 45.6666 47.1046C45.8395 46.7208 46.091 46.3775 46.4048 46.0968C47.0668 45.4965 47.9302 45.1669 48.8239 45.1733C49.7272 45.1633 50.6014 45.4929 51.2732 46.0968C51.587 46.3775 51.8385 46.7208 52.0114 47.1046C52.1843 47.4885 52.2748 47.9043 52.277 48.3253C52.274 48.69 52.2024 49.051 52.0661 49.3893C51.9369 49.7185 51.7538 50.0238 51.5242 50.2928C53.2546 49.432 54.6265 47.989 55.3989 46.2173C56.2636 44.5133 56.8274 42.6726 57.0652 40.7766C57.0652 40.5959 57.0652 40.4052 57.1354 40.2145C57.2057 40.0238 57.1354 39.833 57.1354 39.6323C55.7703 42.2723 54.6259 42.9147 53.5719 42.7842C52.5179 42.6537 51.5642 41.7804 50.5604 41.2785C50.2364 41.1569 49.8907 41.104 49.5451 41.123C49.1995 41.142 48.8616 41.2325 48.5528 41.3889C48.0208 41.6198 47.6996 41.8607 47.8401 41.6198C49.5366 38.8794 50.5404 38.4679 51.4639 38.7389C52.3874 39.0099 53.2206 39.9736 54.5557 40.0037C55.0599 39.9802 55.5545 39.8574 56.0112 39.6423C56.493 39.4415 56.9247 39.2107 57.1857 39.1002C57.2459 35.8479 56.1818 32.987 54.656 32.0736C53.1303 31.1601 51.3535 32.3145 49.9883 37.0023H44.8388C45.298 35.6671 46.0169 34.4359 46.9541 33.3799C47.8913 32.3238 49.0282 31.4636 50.2994 30.8489C51.675 30.1894 53.2248 29.9848 54.7244 30.2645C56.2241 30.5442 57.5958 31.2938 58.6411 32.4048C61.1406 34.7337 62.034 39.0802 60.8997 43.0854ZM69.4321 49.6001C68.8198 49.6001 68.2175 49.6001 67.6353 49.6001C67.053 49.6001 66.4809 49.6001 65.8786 49.6001H64.4332H63.0077C62.8896 49.5958 62.7779 49.5453 62.6966 49.4596C62.6512 49.4157 62.616 49.3624 62.5934 49.3034C62.5709 49.2445 62.5616 49.1813 62.5661 49.1183C62.5661 48.7469 62.7167 48.5561 63.068 48.516C63.3789 48.5104 63.6805 48.4088 63.9312 48.2249C64.1124 48.0536 64.2233 47.821 64.2424 47.5724C64.2927 47.0252 64.3129 46.4756 64.3027 45.9262V40.9071C64.3088 40.3539 64.2821 39.8008 64.2224 39.2508C64.2087 39.005 64.105 38.7728 63.9312 38.5983C63.6692 38.4404 63.3732 38.3475 63.068 38.3273C62.9331 38.3221 62.8054 38.2648 62.7118 38.1675C62.6182 38.0702 62.566 37.9404 62.5661 37.8053C62.5661 37.4339 62.7769 37.2432 63.2186 37.2432C64.122 37.2432 65.0354 37.3034 65.9389 37.3034C66.2935 37.3034 66.7753 37.2834 67.3843 37.2432C67.9866 37.2432 68.3881 37.183 68.6391 37.183C69.8253 37.1413 71.0057 37.3677 72.0922 37.8455C72.5351 38.0685 72.9009 38.4191 73.1425 38.8522C73.3841 39.2852 73.4903 39.7807 73.4474 40.2747C73.4474 41.8808 72.2729 42.7441 69.934 42.9348C70.9545 42.9391 71.9569 43.2052 72.8451 43.7078C73.2214 43.9764 73.5199 44.3399 73.7103 44.7612C73.9007 45.1826 73.9762 45.6469 73.9292 46.1069C73.9549 46.6754 73.8268 47.2403 73.5582 47.7421C73.2897 48.2438 72.8907 48.6638 72.4034 48.9577C71.9991 49.2233 71.5503 49.4138 71.0784 49.5198C70.5352 49.5809 69.9877 49.5944 69.4422 49.56L69.4321 49.6001ZM91.014 65.2495C84.198 64.3026 77.6638 61.9066 71.8513 58.2229C78.878 59.4475 83.9673 60.3208 88.9161 60.5015C94.4859 60.6311 100.047 59.9858 105.439 58.5842C103.592 64.4665 97.6994 65.9923 91.014 65.2495ZM109.083 48.2851C108.795 48.6416 108.437 48.9351 108.031 49.1475C107.626 49.3599 107.181 49.4866 106.724 49.5198C106.361 49.5509 106.001 49.4392 105.72 49.2086C105.426 48.9364 105.21 48.5895 105.098 48.2048C105.098 48.2048 105.098 48.1446 105.098 48.0141C105.098 47.8836 104.997 47.8033 104.937 47.7029C104.926 47.6711 104.906 47.6434 104.879 47.6236C104.852 47.6038 104.82 47.5929 104.786 47.5925C104.544 47.7648 104.322 47.9634 104.124 48.1847C103.728 48.6073 103.276 48.9722 102.779 49.2688C102.267 49.5761 101.68 49.7359 101.082 49.7306C100.776 49.7389 100.473 49.6772 100.194 49.5502C99.916 49.4232 99.6704 49.2343 99.4762 48.9978C99.0368 48.4622 98.8114 47.7827 98.8438 47.0906C98.8474 46.6036 98.9569 46.1233 99.165 45.6829C99.373 45.2426 99.6744 44.8529 100.048 44.5409C100.41 44.2386 100.796 43.9666 101.203 43.7278C101.622 43.4792 102.062 43.2676 102.518 43.0954C103.262 42.8201 103.944 42.4005 104.525 41.8607C104.603 41.7651 104.687 41.6745 104.776 41.5897V40.0238C104.783 39.5022 104.719 38.9822 104.586 38.4779C104.546 38.3046 104.447 38.1506 104.306 38.0424C104.165 37.9343 103.99 37.8788 103.813 37.8856C103.17 37.8856 102.658 38.4578 102.267 39.5821C102.169 39.8725 102.048 40.1545 101.905 40.4253C101.771 40.6392 101.575 40.8072 101.343 40.9071C101.068 41.0759 100.775 41.2139 100.47 41.3187C100.186 41.4204 99.8881 41.4779 99.5866 41.4893C99.1449 41.4893 98.904 41.2986 98.904 40.877C98.9441 40.394 99.1179 39.9317 99.4059 39.5419C99.6835 39.1051 100.021 38.7097 100.41 38.3675C101.521 37.4048 102.956 36.8991 104.425 36.9521C105.396 36.901 106.357 37.1651 107.165 37.705C107.458 37.9273 107.667 38.2422 107.758 38.5983C107.855 39.0468 107.902 39.5047 107.898 39.9635V45.8358C107.887 46.262 107.911 46.6883 107.968 47.1107C108.049 47.3817 108.189 47.5122 108.38 47.5122C108.583 47.4757 108.771 47.3817 108.922 47.2412C108.96 47.1979 109.004 47.1607 109.052 47.1307L109.263 46.9701C109.316 46.9323 109.379 46.9112 109.444 46.9099C109.615 46.9099 109.705 47.0504 109.705 47.3014C109.63 47.6963 109.407 48.048 109.083 48.2851ZM121.821 46.408C121.409 47.3877 120.74 48.2376 119.884 48.8673C119.104 49.4478 118.156 49.7579 117.183 49.7507C116.571 49.736 115.964 49.6242 115.387 49.4194C115.387 49.4194 115.316 49.4194 115.236 49.3692C115.179 49.3601 115.122 49.3601 115.065 49.3692C114.965 49.3692 114.905 49.6604 114.905 50.2325V53.3644C114.921 53.605 115.001 53.8369 115.136 54.0369C115.254 54.1917 115.405 54.3173 115.579 54.4043C115.753 54.4913 115.945 54.5373 116.139 54.5389C116.601 54.6392 116.832 54.83 116.832 55.1612C116.839 55.2253 116.831 55.2901 116.809 55.3507C116.787 55.4112 116.751 55.4658 116.705 55.5104C116.658 55.555 116.602 55.5884 116.541 55.6079C116.479 55.6274 116.414 55.6326 116.35 55.623C115.999 55.623 115.517 55.623 114.905 55.623C114.292 55.623 113.78 55.623 113.339 55.623C112.897 55.623 112.335 55.623 111.713 55.623C111.09 55.623 110.598 55.623 110.247 55.623C109.896 55.623 109.745 55.4624 109.745 55.1612C109.741 55.0834 109.752 55.0056 109.779 54.9322C109.805 54.8588 109.845 54.7912 109.897 54.7334C109.949 54.6756 110.012 54.6287 110.083 54.5953C110.153 54.5619 110.229 54.5427 110.307 54.5389C110.512 54.5324 110.714 54.4847 110.9 54.3984C111.087 54.3122 111.254 54.1892 111.391 54.0369C111.526 53.8369 111.606 53.605 111.622 53.3644V41.9109C111.65 41.4181 111.603 40.9239 111.482 40.4454C111.391 40.1743 111.14 40.0438 110.769 40.0037C110.598 39.9957 110.428 39.9618 110.267 39.9033C110.213 39.8616 110.17 39.8062 110.143 39.7428C110.117 39.6794 110.108 39.6101 110.117 39.5419C110.118 39.4744 110.133 39.408 110.163 39.3473C110.192 39.2866 110.235 39.2331 110.287 39.1906C110.399 39.11 110.525 39.0521 110.659 39.02C110.781 38.9659 110.909 38.9255 111.04 38.8995C112.223 38.609 113.292 37.973 114.112 37.0726C114.323 36.7413 114.513 36.5907 114.674 36.5907C114.834 36.5907 114.955 36.9119 114.955 37.5945V38.518C115.105 38.4604 115.24 38.3675 115.346 38.247L115.828 37.8455C116.128 37.5619 116.466 37.322 116.832 37.1328C117.174 37 117.54 36.9385 117.906 36.9521C118.766 36.9427 119.602 37.2378 120.265 37.7853C121.006 38.368 121.583 39.1322 121.941 40.0037C122.341 40.9572 122.546 41.9812 122.544 43.0151C122.546 44.1835 122.304 45.3394 121.831 46.408H121.821Z" fill="#0D2B4D"/>
<path fill-rule="evenodd" clip-rule="evenodd" d="M117.966 39.6024C117.8 39.3508 117.573 39.1447 117.306 39.0028C117.04 38.8608 116.742 38.7875 116.441 38.7893C116.155 38.7922 115.876 38.8721 115.632 39.0205C115.388 39.1689 115.189 39.3804 115.055 39.6325C114.925 39.8897 114.869 40.1784 114.895 40.4657C114.895 40.5661 114.895 40.6966 114.895 40.8672V45.6956C114.895 47.7032 115.397 48.707 116.37 48.707C116.666 48.7145 116.959 48.652 117.226 48.5246C117.493 48.3973 117.726 48.2087 117.906 47.9742C118.342 47.4214 118.654 46.7812 118.82 46.0971C118.994 45.3601 119.085 44.6058 119.091 43.8486C119.084 43.0748 118.993 42.304 118.82 41.5498C118.678 40.8472 118.387 40.1832 117.966 39.6024Z" fill="#0D2B4D"/>
</svg>
