<svg width="167" height="90" viewBox="0 0 167 90" fill="none" xmlns="http://www.w3.org/2000/svg">
<rect width="166.5" height="90" fill="white"/>
<path d="M70.9194 35.8279H84.2601V37.7251H73.0074V44.029H82.3528V45.9262H73.0074V52.3707H84.3906V54.2679H70.9194V35.8279Z" fill="#0D2B4D"/>
<path d="M107.86 35.8381H109.948V52.3508H119.554V54.2781H107.86V35.8381Z" fill="#0D2B4D"/>
<path d="M123.901 35.8381H125.979V54.2781H123.901V35.8381Z" fill="#0D2B4D"/>
<path d="M36.4883 47.5524L40.373 38.1467L44.2377 47.5524H36.4883ZM41.417 35.8179H39.4094L31.3789 54.298H33.517L35.6953 49.4295H45.0809L47.2391 54.298H49.4776L41.4471 35.8179H41.417Z" fill="#0D2B4D"/>
<path d="M96.0146 45.2337H90.9956V37.7452H96.0146C99.0261 37.7452 101.034 39.1204 101.034 41.389C101.034 43.8183 98.7249 45.2337 95.9444 45.2337H96.0146ZM103.142 54.268L99.5481 46.4784C100.572 46.0503 101.455 45.3437 102.098 44.4387C102.74 43.5337 103.116 42.4667 103.182 41.3589C103.199 40.6812 103.082 40.0068 102.837 39.3745C102.593 38.7423 102.225 38.1647 101.756 37.675C100.184 36.3843 98.187 35.7258 96.1552 35.828H88.9077V54.278H90.9956V47.1108H97.6007L100.843 54.278L103.142 54.268Z" fill="#0D2B4D"/>
<path d="M29.1307 44.3402H20.6285V37.7552H32.3329L32.3429 35.8279H18.5405V54.288H20.6285V46.2374H29.1207L29.1307 44.3402Z" fill="#0D2B4D"/>
<path d="M60.3995 52.4104C63.2102 52.4104 64.9568 51.1758 64.9568 49.0678C64.9568 46.9598 63.2604 45.9057 60.0281 45.9057H54.5674V52.4104H60.3995ZM59.6567 44.0587C62.1763 44.0587 63.9229 42.9244 63.9229 40.706C63.9229 38.8891 62.4673 37.6946 59.8173 37.6946H54.5674V44.0487L59.6567 44.0587ZM52.4995 35.8275H60.008C60.8825 35.7682 61.7601 35.8822 62.5904 36.163C63.4207 36.4438 64.1874 36.8858 64.8464 37.4637C65.2389 37.8588 65.5471 38.3293 65.7524 38.8469C65.9577 39.3646 66.0559 39.9185 66.0409 40.4752C66.058 41.4044 65.7835 42.3157 65.2559 43.0809C64.7284 43.8461 63.9743 44.4268 63.0997 44.7414C65.2981 45.4039 66.7938 46.5382 66.7938 49.118C66.7938 52.28 64.3947 54.2876 60.3493 54.2876H52.4995V35.8275Z" fill="#0D2B4D"/>
<path d="M145.362 49.4396C144.42 50.75 143.085 51.7258 141.55 52.2254C140.015 52.7249 138.361 52.7221 136.828 52.2174C135.295 51.7127 133.963 50.7323 133.025 49.4187C132.087 48.1052 131.592 46.5268 131.613 44.9129C131.633 43.299 132.168 41.7337 133.139 40.4443C134.109 39.155 135.466 38.2087 137.012 37.7431C138.557 37.2774 140.211 37.3166 141.732 37.8549C143.254 38.3932 144.564 39.4026 145.473 40.7365L147.089 39.6725C145.95 37.9894 144.304 36.7141 142.389 36.0325C140.475 35.3508 138.393 35.2986 136.447 35.8833C134.5 36.468 132.792 37.6591 131.57 39.283C130.348 40.9068 129.677 42.8784 129.655 44.9104C129.632 46.9424 130.26 48.9285 131.445 50.579C132.63 52.2295 134.312 53.4583 136.245 54.086C138.177 54.7137 140.26 54.7077 142.189 54.0687C144.118 53.4297 145.793 52.1912 146.968 50.5337L145.362 49.4396Z" fill="#0D2B4D"/>
</svg>
