<svg width="167" height="90" viewBox="0 0 167 90" fill="none" xmlns="http://www.w3.org/2000/svg">
<rect width="166.5" height="90" fill="white"/>
<path d="M17.5692 37.2935H12.6807V53.0432H17.5692V37.2935Z" fill="#0D2B4D"/>
<path d="M55.7141 36.9824H44.7726C44.0845 36.9824 43.4031 37.1179 42.7674 37.3813C42.1317 37.6446 41.554 38.0306 41.0674 38.5171C40.5808 39.0037 40.1949 39.5813 39.9316 40.2171C39.6682 40.8528 39.5327 41.5342 39.5327 42.2223V47.8035C39.5327 49.1932 40.0847 50.526 41.0674 51.5087C42.0501 52.4913 43.3829 53.0434 44.7726 53.0434H55.7141C57.1038 53.0434 58.4366 52.4913 59.4193 51.5087C60.402 50.526 60.954 49.1932 60.954 47.8035V42.2223C60.954 41.5342 60.8185 40.8528 60.5551 40.2171C60.2918 39.5813 59.9059 39.0037 59.4193 38.5171C58.9327 38.0306 58.3551 37.6446 57.7194 37.3813C57.0836 37.1179 56.4022 36.9824 55.7141 36.9824ZM56.0555 46.8599C56.0528 47.4155 55.8309 47.9476 55.4381 48.3405C55.0452 48.7334 54.5131 48.9552 53.9575 48.9579H46.5292C45.9746 48.9552 45.4435 48.733 45.0523 48.3399C44.661 47.9467 44.4414 47.4146 44.4414 46.8599V43.1659C44.4414 42.6121 44.6613 42.0811 45.0529 41.6895C45.4444 41.2979 45.9755 41.078 46.5292 41.078H53.9575C54.5121 41.0779 55.0442 41.2976 55.4374 41.6889C55.8305 42.0802 56.0528 42.6112 56.0555 43.1659V46.8599Z" fill="#0D2B4D"/>
<path d="M149.239 37.2937V48.5766L140.505 37.2837H137.835H132.947V41.7506V53.0335H137.835V41.7506L146.719 53.0335H149.239V53.0435H154.127V37.2937H149.239Z" fill="#0D2B4D"/>
<path d="M78.5306 37.2937V48.5766L69.7975 37.2837H67.1273H62.2388V41.7506V53.0335H67.1273V41.7506L76.0111 53.0335H78.5306V53.0435H83.4191V37.2937H78.5306Z" fill="#0D2B4D"/>
<path d="M104.871 37.2837V37.2937H102.381L97.051 47.1712L91.8312 37.2937H89.2313H88.2074H84.3428V53.0435H89.2313V41.9414L94.9932 52.9732H99.1088L104.871 41.9414V53.0335H109.759V37.2837H104.871Z" fill="#0D2B4D"/>
<path d="M124.425 37.2837H118.191L109.759 53.0435H115.13L116.545 50.3232H126.071L127.487 53.0435H132.857L124.425 37.2837ZM121.303 46.7597H118.402L121.303 41.1484L124.214 46.7597H121.303Z" fill="#0D2B4D"/>
<path d="M38.5086 42.5333C38.5086 41.8452 38.373 41.1639 38.1097 40.5281C37.8464 39.8924 37.4604 39.3148 36.9739 38.8282C36.4873 38.3416 35.9097 37.9556 35.2739 37.6923C34.6382 37.429 33.9568 37.2935 33.2687 37.2935H19.3057V53.0432H24.1942V49.2589H31.512C32.0684 49.2589 32.6021 49.4799 32.9955 49.8733C33.389 50.2668 33.61 50.8004 33.61 51.3569V53.0432H38.5086V50.4032C38.5044 49.0997 38.0099 47.8455 37.1233 46.8899C38.0114 45.9312 38.506 44.6733 38.5086 43.3665V42.5333ZM31.4819 41.379C32.4857 41.379 33.4895 41.8207 33.4895 42.955C33.4895 44.0893 32.4857 44.5209 31.4819 44.5209H24.1942V41.379H31.4819Z" fill="#0D2B4D"/>
</svg>
