<svg width="167" height="90" viewBox="0 0 167 90" fill="none" xmlns="http://www.w3.org/2000/svg">
<rect width="166.5" height="90" fill="white"/>
<path d="M87.0898 53.3807V36.7708H97.4099V40.6307H91.4099V53.3807H87.0898Z" fill="#0D2B4D"/>
<path d="M110.39 53.3807V46.8807H104V53.3807H99.7002V36.7708H104V42.9708H110.39V36.7708H114.7V53.3807H110.39Z" fill="#0D2B4D"/>
<path d="M139.67 53.3807V40.6307H134.67V36.7708H149.05V40.6307H144V53.3807H139.67Z" fill="#0D2B4D"/>
<path d="M128.31 53.3807V43.9108L121.46 53.3807H117.86V36.7708H122.17V46.1407L128.9 36.7708H132.62V53.3807H128.31Z" fill="#0D2B4D"/>
<path d="M62.35 53.3807V43.5107L58.06 48.7108L53.76 43.4908V53.3608H49.46V36.7708H53.7L58.06 42.4808L62.41 36.7708H66.66V53.3807H62.35Z" fill="#0D2B4D"/>
<path d="M74.83 47.5408H78.83L76.83 42.3307L74.83 47.5408ZM81.07 53.3807L80.17 51.0508H73.48L72.58 53.3807H68.25L74.87 36.7708H78.87L85.49 53.3807H81.07Z" fill="#0D2B4D"/>
<path d="M16.1699 40.1508C16.1731 38.1499 16.9592 36.2297 18.3599 34.8008C19.045 34.0996 19.863 33.542 20.7662 33.1608C21.6694 32.7796 22.6396 32.5824 23.6199 32.5808H40.8199V36.4208H23.5899C22.6149 36.4299 21.6835 36.8255 20.9999 37.5208C20.3105 38.2229 19.9229 39.1668 19.9199 40.1508V46.6008C19.8514 47.4246 19.5104 48.202 18.9509 48.8105C18.3913 49.4189 17.6451 49.8237 16.8299 49.9608L16.1499 50.0608L16.1699 40.1508Z" fill="#0D2B4D"/>
<path d="M16.1699 57.5808V53.7108H33.3699C34.3449 53.7017 35.2764 53.3061 35.9599 52.6108C36.6458 51.9064 37.0328 50.964 37.0399 49.9808V43.8608C37.0423 42.9715 37.3573 42.1113 37.9299 41.4308C38.4959 40.7594 39.2833 40.3125 40.1499 40.1708L40.8199 40.0708V49.9808C40.8205 51.9806 40.0379 53.9009 38.6399 55.3308C37.9518 56.0315 37.132 56.5893 36.2275 56.972C35.3231 57.3547 34.352 57.5548 33.3699 57.5608L16.1699 57.5808Z" fill="#0D2B4D"/>
<path d="M30.6998 50.0807V45.0807L28.4597 47.8008L26.2197 45.0807V50.0807H23.2197V40.2908H26.0297L28.4297 43.4407L30.8297 40.2908H33.6397V50.0807H30.6998Z" fill="#0D2B4D"/>
</svg>
