<svg width="167" height="90" viewBox="0 0 167 90" fill="none" xmlns="http://www.w3.org/2000/svg">
<rect width="166.5" height="90" fill="white"/>
<path d="M92.608 17.0464C95.1276 21.6438 99.2934 31.5013 94.6156 39.9433C92.9688 43.1654 90.7356 46.0521 88.0306 48.4556C85.9226 50.403 83.9251 52.2701 80.8936 58.9856C81.6364 59.0559 82.3892 59.096 83.1421 59.096C88.1646 59.1117 93.0425 57.4149 96.971 54.2854C100.899 51.1559 103.644 46.7808 104.751 41.8819C105.859 36.9829 105.263 31.8528 103.063 27.3378C100.863 22.8228 97.1891 19.1927 92.6482 17.0464H92.608Z" fill="#0D2B4D"/>
<path d="M73.225 33.75C73.3498 33.534 73.4092 33.2864 73.3956 33.0373V32.8867C73.4108 32.6406 73.3513 32.3957 73.225 32.184C73.1699 32.1026 73.0948 32.0367 73.0069 31.9928C72.919 31.9488 72.8212 31.9283 72.7231 31.9331C72.6278 31.9288 72.533 31.9497 72.4484 31.9938C72.3638 32.0379 72.2924 32.1035 72.2412 32.184C72.1078 32.3893 72.0445 32.6323 72.0606 32.8766V33.0373C72.0473 33.2831 72.1066 33.5275 72.2312 33.7399C72.289 33.8187 72.3646 33.8829 72.4518 33.927C72.539 33.9712 72.6353 33.9943 72.7331 33.9943C72.8309 33.9943 72.9272 33.9712 73.0144 33.927C73.1016 33.8829 73.1772 33.8187 73.235 33.7399L73.225 33.75Z" fill="#0D2B4D"/>
<path d="M84.216 31.9326C84.1194 31.9285 84.0233 31.9495 83.9371 31.9935C83.851 32.0375 83.7776 32.1029 83.7242 32.1835C83.5907 32.3888 83.5274 32.6318 83.5435 32.8762V33.0368C83.528 33.2842 83.5913 33.5301 83.7242 33.7394C83.7806 33.8202 83.8557 33.8861 83.9431 33.9317C84.0304 33.9772 84.1275 34.001 84.2261 34.001C84.3246 34.001 84.4217 33.9772 84.5091 33.9317C84.5964 33.8861 84.6715 33.8202 84.728 33.7394C84.8575 33.5253 84.9171 33.2762 84.8986 33.0267V32.8762C84.9184 32.6297 84.8586 32.3834 84.728 32.1735C84.6715 32.0916 84.5945 32.0262 84.5045 31.9839C84.4146 31.9416 84.315 31.9239 84.216 31.9326Z" fill="#0D2B4D"/>
<path d="M86.4948 37.7954C86.3994 37.7922 86.3045 37.8124 86.2188 37.8544C86.133 37.8964 86.0589 37.9589 86.003 38.0363C85.8714 38.2462 85.8082 38.4917 85.8222 38.739V38.8996C85.8082 39.1469 85.8714 39.3924 86.003 39.6023C86.0564 39.6829 86.1298 39.7484 86.2159 39.7923C86.3021 39.8363 86.3982 39.8572 86.4948 39.8532C86.5907 39.8593 86.6865 39.8403 86.7728 39.7981C86.859 39.7558 86.9328 39.6918 86.9867 39.6123C87.1197 39.3994 87.1829 39.1502 87.1674 38.8996V38.7491C87.1842 38.5015 87.1209 38.2551 86.9867 38.0464C86.934 37.965 86.8607 37.899 86.7744 37.855C86.6881 37.8109 86.5916 37.7904 86.4948 37.7954Z" fill="#0D2B4D"/>
<path d="M79.1973 37.9457C79.1448 37.9015 79.0841 37.8681 79.0186 37.8475C78.9532 37.8268 78.8842 37.8192 78.8159 37.8252H78.314V38.7588H78.8058C78.9447 38.7639 79.0806 38.7174 79.1873 38.6283C79.2337 38.5868 79.2704 38.5357 79.2947 38.4784C79.319 38.4211 79.3303 38.3592 79.3278 38.297C79.3306 38.2327 79.3205 38.1685 79.2981 38.1081C79.2757 38.0478 79.2414 37.9926 79.1973 37.9457Z" fill="#0D2B4D"/>
<path d="M77.521 33.3182H78.324L77.9225 32.1638L77.521 33.3182Z" fill="#0D2B4D"/>
<path d="M90.741 16.2536C87.8567 15.2194 84.7887 14.7968 81.7322 15.0126C78.6757 15.2284 75.6975 16.0779 72.9871 17.5071C70.2767 18.9362 67.8934 20.9138 65.9887 23.314C64.084 25.7142 62.6996 28.4845 61.9236 31.4487C61.1476 34.4129 60.9969 37.5062 61.4812 40.5318C61.9654 43.5574 63.074 46.4491 64.7364 49.0231C66.3989 51.597 68.5788 53.7968 71.1374 55.4826C73.6961 57.1684 76.5776 58.3034 79.5987 58.8152C82.8109 51.5978 84.9289 49.6203 87.1574 47.5625C89.7657 45.2426 91.9204 42.4583 93.5115 39.3513C98.4101 30.5579 92.7988 19.7067 90.741 16.2536ZM81.9275 31.5717H82.4094V34.3523H81.9275V31.5717ZM74.7101 31.5717L75.4028 33.74L76.1154 31.5717H76.6274L75.6236 34.3523H75.1518L74.148 31.5717H74.7101ZM65.0534 40.2146H64.5817V37.434H65.0635L65.0534 40.2146ZM65.0534 34.3523H64.5817V31.5717H65.0635L65.0534 34.3523ZM67.9947 40.2146H67.5128L66.2781 38.2069V40.2146H65.7963V37.434H66.2781L67.5228 39.4416V37.434H67.9947V40.2146ZM67.9947 34.3523H67.5128L66.2781 32.3447V34.3523H65.7963V31.5717H66.2781L67.5228 33.5794V31.5717H67.9947V34.3523ZM69.2193 34.3523H68.7375V31.5717H69.2193L70.464 33.5794V31.5717H70.9358V34.3523H70.4539L69.2193 32.3447V34.3523ZM71.8292 40.2146H71.3473L70.1026 38.2069V40.2146H69.6007V37.434H70.0825L71.3273 39.4416V37.434H71.8091L71.8292 40.2146ZM71.7188 33.75C71.6221 33.5286 71.5742 33.2889 71.5782 33.0473V32.8968C71.5702 32.6484 71.6183 32.4013 71.7188 32.174C71.8048 31.9817 71.9442 31.818 72.1203 31.7022C72.3011 31.59 72.5098 31.5309 72.7226 31.5316C72.9341 31.5299 73.1423 31.5854 73.3249 31.6922C73.5043 31.8069 73.6471 31.9706 73.7364 32.164C73.8321 32.3893 73.88 32.632 73.877 32.8767V33.0373C73.8859 33.2826 73.8378 33.5265 73.7364 33.75C73.6508 33.9427 73.5114 34.1065 73.3349 34.2218C73.1545 34.3351 72.9456 34.3943 72.7326 34.3925C72.5194 34.3961 72.31 34.3367 72.1303 34.2218C71.9485 34.1099 71.805 33.9453 71.7188 33.75ZM74.6097 39.291C74.6152 39.4223 74.592 39.5532 74.5417 39.6745C74.4914 39.7959 74.4153 39.9048 74.3186 39.9937C74.1115 40.1759 73.8412 40.2696 73.5658 40.2547C73.2907 40.2675 73.0211 40.174 72.8129 39.9937C72.717 39.9047 72.642 39.7955 72.5933 39.674C72.5447 39.5525 72.5237 39.4217 72.5318 39.291V37.434H73.0137V39.291C73.0054 39.3673 73.0136 39.4445 73.0378 39.5172C73.0621 39.59 73.1018 39.6567 73.1542 39.7127C73.2082 39.7655 73.2728 39.8063 73.3438 39.8323C73.4147 39.8582 73.4904 39.8688 73.5658 39.8632C73.6439 39.8738 73.7234 39.8659 73.7978 39.84C73.8723 39.8142 73.9396 39.7712 73.9943 39.7145C74.049 39.6578 74.0896 39.589 74.1128 39.5137C74.1361 39.4384 74.1412 39.3587 74.1279 39.281V37.434H74.6198L74.6097 39.291ZM77.31 37.8255H76.4367V40.2146H75.9649V37.8255H75.1016V37.434H77.31V37.8255ZM77.1594 34.3523H76.6274L77.6814 31.5717H78.113L79.1168 34.3523H78.6049L78.3841 33.6998H77.31L77.1594 34.3523ZM79.9199 40.2146H79.408L78.8458 39.1405H78.3138V40.2146H77.8219V37.434H78.8257C79.0901 37.4178 79.3521 37.4921 79.5686 37.6448C79.6559 37.7245 79.7246 37.8225 79.7698 37.9318C79.8149 38.0411 79.8353 38.1591 79.8296 38.2772C79.8339 38.4423 79.7846 38.6043 79.689 38.739C79.5958 38.8698 79.4669 38.9709 79.3176 39.0301L79.94 40.1844L79.9199 40.2146ZM80.9237 40.2146H80.4419V37.434H80.9237V40.2146ZM81.3855 31.9632H80.5121V34.3523H80.0404V31.9632H79.1771V31.5717H81.3855V31.9632ZM83.6641 37.8255H82.8009V40.2146H82.319V37.8255H81.4557V37.434H83.6541L83.6641 37.8255ZM84.6679 40.2146H84.1861V37.434H84.6579L84.6679 40.2146ZM84.7984 34.1917C84.6188 34.3066 84.4093 34.3659 84.1961 34.3623C83.9833 34.3631 83.7746 34.3039 83.5938 34.1917C83.4148 34.0766 83.2721 33.913 83.1823 33.7199C83.0857 33.4985 83.0377 33.2588 83.0418 33.0172V32.8667C83.0388 32.6187 83.0866 32.3727 83.1823 32.1439C83.2685 31.9486 83.412 31.7841 83.5938 31.6721C83.7735 31.5573 83.9829 31.4979 84.1961 31.5015C84.4074 31.5022 84.6149 31.5575 84.7984 31.6621C84.9749 31.7774 85.1143 31.9412 85.1999 32.1339C85.3002 32.3577 85.3483 32.6014 85.3405 32.8466V33.0072C85.3494 33.2525 85.3013 33.4964 85.1999 33.7199C85.13 33.9238 84.9962 34.0998 84.8185 34.2218L84.7984 34.1917ZM87.6292 38.8695C87.6322 39.1142 87.5843 39.3569 87.4886 39.5822C87.3994 39.7755 87.2565 39.9393 87.077 40.0539C86.8974 40.1688 86.688 40.2282 86.4748 40.2246C86.262 40.2253 86.0533 40.1662 85.8725 40.0539C85.6923 39.943 85.5517 39.7778 85.471 39.5822C85.3663 39.363 85.3147 39.1223 85.3204 38.8795V38.7289C85.3174 38.4809 85.3652 38.235 85.4609 38.0062C85.5472 37.8108 85.6907 37.6463 85.8725 37.5344C86.0521 37.4195 86.2616 37.3602 86.4748 37.3637C86.686 37.3644 86.8935 37.4198 87.077 37.5244C87.2535 37.6397 87.393 37.8035 87.4786 37.9961C87.5824 38.2192 87.6339 38.4629 87.6292 38.7088V38.8695ZM88.1913 34.3222H87.7094L86.4647 32.3146V34.3222H85.9829V31.5416H86.4647L87.7094 33.5492V31.5416H88.1913V34.3222ZM90.4699 40.1844H89.9881L88.7434 38.1768V40.1844H88.2616V37.4039H88.7434L89.9881 39.4115V37.4039H90.4699V40.1844Z" fill="#0D2B4D"/>
<path d="M46.5834 64.5264C46.5648 64.3549 46.5846 64.1813 46.6413 64.0184C46.698 63.8554 46.7902 63.7071 46.9113 63.5841C47.0323 63.4612 47.1791 63.3666 47.3412 63.3074C47.5032 63.2481 47.6764 63.2256 47.8482 63.2415H50.7392C53.2588 63.2415 54.8247 64.3758 54.8247 66.9556C54.8247 68.7625 53.4596 69.7964 51.8133 70.0574L54.6039 73.0688C54.8027 73.2585 54.9212 73.5172 54.9351 73.7916C54.9392 74.0461 54.8652 74.2958 54.723 74.5069C54.5808 74.7181 54.3773 74.8805 54.1399 74.9724C53.9025 75.0643 53.6427 75.0812 53.3954 75.0208C53.1481 74.9605 52.9252 74.8257 52.7568 74.6348L49.1131 70.218V73.7815C49.1285 73.9523 49.1082 74.1245 49.0534 74.287C48.9986 74.4496 48.9106 74.5989 48.7949 74.7255C48.6792 74.8522 48.5384 74.9533 48.3815 75.0225C48.2245 75.0917 48.0549 75.1274 47.8833 75.1274C47.7118 75.1274 47.5422 75.0917 47.3852 75.0225C47.2283 74.9533 47.0875 74.8522 46.9718 74.7255C46.8561 74.5989 46.7681 74.4496 46.7133 74.287C46.6585 74.1245 46.6383 73.9523 46.6537 73.7815L46.5834 64.5264ZM49.0428 68.4111H50.7392C50.9383 68.4301 51.1391 68.406 51.3281 68.3405C51.517 68.2751 51.6897 68.1697 51.8344 68.0317C51.9791 67.8937 52.0924 67.7261 52.1667 67.5405C52.241 67.3548 52.2745 67.1553 52.265 66.9556C52.2764 66.7558 52.2442 66.5559 52.1704 66.3698C52.0966 66.1838 51.9831 66.0161 51.8378 65.8785C51.6925 65.7408 51.519 65.6366 51.3292 65.5729C51.1395 65.5093 50.9381 65.4879 50.7392 65.5101H49.0428V68.4111Z" fill="#0D2B4D"/>
<path d="M59.3818 75.1267C57.4746 75.1267 56.1094 74.1229 56.1094 72.306C56.1094 69.5757 59.3115 69.2344 61.4998 69.2344V68.6321C61.4998 68.1804 61.1184 68.0097 60.496 68.0097C59.1108 68.0097 58.8699 68.8128 58.2475 68.8128C57.9813 68.8128 57.726 68.707 57.5377 68.5188C57.3495 68.3305 57.2437 68.0752 57.2437 67.809C57.2437 66.8553 59.1309 66.0322 60.5262 66.0322C62.7044 66.0322 63.9191 66.9658 63.9191 68.6723V73.7917C63.9299 73.9505 63.9086 74.1099 63.8565 74.2604C63.8044 74.4108 63.7225 74.5492 63.6157 74.6673C63.5088 74.7853 63.3793 74.8806 63.2348 74.9475C63.0903 75.0144 62.9338 75.0514 62.7747 75.0565C62.5128 75.0878 62.2491 75.0149 62.0406 74.8533C61.8321 74.6918 61.6955 74.4546 61.6605 74.1932C61.3764 74.5116 61.0236 74.761 60.6288 74.9228C60.234 75.0845 59.8076 75.1543 59.3818 75.1267ZM59.8034 73.1191C60.0457 73.1537 60.2926 73.1318 60.525 73.0551C60.7574 72.9784 60.9689 72.8489 61.1429 72.6768C61.3169 72.5047 61.4487 72.2947 61.5281 72.0632C61.6074 71.8317 61.6321 71.585 61.6003 71.3424V70.971C60.1648 70.971 58.378 70.8204 58.378 72.2659C58.378 72.9485 59.1007 73.1593 59.8034 73.1593V73.1191Z" fill="#0D2B4D"/>
<path d="M71.8394 68.6323C71.2472 68.6323 70.7252 68.1705 69.9623 68.1705C68.6172 68.1705 67.9547 69.365 67.9547 70.5797C67.9257 70.8685 67.9552 71.1603 68.0411 71.4376C68.1271 71.7149 68.2679 71.9721 68.4551 72.194C68.6423 72.4159 68.8722 72.5979 69.1311 72.7292C69.39 72.8606 69.6727 72.9386 69.9623 72.9587C70.5589 72.8373 71.146 72.6729 71.719 72.4668C71.9852 72.4668 72.2405 72.5726 72.4287 72.7608C72.617 72.9491 72.7228 73.2044 72.7228 73.4706C72.7228 74.6852 70.7151 75.0968 69.8318 75.0968C69.2509 75.0897 68.6775 74.9648 68.1463 74.7297C67.6151 74.4947 67.137 74.1544 66.7411 73.7293C66.3451 73.3043 66.0394 72.8033 65.8426 72.2568C65.6457 71.7102 65.5618 71.1295 65.5957 70.5495C65.5715 69.9704 65.6621 69.3922 65.8622 68.8482C66.0623 68.3042 66.368 67.8052 66.7617 67.3798C67.1554 66.9544 67.6293 66.611 68.1562 66.3694C68.6831 66.1278 69.2525 65.9928 69.8318 65.9722C70.7653 65.9722 72.7228 66.3135 72.7228 67.4678C72.7428 67.9898 72.3915 68.6323 71.8394 68.6323Z" fill="#0D2B4D"/>
<path d="M76.8886 63.8539C76.8887 64.2099 76.7487 64.5516 76.4989 64.8051C76.249 65.0587 75.9095 65.2038 75.5536 65.2091C75.201 65.1962 74.8669 65.0484 74.6203 64.7962C74.3737 64.544 74.2334 64.2066 74.2285 63.8539C74.2575 63.5211 74.4101 63.2113 74.6563 62.9855C74.9026 62.7598 75.2245 62.6345 75.5586 62.6345C75.8926 62.6345 76.2146 62.7598 76.4608 62.9855C76.707 63.2113 76.8597 63.5211 76.8886 63.8539ZM74.3691 67.4175C74.3471 67.249 74.3613 67.0777 74.4108 66.9152C74.4603 66.7526 74.5438 66.6025 74.6559 66.4748C74.768 66.3471 74.9061 66.2448 75.0609 66.1747C75.2157 66.1046 75.3836 66.0684 75.5536 66.0684C75.7235 66.0684 75.8914 66.1046 76.0462 66.1747C76.201 66.2448 76.3391 66.3471 76.4512 66.4748C76.5633 66.6025 76.6469 66.7526 76.6964 66.9152C76.7458 67.0777 76.76 67.249 76.738 67.4175V73.7114C76.76 73.8798 76.7458 74.0511 76.6964 74.2137C76.6469 74.3762 76.5633 74.5263 76.4512 74.654C76.3391 74.7817 76.201 74.884 76.0462 74.9541C75.8914 75.0242 75.7235 75.0604 75.5536 75.0604C75.3836 75.0604 75.2157 75.0242 75.0609 74.9541C74.9061 74.884 74.768 74.7817 74.6559 74.654C74.5438 74.5263 74.4603 74.3762 74.4108 74.2137C74.3613 74.0511 74.3471 73.8798 74.3691 73.7114V67.4175Z" fill="#0D2B4D"/>
<path d="M86.9466 70.5799C86.9866 71.1607 86.9067 71.7435 86.7119 72.2922C86.5171 72.8408 86.2116 73.3436 85.8143 73.7692C85.4171 74.1948 84.9366 74.5341 84.4026 74.7661C83.8686 74.9981 83.2926 75.1178 82.7104 75.1178C82.1283 75.1178 81.5523 74.9981 81.0184 74.7661C80.4844 74.5341 80.0038 74.1948 79.6066 73.7692C79.2093 73.3436 78.9038 72.8408 78.709 72.2922C78.5142 71.7435 78.4344 71.1607 78.4744 70.5799C78.4344 69.9991 78.5142 69.4162 78.709 68.8676C78.9038 68.319 79.2093 67.8162 79.6066 67.3906C80.0038 66.9651 80.4844 66.6257 81.0184 66.3937C81.5523 66.1617 82.1283 66.042 82.7104 66.042C83.2926 66.042 83.8686 66.1617 84.4026 66.3937C84.9366 66.6257 85.4171 66.9651 85.8143 67.3906C86.2116 67.8162 86.5171 68.319 86.7119 68.8676C86.9067 69.4162 86.9866 69.9991 86.9466 70.5799ZM80.8434 70.5799C80.8434 71.7142 81.4356 72.9589 82.7104 72.9589C83.9853 72.9589 84.5775 71.7142 84.5775 70.5799C84.5775 69.4456 84.0054 68.1708 82.7104 68.1708C81.4155 68.1708 80.8434 69.4456 80.8434 70.5799Z" fill="#0D2B4D"/>
<path d="M88.7434 67.4175C88.7266 67.2517 88.7447 67.0841 88.7965 66.9257C88.8483 66.7673 88.9327 66.6214 89.0443 66.4976C89.1558 66.3737 89.2921 66.2746 89.4443 66.2065C89.5965 66.1385 89.7612 66.1031 89.9279 66.1025C90.1849 66.0795 90.4409 66.1563 90.6428 66.3171C90.8447 66.4778 90.9769 66.7101 91.012 66.9658C91.275 66.6184 91.6223 66.3438 92.021 66.1682C92.4198 65.9925 92.8568 65.9215 93.2906 65.962C93.719 65.9297 94.1494 65.9895 94.5528 66.1373C94.9562 66.2851 95.3234 66.5175 95.6295 66.8189C95.9357 67.1203 96.1737 67.4837 96.3278 67.8848C96.4819 68.2858 96.5485 68.7152 96.5229 69.1441V73.6712C96.5381 73.8353 96.5188 74.0007 96.4664 74.1569C96.414 74.313 96.3297 74.4566 96.2187 74.5783C96.1077 74.7 95.9725 74.7973 95.8218 74.8638C95.6711 74.9303 95.5082 74.9647 95.3435 74.9647C95.1787 74.9647 95.0158 74.9303 94.8651 74.8638C94.7144 74.7973 94.5792 74.7 94.4682 74.5783C94.3572 74.4566 94.2728 74.313 94.2204 74.1569C94.168 74.0007 94.1488 73.8353 94.1639 73.6712V69.6359C94.1811 69.4245 94.1542 69.2118 94.0851 69.0112C94.0159 68.8107 93.906 68.6266 93.7621 68.4707C93.6183 68.3147 93.4438 68.1903 93.2494 68.1051C93.0551 68.02 92.8453 67.976 92.6332 67.976C92.421 67.976 92.2112 68.02 92.0169 68.1051C91.8226 68.1903 91.6479 68.3147 91.5041 68.4707C91.3603 68.6266 91.2504 68.8107 91.1812 69.0112C91.1121 69.2118 91.0852 69.4245 91.1023 69.6359V73.7516C91.1175 73.9156 91.0983 74.081 91.0459 74.2372C90.9935 74.3934 90.9091 74.5369 90.7981 74.6586C90.6871 74.7803 90.5519 74.8776 90.4012 74.9441C90.2505 75.0106 90.0876 75.045 89.9229 75.045C89.7581 75.045 89.5952 75.0106 89.4445 74.9441C89.2938 74.8776 89.1586 74.7803 89.0476 74.6586C88.9366 74.5369 88.8523 74.3934 88.7999 74.2372C88.7475 74.081 88.7282 73.9156 88.7434 73.7516V67.4175Z" fill="#0D2B4D"/>
<path d="M101.191 63.8539C101.191 64.2099 101.051 64.5516 100.801 64.8051C100.551 65.0587 100.212 65.2038 99.8558 65.2091C99.5033 65.1962 99.1692 65.0484 98.9226 64.7962C98.676 64.544 98.5357 64.2066 98.5308 63.8539C98.5597 63.5211 98.7124 63.2113 98.9586 62.9855C99.2048 62.7598 99.5268 62.6345 99.8608 62.6345C100.195 62.6345 100.517 62.7598 100.763 62.9855C101.009 63.2113 101.162 63.5211 101.191 63.8539ZM98.6813 67.4175C98.6661 67.2534 98.6854 67.0881 98.7378 66.9319C98.7902 66.7757 98.8746 66.6321 98.9856 66.5104C99.0966 66.3887 99.2317 66.2915 99.3824 66.2249C99.5331 66.1584 99.6961 66.1241 99.8608 66.1241C100.026 66.1241 100.188 66.1584 100.339 66.2249C100.49 66.2915 100.625 66.3887 100.736 66.5104C100.847 66.6321 100.931 66.7757 100.984 66.9319C101.036 67.0881 101.055 67.2534 101.04 67.4175V73.7114C101.055 73.8754 101.036 74.0408 100.984 74.197C100.931 74.3531 100.847 74.4967 100.736 74.6184C100.625 74.7401 100.49 74.8374 100.339 74.9039C100.188 74.9704 100.026 75.0048 99.8608 75.0048C99.6961 75.0048 99.5331 74.9704 99.3824 74.9039C99.2317 74.8374 99.0966 74.7401 98.9856 74.6184C98.8746 74.4967 98.7902 74.3531 98.7378 74.197C98.6854 74.0408 98.6661 73.8754 98.6813 73.7114V67.4175Z" fill="#0D2B4D"/>
<path d="M103.188 67.4179C103.166 67.2494 103.18 67.0782 103.23 66.9156C103.279 66.753 103.363 66.6029 103.475 66.4752C103.587 66.3475 103.725 66.2452 103.88 66.1751C104.035 66.1051 104.203 66.0688 104.373 66.0688C104.543 66.0688 104.711 66.1051 104.865 66.1751C105.02 66.2452 105.158 66.3475 105.27 66.4752C105.383 66.6029 105.466 66.753 105.516 66.9156C105.565 67.0782 105.579 67.2494 105.557 67.4179V69.5761L108.147 66.5647C108.282 66.4139 108.445 66.2917 108.628 66.2055C108.811 66.1192 109.009 66.0707 109.211 66.0627C109.348 66.0625 109.484 66.0903 109.61 66.1445C109.736 66.1986 109.849 66.278 109.943 66.3777C110.037 66.4774 110.11 66.5953 110.156 66.7241C110.203 66.853 110.223 66.99 110.215 67.1268C110.19 67.4868 110.024 67.8224 109.753 68.0603L107.555 70.3089L110.426 73.0894C110.526 73.1927 110.605 73.3154 110.657 73.45C110.708 73.5846 110.732 73.7283 110.727 73.8724C110.728 74.0199 110.7 74.1663 110.644 74.3027C110.588 74.4392 110.505 74.563 110.4 74.6669C110.295 74.7708 110.171 74.8526 110.034 74.9075C109.897 74.9624 109.75 74.9893 109.603 74.9866C109.181 74.9866 108.84 74.6453 108.478 74.2639L105.587 71.2524V73.7218C105.609 73.8903 105.595 74.0615 105.546 74.2241C105.496 74.3867 105.413 74.5368 105.3 74.6645C105.188 74.7922 105.05 74.8945 104.896 74.9645C104.741 75.0346 104.573 75.0709 104.403 75.0709C104.233 75.0709 104.065 75.0346 103.91 74.9645C103.755 74.8945 103.617 74.7922 103.505 74.6645C103.393 74.5368 103.31 74.3867 103.26 74.2241C103.211 74.0615 103.196 73.8903 103.218 73.7218L103.188 67.4179Z" fill="#0D2B4D"/>
<path d="M115.154 75.1267C113.247 75.1267 111.881 74.1229 111.881 72.306C111.881 69.5757 115.083 69.2344 117.262 69.2344V68.6321C117.262 68.1804 116.89 68.0097 116.258 68.0097C114.883 68.0097 114.642 68.8128 114.009 68.8128C113.743 68.8128 113.488 68.707 113.3 68.5188C113.111 68.3305 113.006 68.0752 113.006 67.809C113.006 66.8553 114.893 66.0322 116.278 66.0322C118.466 66.0322 119.681 66.9658 119.681 68.6723V73.7917C119.692 73.9514 119.67 74.1116 119.618 74.2627C119.565 74.4138 119.482 74.5526 119.374 74.6708C119.266 74.789 119.135 74.8841 118.99 74.9504C118.844 75.0167 118.687 75.0528 118.527 75.0565C118.265 75.0878 118.001 75.0149 117.792 74.8533C117.584 74.6918 117.447 74.4546 117.412 74.1932C117.131 74.51 116.782 74.7586 116.391 74.9204C115.999 75.0821 115.576 75.1527 115.154 75.1267ZM115.575 73.1191C115.817 73.1541 116.064 73.1324 116.296 73.0557C116.528 72.9789 116.739 72.8493 116.912 72.6769C117.086 72.5046 117.217 72.2943 117.295 72.0627C117.373 71.8311 117.396 71.5845 117.362 71.3424V70.971C115.937 70.971 114.15 70.8204 114.15 72.2659C114.15 72.9485 114.873 73.1593 115.575 73.1593V73.1191Z" fill="#0D2B4D"/>
</svg>
