<svg width="181" height="25" viewBox="0 0 181 25" fill="none" xmlns="http://www.w3.org/2000/svg">
<path d="M0 0.537807H5.09622V24.4622H0V0.537807Z" fill="#0D2B4D"/>
<path d="M11.0483 0.537807H18.6085C21.4828 0.537807 23.7029 1.13596 25.2687 2.33228C26.9943 3.67371 27.8565 5.46695 27.8552 7.71202C27.8552 10.1998 26.8364 12.0765 24.7986 13.3424C23.9258 13.8791 22.9531 14.2332 21.9395 14.3832L30.0887 24.4622H23.7413L16.7683 14.8497H16.1409V24.4622H11.0483V0.537807ZM16.1409 4.34076V11.5497H17.5915C18.0041 11.5504 18.4162 11.5204 18.8244 11.4601C19.3627 11.3681 19.8934 11.236 20.4121 11.065C21.0464 10.8741 21.6025 10.4841 21.9981 9.95282C22.419 9.36293 22.6325 8.65019 22.6054 7.92604C22.6326 7.20546 22.4267 6.49532 22.0182 5.90109C21.6327 5.36749 21.0815 4.97643 20.4506 4.78892C19.9397 4.61876 19.4153 4.49269 18.8829 4.4121C18.4798 4.36384 18.0742 4.34002 17.6683 4.34076H16.1409Z" fill="#0D2B4D"/>
<path d="M36.1803 3.51577C38.7778 1.17314 42.1271 0.00122043 46.2282 9.5074e-07C50.3293 -0.00121853 53.6793 1.1707 56.278 3.51577C58.8779 5.85961 60.1773 8.86015 60.1761 12.5174C60.1748 16.1746 58.8755 19.1697 56.278 21.5025C53.678 23.8354 50.3281 25.0012 46.2282 25C42.1283 24.9988 38.779 23.833 36.1803 21.5025C33.5816 19.1721 32.2822 16.177 32.2822 12.5174C32.2822 8.85771 33.5816 5.85717 36.1803 3.51577ZM39.9613 18.455C41.5796 19.9977 43.6685 20.7684 46.2282 20.7672C48.7879 20.766 50.8775 19.9952 52.497 18.455C54.1164 16.9124 54.9262 14.9332 54.9262 12.5174C54.9262 10.1016 54.1085 8.11687 52.4732 6.56325C50.8403 5.00963 48.7568 4.23283 46.2227 4.23283C43.6887 4.23283 41.6076 5.00963 39.9796 6.56325C38.3479 8.11809 37.5321 10.1028 37.5321 12.5174C37.5321 14.932 38.3418 16.9112 39.9613 18.455Z" fill="#0D2B4D"/>
<path d="M69.9695 24.4622H64.877V0H68.4019L84.3161 16.6459V0.548767H89.4087V24.9287H85.8764L69.9622 8.28273L69.9695 24.4622Z" fill="#52AEFB"/>
<path d="M94.0239 24.4622L98.8823 0.107925H102.411L109.501 15.746L116.906 0.107925H120.432L124.823 24.4622H119.646L117.295 9.72049L110.127 24.786H108.716L101.862 9.72049L99.1951 24.4622H94.0239Z" fill="#0D2B4D"/>
<path d="M147.227 24.4622L144.915 19.441H134.377L132.064 24.4622H126.542L137.863 0.0365562H141.704L152.715 24.4622H147.227ZM135.983 15.638H143.428L139.744 7.02968L135.983 15.638Z" fill="#0D2B4D"/>
<path d="M160.86 24.4622H155.768V0H159.3L175.214 16.6459V0.548767H180.307V24.9287H176.78L160.866 8.28273L160.86 24.4622Z" fill="#0D2B4D"/>
</svg>
