<svg width="95" height="46" viewBox="0 0 95 46" fill="none" xmlns="http://www.w3.org/2000/svg">
<path d="M94.7614 23.1381C94.7814 21.0469 94.505 18.9634 93.9405 16.9497C93.9405 16.9497 93.9405 16.7813 93.9405 16.6971V16.4867C93.751 15.8762 93.5615 15.2869 93.33 14.6975C93.0984 14.1081 92.93 13.7924 92.7405 13.3504C92.5511 12.9083 92.5721 12.9715 92.4669 12.782C92.2185 12.2704 91.9444 11.7716 91.6459 11.2875L91.4566 10.9508C91.1619 10.4666 90.8252 10.0036 90.4884 9.54049L90.278 9.2458C89.9412 8.80377 89.6044 8.40384 89.2466 8.0039C88.8887 7.60397 89.036 7.73026 88.9097 7.60397C88.7834 7.47767 88.2572 6.93041 87.8994 6.59362L87.3942 6.10949C87.0785 5.8148 86.7416 5.56222 86.4258 5.28858L85.6892 4.72026L84.7839 4.08879L84.1948 3.68887L83.9 3.52047L83.5632 3.30998L82.7844 2.91005L81.9002 2.44697L80.7638 1.96283L79.8585 1.605C79.4376 1.45766 79.0377 1.33136 78.6167 1.22612L77.7747 0.973541C77.3116 0.847247 76.8695 0.763052 76.4065 0.678856C75.9434 0.59466 75.9013 0.678845 75.6487 0.552551C75.3961 0.426257 74.6806 0.426253 74.1754 0.384155H73.4806H71.3757H70.0496H69.1868L68.0501 0.594658L67.0187 0.805145H66.8293C66.5346 0.805145 66.2399 0.973543 65.9662 1.05774L64.9349 1.37346C64.556 1.49976 64.177 1.66815 63.7981 1.81549L62.9353 2.17333L61.7354 2.78376C61.5038 2.91005 61.2513 3.0153 61.0198 3.16264C60.7882 3.30998 60.1987 3.66781 59.7988 3.94144L59.2096 4.34138C58.7886 4.63607 58.4096 4.95181 58.0096 5.26754L57.4834 5.68852C57.1045 6.0253 56.7256 6.40419 56.3678 6.76202L55.8837 7.22508C55.5048 7.62502 55.168 8.06706 54.8102 8.48804L54.4525 8.93007C53.9819 9.52165 53.5461 10.1401 53.1475 10.7824L92.2564 33.368C92.4248 33.0522 92.551 32.7155 92.6984 32.3997C93.1824 31.4123 93.5975 30.3925 93.9405 29.3476C94.5004 27.3258 94.7767 25.236 94.7614 23.1381Z" fill="#52AEFB"/>
<path d="M51.6107 13.519C51.5988 13.6099 51.5988 13.7019 51.6107 13.7927C51.3581 14.3399 51.1264 14.9083 50.916 15.4976C50.916 15.666 50.9161 15.8344 50.7687 16.0028C50.6003 16.508 50.4528 16.9921 50.3265 17.4973C50.2002 18.0025 50.3266 18.0025 50.1793 18.2551C50.0319 18.5077 49.9899 19.1181 49.9267 19.5391C49.8636 19.96 49.9267 20.1284 49.9267 20.4442C49.9267 20.7599 49.9266 21.2019 49.8003 21.5808V22.5912C49.8003 22.9279 49.8003 23.2858 49.8003 23.6436C49.8003 24.0014 49.8003 24.3803 49.8003 24.7382C49.8003 25.096 49.8003 25.3696 49.8003 25.6854C49.8003 26.0011 49.9478 26.5063 50.011 26.9062C50.0741 27.3061 50.0109 27.4535 50.1582 27.7061C50.3056 27.9587 50.3899 28.6322 50.5372 29.0953C50.5764 29.2941 50.6254 29.4908 50.6844 29.6847C50.8528 30.253 51.0634 30.8213 51.2949 31.3897L51.5475 31.9369C51.7791 32.4632 52.0106 32.9894 52.2842 33.4946C52.5578 33.9997 52.642 34.105 52.8104 34.3997C52.9788 34.6943 53.1472 34.989 53.3366 35.2627C53.5261 35.5363 53.7366 35.8099 53.9261 36.1046L54.5574 36.9466C54.7468 37.1992 54.9785 37.4097 55.1679 37.6623L55.9256 38.5042L56.5783 39.1147C56.873 39.4093 57.1464 39.683 57.4622 39.9566L58.1991 40.5249L59.104 41.2406C59.525 41.5353 59.967 41.8089 60.4091 42.0825C60.8511 42.3562 60.7248 42.293 60.8932 42.3983L61.4194 42.6509C61.8614 42.9035 62.3245 43.156 62.7876 43.3665C63.2507 43.577 63.5244 43.6612 63.8822 43.8086L64.7453 44.1454C65.1452 44.2927 65.545 44.3979 65.945 44.5242L66.7449 44.7558L67.9445 44.9873L68.7865 45.1557C69.1654 45.1557 69.5655 45.1557 69.9443 45.282L70.8493 45.3872H72.9542C74.3718 45.3567 75.7825 45.1804 77.164 44.861L77.543 44.7558C78.0903 44.6295 78.6165 44.5032 79.1428 44.3348L79.7743 44.1033C80.2164 43.9559 80.6373 43.8086 81.0794 43.6191L81.816 43.2823L82.9317 42.7561L83.7313 42.272C84.047 42.0826 84.384 41.9142 84.6997 41.7037L85.5417 41.0932L86.3624 40.5039C86.6782 40.2513 86.9519 39.9776 87.2466 39.7251C87.5413 39.4725 87.7098 39.3462 87.9203 39.1357C88.1308 38.9252 88.5727 38.4621 88.8885 38.1253L89.3725 37.6202C89.7304 37.2202 90.0461 36.7782 90.3829 36.3572C90.4763 36.215 90.582 36.0812 90.6986 35.9573L51.6107 13.519Z" fill="#52AEFB"/>
<path d="M44.2433 16.3185C42.5721 10.6702 38.7603 5.89833 33.6209 3.02035C28.4816 0.142364 22.4212 -0.613961 16.7321 0.912637C11.0431 2.43924 6.17555 6.12796 3.16742 11.1922C0.159288 16.2565 -0.751432 22.2956 0.629565 28.0218L44.2433 16.3185Z" fill="#52AEFB"/>
<path d="M1.49316 30.8211C3.46314 36.0789 7.32097 40.4144 12.3142 42.9822C17.3074 45.5499 23.0779 46.1657 28.5005 44.7095C33.9231 43.2533 38.6091 39.8295 41.6443 35.1058C44.6795 30.3821 45.8463 24.6973 44.9173 19.1599L1.49316 30.8211Z" fill="#52AEFB"/>
</svg>
