<svg width="41" height="95" viewBox="0 0 41 95" fill="none" xmlns="http://www.w3.org/2000/svg">
<path d="M20.2913 0C17.6248 -1.43466e-06 14.9845 0.525543 12.5212 1.54659C10.058 2.56764 7.82021 4.06416 5.93572 5.95061C4.05123 7.83706 2.5571 10.0764 1.5386 12.5407C0.520111 15.005 -0.00275512 17.6458 1.09173e-05 20.3123V74.4293C1.09173e-05 79.8109 2.13782 84.9721 5.94317 88.7774C9.74852 92.5827 14.9097 94.7206 20.2913 94.7206C25.6729 94.7206 30.8341 92.5827 34.6394 88.7774C38.4448 84.9721 40.5826 79.8109 40.5826 74.4293V20.3544C40.5881 17.6852 40.0674 15.041 39.0504 12.5732C38.0334 10.1053 36.5401 7.86201 34.6556 5.97165C32.7711 4.08129 30.5325 2.5809 28.0678 1.55624C25.603 0.531583 22.9605 0.0027603 20.2913 0ZM5.0729 20.2492C5.0729 16.0394 7.49339 7.80919 16.5024 6.4831C16.7211 6.4473 16.9447 6.45556 17.1601 6.50741C17.3756 6.55927 17.5786 6.65366 17.757 6.78504C17.9355 6.91643 18.0857 7.08215 18.1992 7.27249C18.3127 7.46282 18.3871 7.67392 18.4179 7.89338C18.4843 8.33989 18.3709 8.79452 18.1026 9.15754C17.8343 9.52056 17.4328 9.76234 16.9865 9.82989C8.56684 11.0718 8.56698 19.8913 8.44069 20.3544V40.9403C8.44069 41.3869 8.26315 41.8152 7.94735 42.131C7.63155 42.4468 7.20327 42.6243 6.75666 42.6243C6.31006 42.6243 5.88177 42.4468 5.56597 42.131C5.25018 41.8152 5.0729 41.3869 5.0729 40.9403V20.2492ZM37.1937 74.4293C37.1937 78.9149 35.4118 83.2167 32.24 86.3885C29.0683 89.5603 24.7663 91.3422 20.2808 91.3422C15.7952 91.3422 11.4932 89.5603 8.32146 86.3885C5.14968 83.2167 3.3678 78.9149 3.3678 74.4293V64.3468C3.3678 59.8613 5.14968 55.5594 8.32146 52.3876C11.4932 49.2158 15.7952 47.434 20.2808 47.434C24.7663 47.434 29.0683 49.2158 32.24 52.3876C35.4118 55.5594 37.1937 59.8613 37.1937 64.3468V74.4293Z" fill="#52AEFB"/>
</svg>
