<svg width="46" height="96" viewBox="0 0 46 96" fill="none" xmlns="http://www.w3.org/2000/svg">
<path d="M5.91477 95.1827L2.33647 31.6778H0V29.5729H1.45239V28.4574L1.99968 24.2475L2.8837 23.2582H43.0242L43.8241 24.2475L44.2661 29.5308H45.8237V31.6357H43.8241L39.9089 95.1827H5.91477ZM4.79917 21.6796V18.417C4.61477 17.2514 4.75309 16.0575 5.19911 14.9649C5.38894 14.516 5.67634 14.115 6.04041 13.791C6.40449 13.467 6.83612 13.228 7.30401 13.0916V8.37659L25.9324 0.462158H41.3192V3.32483H25.9324L14.6291 7.8714L16.5656 9.97631H27.5953V8.33448H38.1198V12.5443C39.1515 12.9271 40.0406 13.6179 40.6667 14.5229C41.2606 15.9007 41.4645 17.4153 41.2561 18.9011V21.6585L4.79917 21.6796ZM26.7533 7.28203V4.67196H38.7933V7.30309L26.7533 7.28203Z" fill="#52AEFB"/>
</svg>
