<svg width="39" height="95" viewBox="0 0 39 95" fill="none" xmlns="http://www.w3.org/2000/svg">
<path d="M37.9107 86.9324C37.2572 84.3923 36.1675 81.985 34.6901 79.8179V61.0632V13.8292C35.9347 12.0102 36.9195 10.0265 37.616 7.93549C38.1814 5.7939 38.4366 3.58226 38.3737 1.36819C37.9877 1.71907 37.4851 1.91411 36.9635 1.91547C36.5514 1.92282 36.1463 1.80906 35.7983 1.5883C35.4504 1.36753 35.1748 1.04947 35.0059 0.673568H34.6481C34.4856 1.05734 34.2128 1.38424 33.8643 1.61282C33.5158 1.8414 33.1073 1.96138 32.6906 1.95756C32.2762 1.96313 31.8693 1.84625 31.5211 1.62159C31.1729 1.39692 30.8988 1.07446 30.733 0.694621H30.3751C30.2094 1.07446 29.9353 1.39692 29.5871 1.62159C29.2388 1.84625 28.832 1.96313 28.4176 1.95756C27.9924 1.96221 27.5758 1.83801 27.2226 1.6013C26.8695 1.3646 26.5962 1.02648 26.439 0.631477C26.3276 0.651595 26.2136 0.651595 26.1022 0.631477C25.9365 1.01132 25.6623 1.33377 25.314 1.55844C24.9658 1.78311 24.5591 1.89999 24.1447 1.89441C23.7171 1.89742 23.2987 1.77013 22.9453 1.52947C22.5918 1.28882 22.32 0.946222 22.1661 0.547279H21.8292C21.6675 0.969741 21.374 1.32887 20.9922 1.57147C20.6104 1.81406 20.1607 1.92721 19.7095 1.89414C19.2584 1.86107 18.83 1.68355 18.4876 1.38788C18.1453 1.09221 17.9073 0.694118 17.8089 0.252594C17.7485 0.319939 17.6773 0.376841 17.5983 0.42099C17.4501 0.831201 17.178 1.18521 16.8198 1.43408C16.4616 1.68295 16.035 1.81439 15.5988 1.81022C15.1318 1.83017 14.6714 1.69414 14.2903 1.42354C13.9092 1.15295 13.629 0.763192 13.4939 0.315738C13.424 0.370041 13.3457 0.412684 13.2623 0.442027C13.1105 0.848303 12.837 1.19779 12.4791 1.44269C12.1212 1.68759 11.6963 1.81595 11.2626 1.81022C10.779 1.82315 10.3056 1.66904 9.92222 1.37384C9.53884 1.07864 9.26885 0.660379 9.15774 0.189449C9.11193 0.249237 9.05471 0.299322 8.98937 0.336792C8.85042 0.780321 8.56853 1.16539 8.18777 1.43193C7.807 1.69846 7.34877 1.83147 6.88447 1.81022C6.37371 1.81524 5.87852 1.63437 5.49125 1.30132C5.10398 0.968267 4.85106 0.505759 4.77957 0V0.126305C4.77957 0.68456 4.55777 1.21995 4.16303 1.6147C3.76828 2.00944 3.23292 2.23121 2.67467 2.23121C2.11642 2.23121 1.58099 2.00944 1.18625 1.6147C0.7915 1.21995 0.569768 0.68456 0.569768 0.126305L0.106688 0.568332C-0.129398 3.01911 0.026928 5.49185 0.569768 7.89338C1.23652 10.4288 2.32522 12.8339 3.79026 15.008V33.7837V81.0387C2.54571 82.8577 1.56092 84.8414 0.864421 86.9324C0.299011 89.074 0.0438532 91.2857 0.106688 93.4997C0.269359 93.3527 0.453968 93.2319 0.653918 93.1419C0.908992 93.0232 1.18527 92.9568 1.46645 92.9467C1.74762 92.9365 2.02797 92.9828 2.29092 93.0829C2.55387 93.183 2.79411 93.3348 2.99739 93.5293C3.20068 93.7238 3.36296 93.9571 3.47454 94.2154H3.83234C4.0405 93.7168 4.43237 93.3174 4.92687 93.0998C5.18323 92.9817 5.46079 92.9164 5.74293 92.9077C6.02506 92.899 6.30605 92.9471 6.5692 93.0492C6.83235 93.1514 7.07222 93.3054 7.27464 93.5021C7.47707 93.6988 7.6379 93.9342 7.74749 94.1944H8.12636C8.23454 93.9377 8.39258 93.7051 8.5913 93.51C8.79002 93.3149 9.02546 93.1611 9.28403 93.0577C9.54471 92.9491 9.82458 92.8941 10.107 92.896C10.3893 92.8978 10.6685 92.9565 10.9277 93.0684C11.187 93.1804 11.421 93.3433 11.6159 93.5476C11.8109 93.7519 11.9628 93.9933 12.0625 94.2575C12.1737 94.2359 12.2881 94.2359 12.3993 94.2575C12.5122 94.0028 12.6745 93.773 12.8768 93.5815C13.0792 93.39 13.3175 93.2406 13.578 93.1419C13.8376 93.0367 14.1155 92.9843 14.3955 92.9878C14.6755 92.9913 14.9521 93.0507 15.2089 93.1624C15.4657 93.2742 15.6976 93.436 15.8911 93.6385C16.0845 93.841 16.2356 94.08 16.3355 94.3417H16.6722C16.8389 93.9277 17.1329 93.5774 17.5116 93.3414C17.8904 93.1053 18.3344 92.9958 18.7795 93.0286C19.2246 93.0614 19.6477 93.2348 19.9878 93.5238C20.3279 93.8128 20.5673 94.2024 20.6715 94.6364C20.732 94.569 20.803 94.5121 20.882 94.468C20.9993 94.1628 21.1829 93.8874 21.4195 93.6618C21.6561 93.4361 21.9398 93.2657 22.2502 93.1629C22.5196 93.0759 22.8037 93.044 23.0857 93.0693C23.3676 93.0946 23.6416 93.1765 23.8912 93.3102C24.1408 93.4438 24.3608 93.6264 24.5382 93.847C24.7156 94.0677 24.8466 94.3218 24.9235 94.5943L25.155 94.4469C25.2962 93.996 25.5849 93.6057 25.9748 93.3388C26.3647 93.0719 26.833 92.9439 27.3045 92.9755C27.7759 93.0071 28.2231 93.1964 28.5739 93.513C28.9247 93.8295 29.1588 94.2549 29.2385 94.7206C29.2764 94.6613 29.3266 94.6111 29.3859 94.5732C29.4277 94.015 29.6896 93.4962 30.1139 93.1311C30.5383 92.7659 31.0904 92.5843 31.6487 92.6262C32.2069 92.668 32.7256 92.93 33.0908 93.3543C33.4559 93.7787 33.6375 94.3307 33.5957 94.889C33.5896 94.8471 33.5896 94.8045 33.5957 94.7626C33.6819 94.362 33.8831 93.9952 34.1747 93.7073C34.4664 93.4194 34.8357 93.2229 35.2374 93.1419C35.5113 93.0803 35.7948 93.0742 36.0711 93.1237C36.3474 93.1734 36.6109 93.2777 36.8463 93.4307C37.0817 93.5837 37.284 93.7822 37.4415 94.0145C37.599 94.2469 37.7084 94.5084 37.7633 94.7837L38.2265 94.3627C38.5333 91.8856 38.4266 89.3746 37.9107 86.9324ZM28.8807 73.0822C28.8608 74.4904 28.3319 75.8438 27.3917 76.8924C26.4515 77.9409 25.1635 78.6137 23.7658 78.7865C23.5207 78.8071 23.2742 78.8071 23.029 78.7865H15.6829C15.4378 78.808 15.1914 78.808 14.9463 78.7865C13.5486 78.6137 12.2605 77.9409 11.3203 76.8924C10.3801 75.8438 9.8512 74.4904 9.83132 73.0822V21.7647C9.83687 20.2144 10.4551 18.7293 11.5513 17.6331C12.6475 16.5369 14.1327 15.9186 15.6829 15.9131H23.029C24.5793 15.9186 26.0644 16.5369 27.1606 17.6331C28.2568 18.7293 28.8752 20.2144 28.8807 21.7647V73.0822ZM27.3862 21.7647V73.0822C27.3862 74.2489 26.9228 75.3679 26.0977 76.1929C25.2727 77.0179 24.1536 77.4814 22.9869 77.4814H15.6408C14.4741 77.4814 13.3551 77.0179 12.5301 76.1929C11.7051 75.3679 11.2416 74.2489 11.2416 73.0822V21.7647C11.2471 20.5996 11.7124 19.4839 12.5362 18.6601C13.36 17.8362 14.4758 17.371 15.6408 17.3654H22.9869C24.1519 17.371 25.2677 17.8362 26.0916 18.6601C26.9154 19.4839 27.3807 20.5996 27.3862 21.7647Z" fill="#52AEFB"/>
</svg>
