<svg width="60" height="87" viewBox="0 0 60 87" fill="none" xmlns="http://www.w3.org/2000/svg">
<path d="M14.9029 35.2232C18.7869 31.4977 23.9605 29.4175 29.3425 29.4175C34.7244 29.4175 39.898 31.4977 43.7821 35.2232H59.0215C59.0215 25.9196 58.811 18.2157 58.2427 16.8264C57.3587 10.217 49.8231 6.78603 49.8231 6.70183C49.8231 4.93371 49.8231 3.3761 49.8231 3.3761H52.4964V0.0292969H6.5254V3.3761H9.19841C9.19841 3.3761 9.19841 4.93371 9.19841 6.70183C9.19841 6.70183 1.64181 10.217 0.778803 16.8264C0.21048 18.2157 0.021049 25.9196 0 35.2232H14.9029Z" fill="#52AEFB"/>
<path d="M58.7275 63.6394H45.3192C41.8724 67.7633 36.9601 70.3892 31.6163 70.9645C30.8474 71.0485 30.0745 71.0907 29.301 71.0908C24.5749 71.0893 19.9916 69.47 16.3136 66.5021C15.2471 65.6459 14.2673 64.6871 13.3881 63.6394H0.232422C0.358716 69.7436 0.46393 73.9534 0.46393 73.9534C0.46393 73.9534 -0.65176 86.225 12.2092 86.225H46.7507C59.6116 86.225 58.4959 73.9534 58.4959 73.9534C58.4959 73.9534 58.6012 69.7436 58.7275 63.6394Z" fill="#52AEFB"/>
<path d="M42.73 36.844C39.178 33.2964 34.3631 31.3037 29.3429 31.3037C24.3226 31.3037 19.5077 33.2964 15.9557 36.844L15.6821 37.1176H0.947754V61.745H14.356L14.6296 62.1028C15.4972 63.1738 16.4782 64.1478 17.5555 65.0076C21.472 68.1522 26.4772 69.6128 31.4704 69.0681C36.4636 68.5233 41.0361 66.018 44.1825 62.1028L44.477 61.745H57.6958V37.1176H42.9615L42.73 36.844Z" fill="#52AEFB"/>
</svg>
