<svg width="95" height="59" viewBox="0 0 95 59" fill="none" xmlns="http://www.w3.org/2000/svg">
<path d="M83.57 44.9194C82.4991 43.6843 81.1752 42.6938 79.6881 42.0149C78.2009 41.3361 76.5853 40.9847 74.9505 40.9847C73.3157 40.9847 71.7001 41.3361 70.2129 42.0149C68.7258 42.6938 67.4018 43.6843 66.3309 44.9194C64.4558 44.919 62.6098 44.4581 60.9545 43.5773C59.2993 42.6964 57.8857 41.4226 56.8379 39.8677C52.1996 38.8659 47.4085 38.7966 42.7432 39.6639C38.078 40.5312 33.6318 42.3177 29.6635 44.9194C28.5906 43.6839 27.2649 42.6931 25.7761 42.0141C24.2872 41.335 22.6699 40.9837 21.0335 40.9837C19.3971 40.9837 17.7798 41.335 16.2909 42.0141C14.802 42.6931 13.4762 43.6839 12.4033 44.9194C10.8695 44.9265 9.3507 44.6185 7.94092 44.0143C7.94092 44.4564 7.94092 44.8984 7.94092 45.3615C7.94649 48.7911 9.31291 52.0783 11.74 54.5015C14.1671 56.9246 17.4565 58.2856 20.8861 58.2856H74.2874C75.9874 58.2856 77.6708 57.9507 79.2414 57.3002C80.8119 56.6496 82.239 55.6961 83.441 54.494C84.6431 53.2919 85.5967 51.8649 86.2473 50.2943C86.8978 48.7237 87.2326 47.0404 87.2326 45.3404C87.2326 45.0247 87.2326 44.6669 87.2326 44.3301C86.0527 44.7273 84.815 44.9264 83.57 44.9194Z" fill="#52AEFB"/>
<path d="M83.8642 17.0505L83.7169 16.819C81.4256 13.3561 78.4797 10.3744 75.0447 8.04152C66.8066 2.78989 57.2402 0 47.4705 0C37.7009 0 28.1344 2.78989 19.8963 8.04152C16.4564 10.3685 13.5094 13.3513 11.2241 16.819L10.7821 17.5136C7.81349 17.7677 5.05121 19.1366 3.05101 21.3449C1.05082 23.5532 -0.0389438 26.4371 0.00106379 29.4163C0.0410714 32.3956 1.20782 35.2491 3.26659 37.4029C5.32536 39.5567 8.12339 40.851 11.0978 41.0253C12.9102 41.0059 14.6883 40.5287 16.267 39.6382C17.8457 38.7476 19.1738 37.4726 20.1279 35.9315C21.088 37.554 22.4663 38.8889 24.1188 39.7965C25.7713 40.7041 27.6373 41.1512 29.5217 41.091C31.4061 41.0307 33.2397 40.4654 34.8309 39.4541C36.422 38.4428 37.7123 37.0226 38.5669 35.3421C39.449 36.8516 40.6932 38.1176 42.1872 39.0257C43.1204 37.46 44.4442 36.1635 46.0289 35.2632C47.6137 34.3628 49.4051 33.8895 51.2277 33.8895C53.0504 33.8895 54.8419 34.3628 56.4267 35.2632C58.0114 36.1635 59.3352 37.46 60.2684 39.0257C61.4546 39.7555 62.7739 40.2427 64.1498 40.4589C65.5257 40.6751 66.9309 40.616 68.2838 40.2851C69.6367 39.9543 70.9105 39.3581 72.0314 38.5313C73.1522 37.7044 74.0977 36.6634 74.8132 35.4684C75.7672 37.0095 77.0952 38.2846 78.6739 39.1751C80.2526 40.0656 82.0307 40.5428 83.8432 40.5622C86.8122 40.3445 89.5889 39.0114 91.6155 36.8307C93.6421 34.6501 94.7685 31.7833 94.7685 28.8064C94.7685 25.8294 93.6421 22.9627 91.6155 20.782C89.5889 18.6013 86.8122 17.2682 83.8432 17.0505H83.8642ZM39.0299 11.7461L34.9674 18.7765C34.8285 19.0172 34.6292 19.2175 34.3893 19.3578C34.1494 19.498 33.8771 19.5734 33.5992 19.5764C33.3199 19.5689 33.0461 19.4968 32.7993 19.3659C32.456 19.1519 32.2065 18.8158 32.1011 18.4252C31.9956 18.0347 32.0421 17.6187 32.2311 17.261L36.2935 10.2306C36.5029 9.86774 36.8477 9.6029 37.2523 9.49435C37.6569 9.38579 38.0881 9.44243 38.451 9.65177C38.8138 9.86112 39.0787 10.206 39.1872 10.6106C39.2958 11.0153 39.2392 11.4464 39.0299 11.8093V11.7461ZM49.828 18.545C49.828 18.9637 49.6617 19.3652 49.3657 19.6613C49.0696 19.9573 48.668 20.1237 48.2493 20.1237C47.8307 20.1237 47.4291 19.9573 47.133 19.6613C46.837 19.3652 46.6707 18.9637 46.6707 18.545V10.4201C46.6707 10.0014 46.837 9.59982 47.133 9.30376C47.4291 9.0077 47.8307 8.84138 48.2493 8.84138C48.668 8.84138 49.0696 9.0077 49.3657 9.30376C49.6617 9.59982 49.828 10.0014 49.828 10.4201V18.545ZM63.6993 19.3659C63.4609 19.4989 63.1934 19.5712 62.9204 19.5764C62.6426 19.5734 62.3703 19.498 62.1303 19.3578C61.8904 19.2175 61.6913 19.0172 61.5523 18.7765L57.4478 11.7461C57.2482 11.3907 57.1959 10.9712 57.3022 10.5777C57.4084 10.1842 57.6648 9.84796 58.0161 9.64124C58.3727 9.4471 58.7904 9.39784 59.1824 9.50368C59.5744 9.60952 59.9106 9.86233 60.121 10.2096L64.1835 17.2399C64.3979 17.5811 64.4737 17.9913 64.3954 18.3866C64.3172 18.7818 64.0907 19.1322 63.7625 19.3659H63.6993Z" fill="#52AEFB"/>
</svg>
