<svg width="35" height="95" viewBox="0 0 35 95" fill="none" xmlns="http://www.w3.org/2000/svg">
<path d="M18.2181 94.6614C0.284344 95.1455 0.284268 81.8425 2.22078 74.7701C4.15729 67.6976 4.45198 61.5513 3.02065 51.6162C1.58932 41.681 -0.873438 39.113 0.368454 31.6617C2.13657 23.8525 7.81988 22.5264 10.0511 21.4108V18.8849H7.94618V10.76C7.84071 8.16848 8.57937 5.61275 10.0511 3.47706C10.9189 2.35898 12.0385 1.46164 13.3187 0.858118C14.5989 0.254591 16.0035 -0.0380694 17.4182 0.0039653C18.7669 -0.0359171 20.1042 0.260711 21.3095 0.867063C22.5149 1.47342 23.5503 2.3704 24.3222 3.47706C25.794 5.61275 26.5326 8.16848 26.4271 10.76V18.8849H24.3222V21.4529C26.5534 22.5685 32.2367 23.8736 34.0049 31.6827C35.2468 39.1341 32.763 41.7231 31.3527 51.6582C29.9424 61.5934 30.195 67.7187 32.1525 74.8122C34.1101 81.9057 36.0466 94.6614 19.2073 94.6614H18.2181Z" fill="#52AEFB"/>
</svg>
