<svg width="96" height="92" fill="none" xmlns="http://www.w3.org/2000/svg"><path d="M40.02 88.342a3.262 3.262 0 1 1 3.263 3.262 3.284 3.284 0 0 1-3.262-3.262zm19.597 0a1.642 1.642 0 1 1 3.284 0 1.642 1.642 0 0 1-3.284 0zM26.95 85.058a1.642 1.642 0 1 1 3.284 0 1.642 1.642 0 0 1-3.284 0zm21.239-1.62a1.643 1.643 0 0 1 2.302-1.685 1.642 1.642 0 1 1-2.302 1.684zm-16.334 0a1.642 1.642 0 0 1 2.267-1.517 1.621 1.621 0 0 1 .995 1.516 1.599 1.599 0 0 1-1.62 1.62 1.62 1.62 0 0 1-1.642-1.62zm39.193-3.263a3.284 3.284 0 1 1 6.567-.042 3.284 3.284 0 0 1-6.567.042zm-16.334-.821a2.463 2.463 0 1 1 4.925-.042 2.463 2.463 0 0 1-4.925.042zm-39.088-.906a3.284 3.284 0 1 1 3.263 3.263 3.265 3.265 0 0 1-3.263-3.263zm47.36 0a1.642 1.642 0 1 1 1.642 1.642 1.64 1.64 0 0 1-1.747-1.642h.105zm-22.859-2.441a2.463 2.463 0 1 1 2.442 2.441 2.44 2.44 0 0 1-2.547-2.357l.105-.084zm-16.334 0a2.462 2.462 0 1 1 2.357 2.441 2.463 2.463 0 0 1-2.462-2.357l.105-.084zm22.86-4.084a3.284 3.284 0 1 1 3.283 3.263 3.261 3.261 0 0 1-3.39-3.178l.106-.085zm-16.314 0a3.263 3.263 0 1 1 3.263 3.263 3.242 3.242 0 0 1-3.368-3.178l.105-.085zm40.814-3.262a4.905 4.905 0 1 1 4.905 4.883 4.905 4.905 0 0 1-5.01-4.799l.105-.084zm-6.525 2.441a2.462 2.462 0 1 1 2.442 2.442 2.44 2.44 0 0 1-2.547-2.357l.105-.085zM9.1 68.661a3.263 3.263 0 1 1 3.262 3.262 3.26 3.26 0 0 1-3.368-3.178l.106-.084zm73.482-3.284a3.284 3.284 0 1 1 3.262 3.284 3.282 3.282 0 0 1-3.367-3.2l.105-.084zm-26.122-1.62a4.904 4.904 0 1 1 4.904 4.904 4.907 4.907 0 0 1-5.01-4.82l.106-.085zm-34.289 3.262a1.623 1.623 0 0 1 1.621-1.642 1.642 1.642 0 0 1 0 3.284 1.621 1.621 0 0 1-1.726-1.558l.105-.084zm19.597-1.642a1.62 1.62 0 0 1 1.62-1.62 1.643 1.643 0 1 1-1.62 1.62zm26.121-5.704a2.463 2.463 0 1 1 2.442 2.441 2.462 2.462 0 0 1-2.547-2.357l.105-.084zm-19.596 0a2.463 2.463 0 1 1 2.442 2.441 2.463 2.463 0 0 1-2.547-2.357l.105-.084zm-21.238-.821a3.283 3.283 0 1 1 3.283 3.263 3.262 3.262 0 0 1-3.389-3.179l.106-.084zm-14.735 0a1.642 1.642 0 1 1 1.642 1.642 1.641 1.641 0 0 1-1.705-1.558l.063-.084zm44.098-2.442a2.463 2.463 0 1 1 2.442 2.442 2.441 2.441 0 0 1-2.505-2.358l.063-.084zm27.764-1.642a2.463 2.463 0 1 1 2.441 2.442 2.442 2.442 0 0 1-2.505-2.357l.064-.085zm-11.43-2.441a4.904 4.904 0 1 1 4.904 4.883 4.904 4.904 0 0 1-4.967-4.8l.063-.083zm-34.31 3.262a1.642 1.642 0 1 1 3.284 0 1.642 1.642 0 0 1-3.284 0zm-34.289 0a1.642 1.642 0 0 1 2.267-1.516 1.62 1.62 0 0 1 .996 1.516 1.6 1.6 0 0 1-1.621 1.621 1.62 1.62 0 0 1-1.705-1.537l.063-.084zm39.194-2.462a2.463 2.463 0 1 1 2.462 2.462 2.44 2.44 0 0 1-2.526-2.4l.064-.062zm-24.502-.8a1.642 1.642 0 1 1 3.284 0 1.642 1.642 0 0 1-3.284 0zm44.203-1.642a1.62 1.62 0 0 1 1.642-1.62 1.6 1.6 0 0 1 1.62 1.62 1.62 1.62 0 0 1-1.62 1.642 1.641 1.641 0 0 1-1.81-1.558l.168-.084zm26.143-3.263a3.263 3.263 0 1 1 3.263 3.263 3.24 3.24 0 0 1-3.431-3.178l.168-.085zM51.62 49.064a1.642 1.642 0 1 1 3.284 0 1.642 1.642 0 0 1-3.284 0zm-26.122-.82a2.463 2.463 0 1 1 2.442 2.44 2.442 2.442 0 0 1-2.61-2.357l.168-.084zM.996 46.6a2.463 2.463 0 1 1 2.441 2.463 2.44 2.44 0 0 1-2.546-2.378l.105-.085zm37.551-4.083a4.905 4.905 0 1 1 4.905 4.904 4.925 4.925 0 0 1-5.073-4.757l.168-.147zm-6.525 3.263a1.621 1.621 0 0 1 1.642-1.621 1.601 1.601 0 0 1 1.62 1.62 1.62 1.62 0 0 1-1.62 1.642 1.641 1.641 0 0 1-1.81-1.557l.168-.084zM9.163 44.16a3.262 3.262 0 1 1 3.262 3.262 3.24 3.24 0 0 1-3.43-3.178l.168-.084zm58.79-4.905a4.905 4.905 0 1 1 4.904 4.905 4.904 4.904 0 0 1-5.073-4.82l.169-.085zM54.88 41.697a2.462 2.462 0 1 1 2.463 2.463 2.443 2.443 0 0 1-2.631-2.379l.168-.084zm29.469-.8a1.642 1.642 0 1 1 1.62 1.62 1.643 1.643 0 0 1-1.852-1.536l.232-.084zm-52.496-2.442a2.463 2.463 0 1 1 2.462 2.463 2.441 2.441 0 0 1-2.462-2.463zm-9.788.821a1.62 1.62 0 0 1 1.62-1.642 1.642 1.642 0 1 1 0 3.284 1.62 1.62 0 0 1-1.62-1.578v-.064zm40.814-2.441a2.463 2.463 0 1 1 0 .063v-.063zm-60.41.8a1.62 1.62 0 0 1 1.62-1.621 1.642 1.642 0 1 1-1.62 1.62zM87.38 33.55a2.462 2.462 0 1 1 2.442 2.463 2.441 2.441 0 0 1-2.442-2.4v-.063zm-42.456 0a2.462 2.462 0 1 1 2.442 2.463 2.441 2.441 0 0 1-2.442-2.4v-.063zm-9.809-2.442a3.284 3.284 0 1 1 3.263 3.263 3.263 3.263 0 0 1-3.263-3.2v-.063zm27.764 0a1.642 1.642 0 1 1 0 .063v-.063zm-9.788 0a1.62 1.62 0 0 1 1.62-1.642 1.642 1.642 0 1 1 0 3.284 1.62 1.62 0 0 1-1.62-1.578v-.064zm-31.026-.82a2.441 2.441 0 1 1 0 .063v-.064zm50.518-1.621a2.462 2.462 0 1 1 2.441 2.441 2.441 2.441 0 0 1-2.336-2.378l-.105-.063zM5.732 27.93a3.262 3.262 0 1 1 3.262 3.262 3.243 3.243 0 0 1-3.262-3.262zm44.203-.821a2.441 2.441 0 1 1 2.441 2.442 2.441 2.441 0 0 1-2.546-2.463l.105.021zm-6.547-1.62a2.463 2.463 0 1 1 2.463 2.44 2.463 2.463 0 0 1-2.568-2.462l.105.021zm-29.468-.822a3.263 3.263 0 1 1 3.263 3.263 3.24 3.24 0 0 1-3.284-3.284l.02.021zm65.252-3.262a3.262 3.262 0 1 1 3.263 3.262 3.284 3.284 0 0 1-3.221-3.283l-.042.02zm-13.072.8a2.463 2.463 0 1 1 2.463 2.462 2.463 2.463 0 0 1-2.42-2.483l-.043.02zm-39.193-.8a3.283 3.283 0 1 1 3.284 3.262 3.284 3.284 0 0 1-3.242-3.283l-.042.02zm24.501-3.284a4.904 4.904 0 1 1 4.905 4.904 4.883 4.883 0 0 1-4.905-4.925v.021zm21.239-6.525a3.263 3.263 0 1 1 3.262 3.263 3.242 3.242 0 0 1-3.22-3.284l-.042.02zm-26.143.82a2.464 2.464 0 0 1 4.272-1.886 2.463 2.463 0 1 1-4.272 1.887zm-29.469.822a1.643 1.643 0 1 1 1.62 1.62 1.641 1.641 0 0 1-1.494-1.662l-.126.042zm44.203-2.463a2.442 2.442 0 1 1 2.442 2.463 2.44 2.44 0 0 1-2.42-2.484l-.022.021zm-27.764-.82a3.262 3.262 0 1 1 3.2 3.24 3.263 3.263 0 0 1-3.178-3.262l-.022.021zm19.597-2.443a2.463 2.463 0 1 1 1.509 2.248 2.44 2.44 0 0 1-1.488-2.269l-.02.021zM25.307 5.872a2.463 2.463 0 1 1 1.504 2.266 2.443 2.443 0 0 1-1.483-2.287l-.02.02zM51.43 1.809a1.642 1.642 0 1 1 3.284 0 1.642 1.642 0 0 1-3.284 0zm-9.788 0A1.62 1.62 0 0 1 43.263.167a1.642 1.642 0 1 1 0 3.263 1.62 1.62 0 0 1-1.6-1.642l-.02.021z" fill="#52AEFB"/></svg>