<svg width="96" height="92" viewBox="0 0 96 92" fill="none" xmlns="http://www.w3.org/2000/svg">
<path d="M40.0207 88.3416C40.0207 87.6963 40.212 87.0655 40.5705 86.529C40.929 85.9925 41.4387 85.5743 42.0349 85.3273C42.631 85.0804 43.2869 85.0158 43.9198 85.1417C44.5527 85.2676 45.1339 85.5783 45.5902 86.0346C46.0465 86.4909 46.3572 87.0722 46.4831 87.7051C46.609 88.338 46.5445 88.9939 46.2976 89.5901C46.0507 90.1863 45.6324 90.6959 45.0959 91.0544C44.5593 91.4128 43.9286 91.6042 43.2834 91.6042C42.4198 91.5987 41.5931 91.2532 40.9824 90.6425C40.3718 90.0318 40.0262 89.2052 40.0207 88.3416ZM59.6174 88.3416C59.6174 87.9061 59.7903 87.4885 60.0982 87.1806C60.4061 86.8727 60.8239 86.6998 61.2593 86.6998C61.584 86.6998 61.9015 86.7961 62.1715 86.9765C62.4415 87.1569 62.6518 87.4133 62.7761 87.7133C62.9003 88.0133 62.9329 88.3434 62.8696 88.6619C62.8062 88.9804 62.6498 89.2729 62.4202 89.5025C62.1906 89.7321 61.8979 89.8885 61.5795 89.9519C61.261 90.0152 60.9308 89.9827 60.6308 89.8584C60.3308 89.7342 60.0746 89.5237 59.8942 89.2537C59.7137 88.9837 59.6174 88.6663 59.6174 88.3416ZM26.9493 85.0579C26.9493 84.7332 27.0456 84.4158 27.226 84.1458C27.4065 83.8758 27.6627 83.6654 27.9627 83.5411C28.2627 83.4168 28.5929 83.3843 28.9114 83.4477C29.2298 83.511 29.5225 83.6674 29.7521 83.897C29.9817 84.1266 30.1381 84.4191 30.2015 84.7376C30.2648 85.0561 30.2322 85.3862 30.108 85.6862C29.9837 85.9862 29.7734 86.2427 29.5034 86.4231C29.2334 86.6035 28.9159 86.6998 28.5912 86.6998C28.1558 86.6998 27.738 86.5268 27.4301 86.2189C27.1222 85.911 26.9493 85.4934 26.9493 85.0579ZM48.1877 83.4372C48.1616 83.2074 48.1842 82.9747 48.2542 82.7543C48.3243 82.5339 48.4402 82.3307 48.5942 82.1582C48.7482 81.9857 48.9371 81.8476 49.1482 81.7531C49.3592 81.6586 49.5878 81.6098 49.819 81.6098C50.0503 81.6098 50.2789 81.6586 50.4899 81.7531C50.701 81.8476 50.8899 81.9857 51.0439 82.1582C51.1979 82.3307 51.3138 82.5339 51.3838 82.7543C51.4539 82.9747 51.4765 83.2074 51.4504 83.4372C51.4048 83.8379 51.2132 84.2078 50.9123 84.4764C50.6115 84.7449 50.2223 84.8934 49.819 84.8934C49.4157 84.8934 49.0266 84.7449 48.7257 84.4764C48.4249 84.2078 48.2333 83.8379 48.1877 83.4372ZM31.8536 83.4372C31.8536 83.0017 32.0267 82.5841 32.3346 82.2762C32.6425 81.9683 33.0601 81.7953 33.4955 81.7953C33.7102 81.7953 33.9226 81.8379 34.1207 81.9207C34.3187 82.0035 34.4984 82.1247 34.6492 82.2775C34.8 82.4302 34.9187 82.6114 34.9989 82.8105C35.0791 83.0095 35.1191 83.2225 35.1163 83.4372C35.1192 83.6508 35.0791 83.8628 34.9987 84.0607C34.9182 84.2587 34.799 84.4385 34.6479 84.5895C34.4969 84.7406 34.3171 84.8599 34.1191 84.9403C33.9212 85.0208 33.7092 85.0608 33.4955 85.0579C33.2809 85.0607 33.0679 85.0209 32.8688 84.9407C32.6698 84.8605 32.4887 84.7415 32.3359 84.5907C32.1832 84.44 32.0618 84.2603 31.979 84.0623C31.8963 83.8643 31.8536 83.6518 31.8536 83.4372ZM71.0469 80.1746C71.0427 79.5234 71.2324 78.8856 71.5916 78.3424C71.9508 77.7992 72.4633 77.3751 73.0642 77.1239C73.665 76.8728 74.3272 76.806 74.9661 76.932C75.605 77.0581 76.1919 77.3712 76.6524 77.8317C77.1129 78.2922 77.4262 78.8792 77.5523 79.5181C77.6783 80.157 77.6115 80.819 77.3603 81.4199C77.1092 82.0207 76.6851 82.5334 76.1419 82.8926C75.5987 83.2518 74.9608 83.4413 74.3096 83.4372C73.446 83.4316 72.6193 83.0861 72.0086 82.4755C71.398 81.8648 71.0524 81.0382 71.0469 80.1746ZM54.7128 79.3536C54.7087 78.8657 54.8497 78.3875 55.1178 77.9798C55.3858 77.572 55.7689 77.2531 56.2185 77.0635C56.6682 76.8738 57.1639 76.822 57.6431 76.9146C58.1222 77.0073 58.563 77.2402 58.9095 77.5837C59.2561 77.9273 59.4927 78.3661 59.5894 78.8443C59.6862 79.3226 59.6387 79.8189 59.453 80.2701C59.2672 80.7214 58.9514 81.1072 58.546 81.3788C58.1405 81.6503 57.6636 81.7953 57.1757 81.7953C56.5261 81.7954 55.903 81.5388 55.4418 81.0815C54.9805 80.6242 54.7184 80.0031 54.7128 79.3536ZM15.6249 78.4485C15.6208 77.7973 15.8105 77.1596 16.1697 76.6164C16.5289 76.0732 17.0414 75.649 17.6422 75.3979C18.2431 75.1468 18.905 75.08 19.5439 75.206C20.1828 75.332 20.77 75.6452 21.2305 76.1057C21.691 76.5662 22.004 77.1532 22.13 77.7921C22.2561 78.431 22.1892 79.093 21.9381 79.6938C21.687 80.2947 21.2629 80.8073 20.7197 81.1665C20.1765 81.5257 19.5389 81.7153 18.8876 81.7112C18.4592 81.7112 18.0347 81.6267 17.6389 81.4628C17.243 81.2988 16.8835 81.0585 16.5805 80.7555C16.2776 80.4526 16.0374 80.0929 15.8734 79.6971C15.7094 79.3012 15.6249 78.877 15.6249 78.4485ZM62.9852 78.4485C62.9852 78.0131 63.1583 77.5955 63.4662 77.2876C63.7741 76.9797 64.1917 76.8067 64.6271 76.8067C65.0625 76.8067 65.4801 76.9797 65.788 77.2876C66.0959 77.5955 66.269 78.0131 66.269 78.4485C66.269 78.884 66.0959 79.3016 65.788 79.6095C65.4801 79.9174 65.0625 80.0904 64.6271 80.0904C64.4028 80.1048 64.178 80.073 63.9665 79.9969C63.755 79.9209 63.5611 79.8023 63.3974 79.6484C63.2336 79.4944 63.1033 79.3085 63.0142 79.1022C62.9252 78.8958 62.8794 78.6733 62.8799 78.4485H62.9852ZM40.126 76.0069C40.1219 75.518 40.2632 75.039 40.5322 74.6308C40.8012 74.2226 41.1857 73.9037 41.6366 73.7147C42.0875 73.5257 42.5843 73.4751 43.0639 73.5695C43.5436 73.6638 43.9845 73.8988 44.3302 74.2445C44.6758 74.5902 44.9108 75.0309 45.0052 75.5106C45.0995 75.9903 45.049 76.4872 44.86 76.938C44.671 77.3889 44.3519 77.7733 43.9437 78.0423C43.5355 78.3113 43.0566 78.4527 42.5678 78.4485C42.2453 78.4626 41.9231 78.4127 41.6202 78.3015C41.3172 78.1904 41.0394 78.0203 40.8026 77.8011C40.5657 77.5818 40.3745 77.3178 40.2404 77.0243C40.1062 76.7308 40.0315 76.4136 40.0207 76.0911L40.126 76.0069ZM23.792 76.0069C23.7882 75.5145 23.9321 75.0323 24.2051 74.6226C24.4781 74.2128 24.8675 73.8943 25.3234 73.7082C25.7792 73.522 26.2805 73.4767 26.7623 73.5782C27.2441 73.6797 27.6844 73.9232 28.0264 74.2775C28.3684 74.6317 28.5964 75.0803 28.6809 75.5653C28.7654 76.0504 28.7025 76.5496 28.5005 76.9986C28.2985 77.4476 27.9666 77.8258 27.5475 78.0842C27.1284 78.3427 26.6414 78.4696 26.1494 78.4485C25.5141 78.4491 24.903 78.2041 24.4441 77.7648C23.9851 77.3255 23.7138 76.7258 23.6866 76.0911L23.792 76.0069ZM46.6512 71.9233C46.647 71.273 46.8361 70.6361 47.1943 70.0934C47.5526 69.5506 48.0639 69.1265 48.6636 68.8747C49.2632 68.6229 49.924 68.5549 50.5624 68.6792C51.2007 68.8035 51.7879 69.1146 52.2492 69.573C52.7106 70.0313 53.0253 70.6164 53.1537 71.2539C53.2821 71.8914 53.2184 72.5527 52.9705 73.154C52.7226 73.7552 52.3017 74.2693 51.7613 74.6311C51.2209 74.9928 50.5853 75.1859 49.9349 75.1859C49.503 75.2028 49.0719 75.1337 48.6669 74.9825C48.2619 74.8314 47.891 74.6013 47.5756 74.3055C47.2603 74.0098 47.007 73.6544 46.8302 73.2599C46.6535 72.8654 46.5566 72.4397 46.5458 72.0076L46.6512 71.9233ZM30.3382 71.9233C30.3382 71.2781 30.5295 70.6473 30.888 70.1107C31.2465 69.5742 31.7562 69.1561 32.3524 68.9091C32.9485 68.6622 33.6044 68.5975 34.2373 68.7234C34.8702 68.8493 35.4515 69.1601 35.9077 69.6164C36.364 70.0726 36.6747 70.654 36.8006 71.2869C36.9265 71.9197 36.862 72.5757 36.6151 73.1719C36.3682 73.7681 35.9499 74.2776 35.4134 74.6361C34.8768 74.9946 34.2462 75.1859 33.6009 75.1859C33.1699 75.2028 32.74 75.1335 32.3362 74.9822C31.9324 74.8308 31.5627 74.6004 31.249 74.3044C30.9354 74.0084 30.684 73.6528 30.5096 73.2584C30.3351 72.864 30.2409 72.4387 30.2328 72.0076L30.3382 71.9233ZM71.1522 68.6608C71.1481 67.6899 71.4322 66.7396 71.9686 65.9303C72.5049 65.121 73.2694 64.4891 74.1652 64.1147C75.061 63.7403 76.0478 63.6401 77.0006 63.827C77.9533 64.0138 78.8291 64.4793 79.5171 65.1643C80.2051 65.8494 80.6744 66.7232 80.8653 67.6751C81.0563 68.6271 80.9602 69.6143 80.5896 70.5117C80.219 71.409 79.5905 72.1763 78.7835 72.7161C77.9766 73.256 77.0275 73.5441 76.0566 73.5441C75.4125 73.5581 74.772 73.445 74.1716 73.2114C73.5712 72.9777 73.0227 72.6281 72.5575 72.1824C72.0923 71.7367 71.7195 71.2038 71.4603 70.614C71.2011 70.0242 71.0606 69.3891 71.0469 68.745L71.1522 68.6608ZM64.6271 71.1024C64.6229 70.6136 64.7643 70.1346 65.0333 69.7264C65.3023 69.3182 65.6868 68.9993 66.1377 68.8102C66.5885 68.6212 67.0853 68.5707 67.565 68.665C68.0447 68.7594 68.4853 68.9944 68.831 69.3401C69.1767 69.6858 69.4116 70.1265 69.506 70.6062C69.6003 71.0859 69.5498 71.5827 69.3608 72.0336C69.1718 72.4845 68.853 72.8689 68.4448 73.1379C68.0366 73.4069 67.5574 73.5483 67.0686 73.5441C66.7462 73.5582 66.4242 73.5083 66.1212 73.3971C65.8182 73.286 65.5402 73.1159 65.3034 72.8967C65.0665 72.6774 64.8756 72.4134 64.7414 72.1199C64.6073 71.8264 64.5326 71.5092 64.5218 71.1866L64.6271 71.1024ZM9.09979 68.6608C9.09979 68.0155 9.29116 67.3847 9.64966 66.8481C10.0082 66.3116 10.5176 65.8934 11.1137 65.6465C11.7099 65.3996 12.3661 65.335 12.9989 65.4609C13.6318 65.5867 14.2131 65.8975 14.6694 66.3537C15.1256 66.81 15.4364 67.3914 15.5622 68.0243C15.6881 68.6571 15.6234 69.3131 15.3765 69.9093C15.1295 70.5055 14.7115 71.015 14.175 71.3735C13.6385 71.732 13.0075 71.9233 12.3622 71.9233C11.932 71.9374 11.5035 71.8661 11.1009 71.7137C10.6983 71.5613 10.3299 71.3307 10.0168 71.0353C9.70378 70.7398 9.45227 70.3853 9.27683 69.9923C9.10138 69.5992 9.00532 69.1753 8.99444 68.745L9.09979 68.6608ZM82.582 65.3771C82.582 64.7268 82.775 64.0911 83.1367 63.5507C83.4985 63.0102 84.0127 62.5893 84.6139 62.3414C85.2151 62.0935 85.8762 62.0298 86.5138 62.1582C87.1513 62.2866 87.7366 62.6014 88.195 63.0628C88.6533 63.5241 88.9643 64.1112 89.0886 64.7495C89.2129 65.3878 89.1448 66.0487 88.8931 66.6484C88.6413 67.248 88.2171 67.7594 87.6744 68.1176C87.1316 68.4759 86.4947 68.6649 85.8444 68.6608C85.4132 68.672 84.9839 68.5981 84.5813 68.4433C84.1786 68.2886 83.8102 68.056 83.4975 67.7589C83.1847 67.4617 82.9337 67.1059 82.7585 66.7117C82.5833 66.3175 82.4875 65.8926 82.4766 65.4613L82.582 65.3771ZM56.4601 63.7563C56.4601 62.7863 56.7478 61.8381 57.2867 61.0316C57.8256 60.2251 58.5915 59.5964 59.4877 59.2252C60.3838 58.854 61.3699 58.7569 62.3213 58.9462C63.2726 59.1354 64.1465 59.6025 64.8324 60.2884C65.5183 60.9743 65.9854 61.8482 66.1747 62.7995C66.3639 63.7509 66.2668 64.737 65.8956 65.6332C65.5244 66.5293 64.8958 67.2953 64.0893 67.8342C63.2828 68.3731 62.3344 68.6608 61.3644 68.6608C60.7186 68.6747 60.0763 68.5609 59.4746 68.326C58.8728 68.091 58.3236 67.7395 57.8581 67.2916C57.3926 66.8437 57.0202 66.3083 56.7622 65.716C56.5043 65.1238 56.3657 64.4864 56.3547 63.8405L56.4601 63.7563ZM22.1711 67.0189C22.1684 66.8043 22.2084 66.5913 22.2886 66.3922C22.3688 66.1931 22.4875 66.012 22.6383 65.8593C22.7891 65.7065 22.9688 65.5852 23.1668 65.5024C23.3648 65.4197 23.5773 65.3771 23.792 65.3771C24.2274 65.3771 24.6449 65.5501 24.9528 65.858C25.2607 66.1659 25.4338 66.5835 25.4338 67.0189C25.4338 67.4544 25.2607 67.872 24.9528 68.1799C24.6449 68.4878 24.2274 68.6608 23.792 68.6608C23.5757 68.675 23.3587 68.6457 23.154 68.5746C22.9492 68.5034 22.7607 68.392 22.5997 68.2467C22.4388 68.1015 22.3086 67.9255 22.2169 67.729C22.1252 67.5326 22.074 67.3198 22.0661 67.1031L22.1711 67.0189ZM41.7679 65.3771C41.7679 64.9472 41.9385 64.535 42.2425 64.231C42.5464 63.9271 42.9586 63.7563 43.3885 63.7563C43.7149 63.7522 44.0354 63.8454 44.3086 64.0242C44.5818 64.203 44.7956 64.4592 44.9224 64.7601C45.0493 65.0609 45.0835 65.3928 45.0208 65.7132C44.9582 66.0336 44.8013 66.3281 44.5704 66.559C44.3395 66.7899 44.045 66.9466 43.7245 67.0093C43.4041 67.072 43.0724 67.0377 42.7715 66.9108C42.4707 66.784 42.2144 66.5703 42.0356 66.2971C41.8568 66.0239 41.7637 65.7036 41.7679 65.3771ZM67.8895 59.6728C67.8854 59.184 68.0268 58.705 68.2958 58.2968C68.5648 57.8885 68.9493 57.5696 69.4001 57.3806C69.851 57.1916 70.348 57.1411 70.8277 57.2354C71.3074 57.3298 71.748 57.5648 72.0937 57.9104C72.4394 58.2561 72.6743 58.6969 72.7687 59.1765C72.863 59.6562 72.8125 60.1531 72.6235 60.604C72.4345 61.0549 72.1157 61.4393 71.7075 61.7083C71.2993 61.9773 70.8202 62.1187 70.3313 62.1145C69.6815 62.1373 69.0491 61.9023 68.572 61.4606C68.0949 61.019 67.8118 60.4066 67.7844 59.757L67.8895 59.6728ZM48.293 59.6728C48.2889 59.184 48.4303 58.705 48.6993 58.2968C48.9683 57.8885 49.3528 57.5696 49.8036 57.3806C50.2545 57.1916 50.7513 57.1411 51.231 57.2354C51.7106 57.3298 52.1513 57.5648 52.4969 57.9104C52.8426 58.2561 53.0778 58.6969 53.1722 59.1765C53.2665 59.6562 53.2158 60.1531 53.0268 60.604C52.8378 61.0549 52.519 61.4393 52.1107 61.7083C51.7025 61.9773 51.2237 62.1187 50.7348 62.1145C50.0851 62.1373 49.4526 61.9023 48.9755 61.4606C48.4984 61.019 48.2151 60.4066 48.1877 59.757L48.293 59.6728ZM27.0547 58.8519C27.0505 58.2016 27.2393 57.5647 27.5976 57.0219C27.9559 56.4792 28.4674 56.055 29.0671 55.8033C29.6667 55.5515 30.3275 55.4835 30.9659 55.6078C31.6042 55.7321 32.1912 56.0432 32.6525 56.5015C33.1138 56.9599 33.4288 57.5449 33.5572 58.1825C33.6856 58.82 33.6216 59.4813 33.3737 60.0826C33.1258 60.6838 32.705 61.1979 32.1645 61.5596C31.6241 61.9214 30.9885 62.1145 30.3382 62.1145C29.9062 62.1314 29.4752 62.0623 29.0701 61.9111C28.6651 61.76 28.2942 61.5299 27.9789 61.2341C27.6636 60.9384 27.4103 60.583 27.2335 60.1885C27.0567 59.794 26.9601 59.3683 26.9493 58.9361L27.0547 58.8519ZM12.3204 58.8519C12.3204 58.4165 12.4932 57.9989 12.8011 57.691C13.109 57.3831 13.5265 57.2101 13.962 57.2101C14.3974 57.2101 14.8152 57.3831 15.1231 57.691C15.431 57.9989 15.6039 58.4165 15.6039 58.8519C15.6039 59.2874 15.431 59.705 15.1231 60.0129C14.8152 60.3208 14.3974 60.4937 13.962 60.4937C13.5299 60.5109 13.1088 60.357 12.7895 60.0653C12.4703 59.7737 12.279 59.3679 12.2571 58.9361L12.3204 58.8519ZM56.4179 56.4102C56.4138 55.9214 56.5552 55.4424 56.8242 55.0342C57.0932 54.6259 57.4777 54.307 57.9285 54.118C58.3794 53.929 58.8762 53.8785 59.3559 53.9728C59.8355 54.0672 60.2764 54.3022 60.6221 54.6479C60.9678 54.9935 61.2027 55.4343 61.2971 55.914C61.3914 56.3936 61.3409 56.8905 61.1519 57.3414C60.9629 57.7923 60.6438 58.1767 60.2356 58.4457C59.8274 58.7147 59.3485 58.8561 58.8597 58.8519C58.2156 58.869 57.5909 58.6307 57.1217 58.1891C56.6525 57.7475 56.3767 57.1384 56.3547 56.4944L56.4179 56.4102ZM84.1815 54.7684C84.1773 54.2796 84.3189 53.8005 84.5879 53.3923C84.8569 52.9841 85.2412 52.6652 85.692 52.4762C86.1429 52.2872 86.64 52.2367 87.1196 52.331C87.5993 52.4254 88.0399 52.6603 88.3856 53.006C88.7313 53.3517 88.9662 53.7925 89.0606 54.2721C89.155 54.7518 89.1044 55.2487 88.9154 55.6996C88.7264 56.1504 88.4076 56.5348 87.9994 56.8038C87.5912 57.0728 87.1121 57.2143 86.6232 57.2101C85.9791 57.2271 85.3544 56.9889 84.8852 56.5473C84.416 56.1057 84.1405 55.4966 84.1185 54.8526L84.1815 54.7684ZM72.752 52.3267C72.7478 51.3558 73.0319 50.4056 73.5683 49.5963C74.1047 48.787 74.8691 48.1551 75.7649 47.7806C76.6607 47.4062 77.6476 47.3061 78.6003 47.4929C79.5531 47.6798 80.4289 48.1452 81.1169 48.8303C81.8049 49.5153 82.2741 50.3892 82.4651 51.3411C82.656 52.293 82.5599 53.2802 82.1894 54.1776C81.8188 55.075 81.1903 55.8422 80.3833 56.3821C79.5763 56.9219 78.6272 57.2101 77.6563 57.2101C76.3627 57.2271 75.1149 56.7322 74.1845 55.8333C73.254 54.9344 72.7164 53.7043 72.6888 52.4109L72.752 52.3267ZM38.442 55.5893C38.442 55.1539 38.6151 54.7363 38.923 54.4284C39.2309 54.1205 39.6484 53.9475 40.0839 53.9475C40.5193 53.9475 40.9369 54.1205 41.2448 54.4284C41.5527 54.7363 41.7258 55.1539 41.7258 55.5893C41.7258 56.0248 41.5527 56.4424 41.2448 56.7503C40.9369 57.0582 40.5193 57.2311 40.0839 57.2311C39.6484 57.2311 39.2309 57.0582 38.923 56.7503C38.6151 56.4424 38.442 56.0248 38.442 55.5893ZM4.15332 55.5893C4.15332 55.1539 4.32617 54.7363 4.63407 54.4284C4.94197 54.1205 5.35951 53.9475 5.79495 53.9475C6.00958 53.9475 6.22208 53.9901 6.4201 54.0729C6.61813 54.1556 6.79786 54.2769 6.94864 54.4296C7.09942 54.5824 7.2184 54.7635 7.2986 54.9626C7.3788 55.1617 7.41856 55.3747 7.41577 55.5893C7.4186 55.8029 7.37854 56.015 7.29809 56.2129C7.21764 56.4108 7.09843 56.5906 6.94736 56.7417C6.79629 56.8928 6.61648 57.012 6.41856 57.0925C6.22064 57.1729 6.00858 57.2129 5.79495 57.2101C5.58204 57.2214 5.369 57.1907 5.168 57.1195C4.96701 57.0484 4.78217 56.9383 4.62379 56.7956C4.46541 56.6528 4.33663 56.4803 4.24505 56.2877C4.15348 56.0952 4.10089 55.8864 4.09012 55.6735L4.15332 55.5893ZM43.3466 53.1266C43.3466 52.6395 43.4909 52.1634 43.7615 51.7584C44.0322 51.3534 44.4167 51.0377 44.8667 50.8513C45.3167 50.6649 45.8119 50.6161 46.2896 50.7112C46.7674 50.8062 47.2063 51.0407 47.5507 51.3852C47.8951 51.7296 48.1297 52.1684 48.2247 52.6461C48.3197 53.1239 48.2708 53.619 48.0844 54.069C47.898 54.519 47.5824 54.9037 47.1774 55.1743C46.7724 55.4449 46.2962 55.5893 45.8091 55.5893C45.485 55.6005 45.162 55.5471 44.8587 55.432C44.5554 55.317 44.278 55.1427 44.0429 54.9193C43.8078 54.6959 43.6196 54.4279 43.4892 54.131C43.3588 53.834 43.2888 53.514 43.2834 53.1897L43.3466 53.1266ZM18.8455 52.3267C18.8455 51.8913 19.0183 51.4737 19.3262 51.1658C19.6341 50.8579 20.0519 50.6849 20.4874 50.6849C20.9228 50.6849 21.3404 50.8579 21.6483 51.1658C21.9562 51.4737 22.129 51.8913 22.129 52.3267C22.129 52.7621 21.9562 53.1798 21.6483 53.4877C21.3404 53.7956 20.9228 53.9685 20.4874 53.9685C20.0519 53.9685 19.6341 53.7956 19.3262 53.4877C19.0183 53.1798 18.8455 52.7621 18.8455 52.3267ZM63.0484 50.6849C63.0484 50.4703 63.091 50.2578 63.1738 50.0598C63.2566 49.8617 63.3777 49.6821 63.5305 49.5313C63.6832 49.3806 63.8643 49.2616 64.0634 49.1814C64.2624 49.1012 64.4757 49.0613 64.6903 49.0641C64.9039 49.0613 65.1157 49.1013 65.3137 49.1817C65.5116 49.2622 65.6914 49.3815 65.8425 49.5325C65.9935 49.6836 66.113 49.8634 66.1934 50.0613C66.2739 50.2592 66.3137 50.4713 66.3109 50.6849C66.3137 50.8995 66.2739 51.1125 66.1937 51.3116C66.1135 51.5107 65.9945 51.6918 65.8437 51.8446C65.693 51.9973 65.5132 52.1186 65.3152 52.2014C65.1172 52.2841 64.9049 52.3267 64.6903 52.3267C64.4679 52.3499 64.2431 52.3274 64.0297 52.2606C63.8163 52.1938 63.6188 52.0841 63.4493 51.9383C63.2798 51.7924 63.1417 51.6135 63.0438 51.4124C62.9459 51.2114 62.8901 50.9925 62.8799 50.7691L63.0484 50.6849ZM89.1911 47.4223C89.1911 46.777 89.3825 46.1462 89.741 45.6097C90.0995 45.0732 90.6092 44.655 91.2053 44.4081C91.8015 44.1611 92.4574 44.0965 93.0903 44.2224C93.7232 44.3483 94.3047 44.659 94.7609 45.1153C95.2172 45.5716 95.5279 46.1529 95.6538 46.7858C95.7797 47.4187 95.715 48.0747 95.4681 48.6708C95.2211 49.267 94.8029 49.7765 94.2663 50.135C93.7298 50.4935 93.0991 50.6849 92.4538 50.6849C92.0177 50.7105 91.5811 50.6477 91.1699 50.5002C90.7587 50.3528 90.3814 50.1238 90.0609 49.8269C89.7404 49.53 89.4834 49.1715 89.305 48.7727C89.1266 48.374 89.0306 47.9433 89.0228 47.5065L89.1911 47.4223ZM51.6187 49.0641C51.6187 48.6287 51.7918 48.2111 52.0997 47.9032C52.4076 47.5953 52.8251 47.4223 53.2606 47.4223C53.5853 47.4223 53.9027 47.5186 54.1727 47.699C54.4427 47.8794 54.6531 48.1358 54.7773 48.4358C54.9016 48.7358 54.9342 49.0659 54.8709 49.3844C54.8075 49.7029 54.6511 49.9955 54.4215 50.2251C54.1918 50.4547 53.8995 50.6111 53.581 50.6744C53.2625 50.7378 52.9324 50.7052 52.6323 50.581C52.3323 50.4567 52.0758 50.2463 51.8954 49.9763C51.715 49.7063 51.6187 49.3888 51.6187 49.0641ZM25.4968 48.2432C25.4926 47.7544 25.6343 47.2753 25.9033 46.8671C26.1723 46.4589 26.5565 46.14 27.0074 45.951C27.4582 45.762 27.9553 45.7115 28.435 45.8058C28.9147 45.9002 29.3553 46.1352 29.7009 46.4808C30.0466 46.8265 30.2816 47.2673 30.3759 47.7469C30.4703 48.2266 30.4198 48.7235 30.2308 49.1744C30.0418 49.6252 29.723 50.0096 29.3148 50.2786C28.9066 50.5476 28.4274 50.6891 27.9386 50.6849C27.611 50.7077 27.2823 50.6642 26.9719 50.557C26.6616 50.4499 26.3759 50.2812 26.1322 50.0611C25.8886 49.841 25.692 49.574 25.5538 49.2762C25.4157 48.9783 25.339 48.6556 25.3285 48.3274L25.4968 48.2432ZM0.995973 46.6014C0.995991 46.1134 1.14093 45.6364 1.41248 45.231C1.68403 44.8256 2.06997 44.5099 2.5212 44.3242C2.97244 44.1384 3.46845 44.0909 3.94674 44.1876C4.42503 44.2844 4.86401 44.521 5.20757 44.8676C5.55114 45.2141 5.78403 45.6549 5.87666 46.134C5.9693 46.6131 5.91752 47.1089 5.72789 47.5585C5.53826 48.0081 5.21912 48.3913 4.81136 48.6594C4.40361 48.9274 3.92543 49.0683 3.43747 49.0641C3.11333 49.0782 2.78983 49.0276 2.48549 48.9151C2.18115 48.8027 1.90219 48.6307 1.66506 48.4093C1.42794 48.1878 1.23737 47.9213 1.1044 47.6254C0.971441 47.3294 0.89871 47.0099 0.890625 46.6856L0.995973 46.6014ZM38.5473 42.5179C38.5473 41.5479 38.835 40.5997 39.3739 39.7931C39.9128 38.9866 40.6788 38.358 41.5749 37.9868C42.4711 37.6156 43.4572 37.5185 44.4085 37.7077C45.3599 37.8969 46.2338 38.364 46.9197 39.0499C47.6056 39.7358 48.0727 40.6097 48.262 41.5611C48.4512 42.5124 48.3541 43.4986 47.9829 44.3947C47.6117 45.2909 46.9831 46.0569 46.1766 46.5958C45.3701 47.1347 44.4217 47.4223 43.4517 47.4223C42.1487 47.462 40.8831 46.9837 39.9323 46.092C38.9814 45.2003 38.423 43.968 38.379 42.6652L38.5473 42.5179ZM32.0222 45.7805C32.0222 45.5659 32.0648 45.3534 32.1476 45.1553C32.2304 44.9573 32.3515 44.7777 32.5042 44.6269C32.657 44.4761 32.8381 44.3572 33.0371 44.277C33.2362 44.1968 33.4492 44.1569 33.6638 44.1597C33.8775 44.1569 34.0895 44.1969 34.2874 44.2773C34.4854 44.3578 34.6652 44.477 34.8162 44.6281C34.9673 44.7792 35.0868 44.959 35.1672 45.1569C35.2477 45.3548 35.2875 45.5669 35.2846 45.7805C35.2874 45.9951 35.2477 46.2081 35.1675 46.4072C35.0873 46.6063 34.9683 46.7874 34.8175 46.9402C34.6667 47.0929 34.487 47.2142 34.289 47.2969C34.091 47.3797 33.8785 47.4223 33.6638 47.4223C33.4414 47.4455 33.2166 47.423 33.0032 47.3562C32.7898 47.2894 32.5925 47.1797 32.423 47.0338C32.2535 46.888 32.1155 46.7091 32.0176 46.508C31.9197 46.307 31.8639 46.088 31.8536 45.8647L32.0222 45.7805ZM9.163 44.1597C9.163 43.5144 9.35411 42.8836 9.71261 42.3471C10.0711 41.8106 10.5808 41.3924 11.1769 41.1455C11.7731 40.8985 12.429 40.8339 13.0619 40.9598C13.6948 41.0857 14.2763 41.3964 14.7326 41.8527C15.1888 42.309 15.4996 42.8903 15.6254 43.5232C15.7513 44.1561 15.6866 44.8121 15.4397 45.4082C15.1927 46.0044 14.7747 46.514 14.2382 46.8725C13.7017 47.231 13.0707 47.4223 12.4254 47.4223C11.9894 47.4479 11.5527 47.3851 11.1415 47.2376C10.7303 47.0902 10.353 46.8612 10.0325 46.5643C9.71204 46.2674 9.45497 45.9089 9.27657 45.5101C9.09818 45.1114 9.0022 44.6807 8.99444 44.2439L9.163 44.1597ZM67.9528 39.2553C67.9528 38.2853 68.2404 37.3371 68.7793 36.5305C69.3183 35.724 70.0842 35.0954 70.9803 34.7242C71.8765 34.353 72.8626 34.2559 73.8139 34.4451C74.7653 34.6343 75.6392 35.1014 76.3251 35.7873C77.011 36.4732 77.4781 37.3471 77.6674 38.2985C77.8566 39.2498 77.7595 40.236 77.3883 41.1321C77.0171 42.0283 76.3885 42.7943 75.582 43.3332C74.7755 43.8721 73.8271 44.1597 72.8571 44.1597C72.206 44.1822 71.557 44.0747 70.948 43.8436C70.3389 43.6124 69.7822 43.2623 69.3099 42.8135C68.8377 42.3648 68.4595 41.8265 68.1976 41.23C67.9357 40.6335 67.7952 39.9908 67.7844 39.3395L67.9528 39.2553ZM54.8814 41.697C54.8814 41.2099 55.0258 40.7337 55.2964 40.3288C55.567 39.9238 55.9517 39.6081 56.4017 39.4217C56.8517 39.2353 57.3467 39.1865 57.8245 39.2816C58.3022 39.3766 58.7411 39.6111 59.0855 39.9556C59.43 40.3 59.6645 40.7388 59.7595 41.2165C59.8545 41.6942 59.8056 42.1894 59.6192 42.6394C59.4328 43.0894 59.1172 43.474 58.7122 43.7447C58.3072 44.0153 57.831 44.1597 57.344 44.1597C57.013 44.1855 56.6802 44.1436 56.366 44.0365C56.0518 43.9294 55.7628 43.7593 55.5166 43.5367C55.2703 43.3141 55.072 43.0436 54.9338 42.7417C54.7956 42.4399 54.7204 42.1131 54.7128 41.7812L54.8814 41.697ZM84.35 40.8971C84.3459 40.5706 84.439 40.2503 84.6178 39.9771C84.7965 39.7039 85.0528 39.4902 85.3536 39.3634C85.6545 39.2365 85.9865 39.2022 86.3069 39.2649C86.6273 39.3276 86.9217 39.4844 87.1525 39.7152C87.3834 39.9461 87.5403 40.2406 87.603 40.561C87.6656 40.8814 87.6314 41.2133 87.5045 41.5141C87.3777 41.815 87.1639 42.0712 86.8907 42.25C86.6175 42.4288 86.2973 42.522 85.9708 42.5179C85.7468 42.5472 85.519 42.53 85.302 42.4673C85.085 42.4046 84.8833 42.2978 84.7095 42.1536C84.5356 42.0093 84.3934 41.8308 84.2917 41.6291C84.19 41.4274 84.1311 41.2068 84.1185 40.9813L84.35 40.8971ZM31.8536 38.4554C31.8536 37.9683 31.9983 37.4922 32.2689 37.0872C32.5395 36.6822 32.924 36.3665 33.374 36.1801C33.824 35.9938 34.3192 35.945 34.797 36.04C35.2747 36.135 35.7134 36.3696 36.0578 36.714C36.4022 37.0584 36.6367 37.4972 36.7318 37.975C36.8268 38.4527 36.7781 38.9479 36.5917 39.3979C36.4053 39.8479 36.0897 40.2325 35.6847 40.5031C35.2797 40.7737 34.8036 40.9182 34.3165 40.9182C33.9923 40.921 33.6707 40.8592 33.3707 40.7364C33.0706 40.6136 32.798 40.4323 32.5687 40.2031C32.3395 39.9738 32.1583 39.7012 32.0356 39.4012C31.9128 39.1011 31.8508 38.7796 31.8536 38.4554ZM22.0661 39.2763C22.0633 39.0617 22.103 38.8487 22.1832 38.6496C22.2634 38.4505 22.3824 38.2694 22.5332 38.1166C22.684 37.9639 22.8634 37.8426 23.0615 37.7599C23.2595 37.6771 23.472 37.6345 23.6866 37.6345C24.1221 37.6345 24.5399 37.8075 24.8478 38.1154C25.1557 38.4233 25.3285 38.8409 25.3285 39.2763C25.3285 39.7118 25.1557 40.1294 24.8478 40.4373C24.5399 40.7452 24.1221 40.9182 23.6866 40.9182C23.264 40.9183 22.8581 40.7533 22.5553 40.4584C22.2525 40.1635 22.077 39.762 22.0661 39.3395V39.2763ZM62.8799 36.8347C62.8757 36.3467 63.0168 35.8685 63.2848 35.4607C63.5529 35.053 63.9359 34.7341 64.3856 34.5444C64.8352 34.3548 65.331 34.303 65.8101 34.3956C66.2892 34.4883 66.73 34.7212 67.0766 35.0647C67.4231 35.4083 67.6597 35.8471 67.7564 36.3254C67.8532 36.8036 67.8058 37.2999 67.62 37.7511C67.4342 38.2024 67.1184 38.5882 66.713 38.8598C66.3075 39.1313 65.8307 39.2763 65.3427 39.2763C64.7039 39.2767 64.0899 39.0288 63.6304 38.585C63.1709 38.1412 62.9017 37.5363 62.8799 36.8978V36.8347ZM2.4693 37.6345C2.4693 37.2047 2.64018 36.7924 2.94414 36.4885C3.24809 36.1845 3.66026 36.0137 4.09012 36.0137C4.41659 36.0096 4.73678 36.1028 5.00998 36.2816C5.28318 36.4604 5.49696 36.7166 5.62383 37.0175C5.75069 37.3183 5.78491 37.6502 5.72224 37.9706C5.65956 38.291 5.50268 38.5855 5.27181 38.8164C5.04094 39.0472 4.74663 39.204 4.4262 39.2667C4.10577 39.3294 3.77378 39.2951 3.47293 39.1682C3.17208 39.0414 2.91609 38.8277 2.7373 38.5545C2.5585 38.2813 2.46514 37.961 2.4693 37.6345ZM87.381 33.551C87.381 33.063 87.5259 32.5861 87.7975 32.1806C88.069 31.7752 88.4549 31.4595 88.9062 31.2738C89.3574 31.088 89.8537 31.0405 90.332 31.1372C90.8103 31.234 91.249 31.4706 91.5926 31.8172C91.9361 32.1637 92.169 32.6045 92.2616 33.0836C92.3543 33.5627 92.3025 34.0585 92.1129 34.5081C91.9232 34.9577 91.6043 35.3409 91.1966 35.609C90.7888 35.877 90.3107 36.0179 89.8227 36.0137C89.1824 36.0138 88.5676 35.7624 88.1109 35.3135C87.6542 34.8647 87.392 34.2544 87.381 33.6141V33.551ZM44.9253 33.551C44.9253 33.063 45.0702 32.5861 45.3418 32.1806C45.6133 31.7752 45.9993 31.4595 46.4505 31.2738C46.9017 31.088 47.3977 31.0405 47.876 31.1372C48.3543 31.234 48.7933 31.4706 49.1369 31.8172C49.4804 32.1637 49.7133 32.6045 49.8059 33.0836C49.8986 33.5627 49.8468 34.0585 49.6572 34.5081C49.4675 34.9577 49.1484 35.3409 48.7406 35.609C48.3329 35.877 47.8547 36.0179 47.3668 36.0137C46.7264 36.0138 46.1117 35.7624 45.655 35.3135C45.1983 34.8647 44.9363 34.2544 44.9253 33.6141V33.551ZM35.1163 31.1093C35.1122 30.4581 35.3016 29.8204 35.6608 29.2772C36.02 28.7339 36.5328 28.3098 37.1336 28.0587C37.7345 27.8075 38.3964 27.7407 39.0353 27.8668C39.6742 27.9928 40.2614 28.3059 40.7219 28.7664C41.1824 29.2269 41.4954 29.814 41.6214 30.4529C41.7475 31.0918 41.6806 31.7537 41.4295 32.3546C41.1784 32.9555 40.7543 33.4681 40.2111 33.8273C39.6679 34.1865 39.0303 34.3761 38.379 34.3719C37.5246 34.3721 36.7041 34.037 36.094 33.4388C35.4839 32.8405 35.1329 32.0268 35.1163 31.1725V31.1093ZM62.8799 31.1093C62.8799 30.6739 63.053 30.2563 63.3609 29.9484C63.6688 29.6405 64.0863 29.4675 64.5218 29.4675C64.9572 29.4675 65.3747 29.6405 65.6826 29.9484C65.9905 30.2563 66.1636 30.6739 66.1636 31.1093C66.1636 31.5448 65.9905 31.9624 65.6826 32.2703C65.3747 32.5782 64.9572 32.7511 64.5218 32.7511C64.097 32.7515 63.6889 32.5872 63.3827 32.2928C63.0766 31.9984 62.8962 31.5969 62.8799 31.1725V31.1093ZM53.0923 31.1093C53.0895 30.8947 53.1292 30.6817 53.2094 30.4826C53.2896 30.2835 53.4086 30.1024 53.5594 29.9496C53.7102 29.7969 53.8897 29.6756 54.0877 29.5928C54.2857 29.5101 54.4982 29.4675 54.7128 29.4675C55.1483 29.4675 55.5661 29.6405 55.874 29.9484C56.1819 30.2563 56.3547 30.6739 56.3547 31.1093C56.3547 31.5448 56.1819 31.9624 55.874 32.2703C55.5661 32.5782 55.1483 32.7511 54.7128 32.7511C54.2902 32.7513 53.8843 32.5863 53.5815 32.2914C53.2787 31.9965 53.1033 31.595 53.0923 31.1725V31.1093ZM22.0661 30.2884C22.0702 29.8064 22.2169 29.3364 22.4877 28.9377C22.7585 28.5389 23.1412 28.2292 23.5877 28.0476C24.0342 27.8661 24.5245 27.8207 24.9968 27.9173C25.469 28.0139 25.9021 28.2481 26.2414 28.5904C26.5808 28.9326 26.8113 29.3677 26.9038 29.8408C26.9964 30.3139 26.9466 30.8037 26.7612 31.2486C26.5758 31.6936 26.263 32.0737 25.8619 32.3411C25.4609 32.6084 24.9896 32.7511 24.5076 32.7511C23.8672 32.7512 23.2525 32.4998 22.7958 32.0509C22.3391 31.6021 22.0771 30.9918 22.0661 30.3516V30.2884ZM72.5837 28.6676C72.5795 28.1788 72.7209 27.6998 72.9899 27.2916C73.2589 26.8833 73.6432 26.5644 74.094 26.3754C74.5449 26.1864 75.0419 26.1359 75.5216 26.2302C76.0013 26.3246 76.4419 26.5596 76.7876 26.9053C77.1333 27.2509 77.3682 27.6917 77.4626 28.1714C77.5569 28.651 77.5064 29.1479 77.3174 29.5988C77.1284 30.0497 76.8096 30.4341 76.4014 30.7031C75.9932 30.9721 75.514 31.1135 75.0252 31.1093C74.4068 31.0828 73.8217 30.8225 73.3879 30.3809C72.9542 29.9394 72.7042 29.3495 72.6888 28.7308L72.5837 28.6676ZM5.732 27.9309C5.732 27.2856 5.92337 26.6548 6.28187 26.1183C6.64036 25.5818 7.14978 25.1636 7.74594 24.9167C8.3421 24.6697 8.99802 24.6051 9.6309 24.731C10.2638 24.8569 10.8453 25.1676 11.3016 25.6239C11.7578 26.0802 12.0686 26.6615 12.1944 27.2944C12.3203 27.9273 12.2556 28.5833 12.0087 29.1795C11.7617 29.7756 11.3437 30.2852 10.8072 30.6437C10.2707 31.0022 9.63972 31.1935 8.99444 31.1935C8.56521 31.1963 8.1397 31.1138 7.7426 30.9509C7.3455 30.7879 6.98468 30.5477 6.68116 30.2442C6.37764 29.9406 6.13753 29.5799 5.97456 29.1828C5.81159 28.7857 5.7292 28.3601 5.732 27.9309ZM49.9349 27.11C49.9349 26.6271 50.078 26.155 50.3463 25.7535C50.6146 25.3519 50.996 25.039 51.4422 24.8542C51.8883 24.6694 52.3792 24.621 52.8528 24.7152C53.3264 24.8094 53.7616 25.042 54.1031 25.3835C54.4446 25.7249 54.677 26.16 54.7712 26.6337C54.8654 27.1073 54.8172 27.5982 54.6324 28.0444C54.4476 28.4905 54.1346 28.8719 53.7331 29.1402C53.3316 29.4085 52.8593 29.5517 52.3764 29.5517C52.0453 29.566 51.7148 29.5127 51.4049 29.3951C51.095 29.2775 50.8123 29.098 50.574 28.8676C50.3357 28.6372 50.1467 28.3606 50.0187 28.0548C49.8907 27.7491 49.8264 27.4204 49.8296 27.089L49.9349 27.11ZM43.3885 25.4892C43.3843 25.0013 43.5253 24.5231 43.7934 24.1153C44.0615 23.7076 44.4445 23.3886 44.8942 23.199C45.3438 23.0094 45.8396 22.9576 46.3187 23.0502C46.7978 23.1429 47.2386 23.3757 47.5852 23.7193C47.9317 24.0629 48.1683 24.5016 48.265 24.9799C48.3618 25.4582 48.3144 25.9545 48.1286 26.4057C47.9428 26.8569 47.627 27.2428 47.2216 27.5144C46.8161 27.7859 46.3393 27.9309 45.8513 27.9309C45.5191 27.9451 45.1875 27.8919 44.8764 27.7745C44.5654 27.6572 44.2813 27.478 44.0414 27.2479C43.8014 27.0178 43.6107 26.7415 43.4804 26.4356C43.3502 26.1297 43.2831 25.8006 43.2834 25.4682L43.3885 25.4892ZM13.9198 24.6683C13.9198 24.023 14.1112 23.3923 14.4697 22.8557C14.8282 22.3192 15.3379 21.901 15.934 21.6541C16.5302 21.4071 17.1861 21.3425 17.819 21.4684C18.4519 21.5943 19.0334 21.905 19.4897 22.3613C19.9459 22.8176 20.2567 23.3989 20.3825 24.0318C20.5084 24.6647 20.4437 25.3207 20.1968 25.9169C19.9498 26.513 19.5316 27.0226 18.995 27.3811C18.4585 27.7396 17.8278 27.9309 17.1825 27.9309C16.7498 27.9366 16.3203 27.8555 15.9194 27.6925C15.5184 27.5295 15.1542 27.2878 14.8482 26.9818C14.5421 26.6757 14.3002 26.3115 14.1372 25.9105C13.9742 25.5096 13.8934 25.0801 13.899 24.6473L13.9198 24.6683ZM79.1718 21.4057C79.1718 20.7604 79.3631 20.1296 79.7216 19.5931C80.0801 19.0566 80.5898 18.6384 81.186 18.3915C81.7821 18.1445 82.4381 18.0799 83.0709 18.2058C83.7038 18.3317 84.2853 18.6424 84.7416 19.0987C85.1979 19.555 85.5086 20.1363 85.6345 20.7692C85.7604 21.4021 85.6957 22.0581 85.4487 22.6543C85.2018 23.2504 84.7835 23.76 84.247 24.1185C83.7104 24.477 83.0798 24.6683 82.4345 24.6683C81.5746 24.6518 80.7555 24.2985 80.1533 23.6845C79.5511 23.0705 79.2138 22.2447 79.2139 21.3847L79.1718 21.4057ZM66.1004 22.2056C66.1004 21.7185 66.2448 21.2424 66.5154 20.8374C66.786 20.4324 67.1708 20.1167 67.6208 19.9303C68.0708 19.7439 68.566 19.6952 69.0437 19.7902C69.5215 19.8852 69.9602 20.1197 70.3046 20.4642C70.649 20.8086 70.8835 21.2474 70.9785 21.7251C71.0736 22.2028 71.0249 22.698 70.8385 23.148C70.6521 23.598 70.3365 23.9827 69.9315 24.2533C69.5265 24.5239 69.0503 24.6683 68.5633 24.6683C67.9138 24.6572 67.2948 24.39 66.8415 23.9248C66.3881 23.4596 66.1369 22.8341 66.1426 22.1845L66.1004 22.2056ZM26.9072 21.4057C26.903 20.7554 27.0921 20.1185 27.4504 19.5757C27.8086 19.033 28.3199 18.6088 28.9196 18.3571C29.5192 18.1053 30.1801 18.0373 30.8184 18.1616C31.4568 18.2859 32.0439 18.597 32.5053 19.0553C32.9666 19.5137 33.2813 20.0988 33.4097 20.7363C33.5381 21.3738 33.4744 22.0351 33.2265 22.6364C32.9786 23.2376 32.5578 23.7517 32.0173 24.1134C31.4769 24.4752 30.8413 24.6683 30.1909 24.6683C29.3274 24.6572 28.5029 24.3064 27.8962 23.6918C27.2894 23.0772 26.9492 22.2483 26.9493 21.3847L26.9072 21.4057ZM51.4083 18.1221C51.4083 17.1521 51.6959 16.2039 52.2349 15.3973C52.7738 14.5908 53.5397 13.9622 54.4359 13.591C55.332 13.2198 56.3181 13.1227 57.2695 13.3119C58.2208 13.5011 59.0947 13.9682 59.7806 14.6541C60.4665 15.34 60.9336 16.2139 61.1229 17.1653C61.3121 18.1166 61.215 19.1027 60.8438 19.9989C60.4726 20.8951 59.844 21.661 59.0375 22.1999C58.231 22.7388 57.2826 23.0265 56.3126 23.0265C55.666 23.0293 55.0253 22.9037 54.4276 22.6569C53.83 22.4101 53.2872 22.047 52.831 21.5888C52.3747 21.1306 52.014 20.5864 51.7698 19.9876C51.5255 19.3889 51.4027 18.7476 51.4083 18.101V18.1221ZM72.6466 11.5969C72.6466 10.9516 72.838 10.3208 73.1965 9.78428C73.555 9.24775 74.0647 8.82957 74.6608 8.58263C75.257 8.33569 75.9129 8.27108 76.5458 8.39697C77.1787 8.52285 77.7599 8.83359 78.2162 9.28987C78.6725 9.74615 78.9832 10.3275 79.1091 10.9604C79.235 11.5933 79.1705 12.2493 78.9236 12.8454C78.6766 13.4416 78.2584 13.9511 77.7218 14.3096C77.1853 14.6681 76.5546 14.8595 75.9093 14.8595C75.4819 14.8567 75.0591 14.7695 74.6655 14.6027C74.2719 14.4359 73.9152 14.193 73.6158 13.8878C73.3165 13.5826 73.0804 13.2212 72.9213 12.8244C72.7622 12.4276 72.6832 12.0033 72.6888 11.5758L72.6466 11.5969ZM46.5039 12.4178C46.4723 12.0767 46.512 11.7327 46.6208 11.4079C46.7297 11.083 46.9052 10.7845 47.136 10.5313C47.3668 10.2781 47.6479 10.0759 47.9613 9.93749C48.2747 9.7991 48.6134 9.72763 48.956 9.72763C49.2985 9.72763 49.6375 9.7991 49.9509 9.93749C50.2643 10.0759 50.5454 10.2781 50.7762 10.5313C51.007 10.7845 51.1822 11.083 51.2911 11.4079C51.3999 11.7327 51.4399 12.0767 51.4083 12.4178C51.3516 13.0289 51.0687 13.5969 50.6151 14.0104C50.1615 14.4239 49.5697 14.6531 48.956 14.6531C48.3422 14.6531 47.7505 14.4239 47.2969 14.0104C46.8433 13.5969 46.5606 13.0289 46.5039 12.4178ZM17.0353 13.2387C17.0312 12.9122 17.1243 12.5919 17.303 12.3187C17.4818 12.0455 17.7381 11.8318 18.0389 11.705C18.3398 11.5781 18.6715 11.5438 18.992 11.6065C19.3124 11.6692 19.6069 11.826 19.8378 12.0568C20.0687 12.2877 20.2256 12.5822 20.2882 12.9026C20.3509 13.223 20.3167 13.5549 20.1898 13.8557C20.063 14.1566 19.8492 14.4128 19.576 14.5916C19.3028 14.7704 18.9823 14.8636 18.6559 14.8595C18.2428 14.8223 17.8593 14.6302 17.5821 14.3217C17.3049 14.0133 17.1545 13.6113 17.1615 13.1966L17.0353 13.2387ZM61.2382 10.776C61.2424 10.294 61.3891 9.82397 61.6599 9.42522C61.9307 9.02646 62.3134 8.71679 62.7599 8.5352C63.2064 8.35362 63.6967 8.30826 64.169 8.40484C64.6412 8.50141 65.0742 8.73561 65.4136 9.07791C65.753 9.42021 65.9835 9.85529 66.076 10.3284C66.1685 10.8014 66.1191 11.2913 65.9337 11.7362C65.7483 12.1811 65.4352 12.5612 65.0341 12.8286C64.633 13.096 64.1618 13.2387 63.6797 13.2387C63.3573 13.236 63.0387 13.1694 62.7421 13.0428C62.4456 12.9163 62.1768 12.7322 61.9518 12.5013C61.7267 12.2703 61.5498 11.9971 61.4309 11.6974C61.3121 11.3977 61.2537 11.0773 61.2593 10.7549L61.2382 10.776ZM33.4745 9.95506C33.4704 9.30623 33.6598 8.67093 34.0187 8.13034C34.3775 7.58975 34.8894 7.16842 35.4889 6.9202C36.0884 6.67198 36.7482 6.60815 37.3841 6.73686C38.0201 6.86556 38.6034 7.18095 39.0592 7.64273C39.515 8.10452 39.8227 8.69172 39.9431 9.3293C40.0634 9.96687 39.991 10.6259 39.7349 11.222C39.4789 11.8182 39.0509 12.3245 38.5057 12.6763C37.9605 13.028 37.3227 13.2092 36.6739 13.1966C35.8233 13.1746 35.0151 12.8212 34.4213 12.2117C33.8275 11.6023 33.4952 10.7849 33.4955 9.934L33.4745 9.95506ZM53.0712 7.51338C53.0671 7.02453 53.2084 6.54549 53.4774 6.13729C53.7464 5.72908 54.1307 5.41018 54.5815 5.22118C55.0324 5.03218 55.5295 4.98164 56.0091 5.07599C56.4888 5.17034 56.9294 5.40532 57.2751 5.751C57.6208 6.09668 57.8557 6.53743 57.9501 7.0171C58.0445 7.49678 57.9939 7.99368 57.8049 8.44453C57.6159 8.89539 57.2971 9.27979 56.8889 9.54879C56.4807 9.81779 56.0016 9.95922 55.5127 9.95506C55.1921 9.9523 54.8752 9.88641 54.58 9.76116C54.2848 9.6359 54.0172 9.45373 53.7925 9.22504C53.5677 8.99635 53.3902 8.72563 53.2701 8.42833C53.1499 8.13103 53.0895 7.81297 53.0923 7.49232L53.0712 7.51338ZM25.3074 5.87154C25.3074 5.38357 25.4524 4.90661 25.7239 4.50117C25.9955 4.09573 26.3814 3.78011 26.8327 3.59434C27.2839 3.40858 27.7802 3.36105 28.2585 3.45779C28.7367 3.55454 29.1755 3.79119 29.519 4.13772C29.8626 4.48425 30.0955 4.92502 30.1881 5.40412C30.2808 5.88323 30.229 6.37904 30.0393 6.82867C29.8497 7.27829 29.5308 7.66144 29.1231 7.9295C28.7153 8.19756 28.2371 8.33846 27.7492 8.33429C27.4267 8.33156 27.1079 8.26499 26.8113 8.13842C26.5148 8.01184 26.2463 7.82778 26.0212 7.59685C25.7962 7.36593 25.619 7.0927 25.5001 6.79297C25.3812 6.49323 25.3229 6.17291 25.3285 5.8505L25.3074 5.87154ZM51.4293 1.80908C51.4293 1.37364 51.6022 0.956053 51.9101 0.648152C52.218 0.34025 52.6358 0.167261 53.0712 0.167261C53.3959 0.167261 53.7134 0.263554 53.9834 0.44396C54.2534 0.624366 54.4637 0.880781 54.588 1.18078C54.7122 1.48079 54.7448 1.81091 54.6815 2.1294C54.6181 2.44788 54.4617 2.74041 54.2321 2.97003C54.0025 3.19964 53.7098 3.35601 53.3914 3.41936C53.0729 3.48271 52.7427 3.4502 52.4427 3.32593C52.1427 3.20166 51.8865 2.99124 51.7061 2.72124C51.5257 2.45124 51.4293 2.1338 51.4293 1.80908ZM41.6415 1.80908C41.6387 1.59447 41.6787 1.38145 41.7589 1.18237C41.8391 0.983297 41.9578 0.802144 42.1086 0.649404C42.2594 0.496665 42.4391 0.375383 42.6371 0.292619C42.8352 0.209854 43.0477 0.167243 43.2623 0.167261C43.4921 0.141117 43.7249 0.163823 43.9453 0.233875C44.1657 0.303926 44.3686 0.419739 44.5411 0.57375C44.7136 0.727761 44.8518 0.916492 44.9463 1.12756C45.0408 1.33864 45.0897 1.56729 45.0897 1.79856C45.0897 2.02983 45.0408 2.25849 44.9463 2.46956C44.8518 2.68063 44.7136 2.86936 44.5411 3.02338C44.3686 3.17739 44.1657 3.29322 43.9453 3.36327C43.7249 3.43332 43.4921 3.45601 43.2623 3.42986C43.0494 3.42712 42.8392 3.38247 42.6436 3.29847C42.448 3.21447 42.2708 3.09276 42.1222 2.9403C41.9737 2.78784 41.8568 2.60761 41.7779 2.4099C41.699 2.21219 41.6598 2.00089 41.6626 1.78804L41.6415 1.80908Z" fill="#52AEFB"/>
</svg>
